SplineFontDB: 3.2
FontName: MarioWorldPixelColor
FullName: Mario World Pixel Color
FamilyName: Mario World Pixel Color
Weight: Book
Copyright: (c) BROTHERSZZZ paramount17 Productions. This is Freeware.
Version: 1.000;August 19, 2022;FontCreator 14.0.0.2814 32-bit
ItalicAngle: 0
UnderlinePosition: -292
UnderlineWidth: 150
Ascent: 1638
Descent: 410
InvalidEm: 0
sfntRevision: 0x00010000
LayerCount: 2
Layer: 0 1 "Arri+AOgA-re" 1
Layer: 1 1 "Avant" 0
XUID: [1021 1005 -867463990 13434158]
StyleMap: 0x0040
FSType: 0
OS2Version: 4
OS2_WeightWidthSlopeOnly: 0
OS2_UseTypoMetrics: 1
CreationTime: 1660908146
ModificationTime: 1736339963
PfmFamily: 17
TTFWeight: 400
TTFWidth: 5
LineGap: 0
VLineGap: 0
Panose: 2 0 5 0 0 0 0 0 0 0
OS2TypoAscent: 1620
OS2TypoAOffset: 0
OS2TypoDescent: -435
OS2TypoDOffset: 0
OS2TypoLinegap: 100
OS2WinAscent: 1723
OS2WinAOffset: 0
OS2WinDescent: 428
OS2WinDOffset: 0
HheadAscent: 1723
HheadAOffset: 0
HheadDescent: -428
HheadDOffset: 0
OS2SubXSize: 1434
OS2SubYSize: 1331
OS2SubXOff: 0
OS2SubYOff: 307
OS2SupXSize: 1434
OS2SupYSize: 1331
OS2SupXOff: 0
OS2SupYOff: 922
OS2StrikeYSize: 102
OS2StrikeYPos: 530
OS2CapHeight: 1434
OS2XHeight: 958
OS2Vendor: 'HL  '
OS2CodePages: 00000001.00000000
OS2UnicodeRanges: 00000001.00000000.00000000.00000000
DEI: 91125
TtTable: prep
SVTCA[y-axis]
MPPEM
PUSHW_1
 200
GT
IF
PUSHB_2
 1
 1
INSTCTRL
EIF
PUSHB_1
 1
PUSHW_2
 2048
 2048
MUL
WCVTF
PUSHB_2
 0
 7
WS
PUSHB_3
 40
 1
 0
LOOPCALL
PUSHB_2
 0
 7
WS
PUSHB_4
 19
 18
 1
 10
LOOPCALL
PUSHB_2
 0
 7
WS
PUSHB_4
 37
 6
 1
 10
LOOPCALL
PUSHB_2
 0
 8
WS
PUSHW_3
 1280
 1
 11
LOOPCALL
PUSHB_2
 0
 9
WS
PUSHW_3
 704
 1
 11
LOOPCALL
PUSHW_2
 3
 0
WCVTP
PUSHB_2
 36
 1
GETINFO
LTEQ
IF
PUSHB_1
 64
GETINFO
IF
PUSHW_2
 3
 100
WCVTP
PUSHB_2
 40
 1
GETINFO
LTEQ
IF
PUSHW_1
 2048
GETINFO
IF
PUSHW_2
 3
 0
WCVTP
EIF
ELSE
PUSHB_2
 39
 1
GETINFO
LTEQ
IF
PUSHW_3
 2176
 1
 1088
GETINFO
MUL
EQ
IF
PUSHW_2
 3
 0
WCVTP
EIF
EIF
EIF
EIF
EIF
PUSHB_4
 31
 6
 1
 14
LOOPCALL
PUSHW_1
 511
SCANCTRL
PUSHB_1
 4

StartChar: .notdef
Encoding: 65536 -1 0
GlifName: _notdef
Width: 1024
GlyphClass: 1
Flags: W
LayerCount: 2
Fore
SplineSet
100 0 m 1,0,-1
 100 1434 l 1,1,-1
 924 1434 l 1,2,-1
 924 0 l 1,3,-1
 100 0 l 1,0,-1
150 50 m 1,4,-1
 874 50 l 1,5,-1
 874 1384 l 1,6,-1
 150 1384 l 1,7,-1
 150 50 l 1,4,-1
325 1148 m 1,8,9
 356 1176 356 1176 383 1191 c 0,10,11
 436 1221 436 1221 495 1221 c 0,12,13
 587 1221 587 1221 643 1173.5 c 128,-1,14
 699 1126 699 1126 699 1046 c 0,15,16
 699 997 699 997 676 947.5 c 128,-1,17
 653 898 653 898 589 818 c 0,18,19
 526 738 526 738 490 686 c 128,-1,20
 454 634 454 634 454 587 c 0,21,22
 454 549 454 549 478 454 c 1,23,-1
 446 454 l 1,24,25
 411 551 411 551 411 602 c 0,26,27
 411 678 411 678 492.5 820 c 128,-1,28
 574 962 574 962 574 1037 c 0,29,30
 574 1094 574 1094 541 1127 c 128,-1,31
 508 1160 508 1160 450 1160 c 0,32,33
 412 1160 412 1160 381 1143 c 0,34,35
 355 1128 355 1128 325 1103 c 1,36,-1
 325 1148 l 1,8,9
389 334 m 2,37,-1
 446 392 l 2,38,39
 457 402 457 402 466 402 c 0,40,41
 476 402 476 402 488 391 c 2,42,-1
 544 331 l 2,43,44
 553 320 553 320 553 311 c 0,45,46
 553 300 553 300 543 289 c 2,47,-1
 487 227 l 2,48,49
 473 213 473 213 466 213 c 0,50,51
 455 213 455 213 446 223 c 2,52,-1
 385 294 l 2,53,54
 378 303 378 303 378 312 c 0,55,56
 378 322 378 322 389 334 c 2,37,-1
EndSplineSet
Validated: 1
EndChar

StartChar: exclam
Encoding: 33 33 2
GlifName: exclam
Width: 979
GlyphClass: 1
Flags: W
LayerCount: 2
Fore
SplineSet
0 0 m 1,0,-1
 0 356 l 1,1,-1
 89 356 l 1,2,-1
 89 712 l 1,3,-1
 623 712 l 1,4,-1
 623 356 l 1,5,-1
 712 356 l 1,6,-1
 712 0 l 1,7,-1
 0 0 l 1,0,-1
89 890 m 1,8,-1
 89 1602 l 1,9,-1
 0 1602 l 1,10,-1
 0 2582 l 1,11,-1
 890 2582 l 1,12,-1
 890 2048 l 1,13,-1
 801 2048 l 1,14,-1
 801 1335 l 1,15,-1
 712 1335 l 1,16,-1
 712 979 l 1,17,-1
 356 979 l 1,18,-1
 356 890 l 1,19,-1
 89 890 l 1,8,-1
EndSplineSet
Validated: 1
EndChar

StartChar: quotedbl
Encoding: 34 34 3
GlifName: quotedbl
Width: 1068
GlyphClass: 1
Flags: W
LayerCount: 2
Fore
SplineSet
89 1780 m 1,0,-1
 89 2226 l 1,1,-1
 0 2226 l 1,2,-1
 0 2671 l 1,3,-1
 445 2671 l 1,4,-1
 445 1780 l 1,5,-1
 89 1780 l 1,0,-1
534 1780 m 1,6,-1
 534 2671 l 1,7,-1
 712 2671 l 1,8,-1
 712 2582 l 1,9,-1
 890 2582 l 1,10,-1
 890 2493 l 1,11,-1
 979 2493 l 1,12,-1
 979 2137 l 1,13,-1
 890 2137 l 1,14,-1
 890 1780 l 1,15,-1
 534 1780 l 1,6,-1
EndSplineSet
Validated: 1
EndChar

StartChar: numbersign
Encoding: 35 35 4
GlifName: numbersign
Width: 2404
GlyphClass: 1
Flags: W
LayerCount: 2
Fore
SplineSet
1335 1068 m 1,0,-1
 1335 1335 l 1,1,-1
 890 1335 l 1,2,-1
 890 1068 l 1,3,-1
 1335 1068 l 1,0,-1
178 267 m 1,4,-1
 178 534 l 1,5,-1
 0 534 l 1,6,-1
 0 801 l 1,7,-1
 89 801 l 1,8,-1
 89 1068 l 1,9,-1
 267 1068 l 1,10,-1
 267 1335 l 1,11,-1
 0 1335 l 1,12,-1
 0 1602 l 1,13,-1
 89 1602 l 1,14,-1
 89 1869 l 1,15,-1
 445 1869 l 1,16,-1
 445 2404 l 1,17,-1
 979 2404 l 1,18,-1
 979 1869 l 1,19,-1
 1424 1869 l 1,20,-1
 1424 2404 l 1,21,-1
 2048 2404 l 1,22,-1
 2048 1869 l 1,23,-1
 2315 1869 l 1,24,-1
 2315 1602 l 1,25,-1
 2226 1602 l 1,26,-1
 2226 1335 l 1,27,-1
 1958 1335 l 1,28,-1
 1958 1068 l 1,29,-1
 2315 1068 l 1,30,-1
 2315 801 l 1,31,-1
 2226 801 l 1,32,-1
 2226 534 l 1,33,-1
 1869 534 l 1,34,-1
 1869 267 l 1,35,-1
 1246 267 l 1,36,-1
 1246 534 l 1,37,-1
 801 534 l 1,38,-1
 801 267 l 1,39,-1
 178 267 l 1,4,-1
EndSplineSet
Validated: 1
EndChar

StartChar: dollar
Encoding: 36 36 5
GlifName: dollar
Width: 2048
GlyphClass: 1
Flags: W
LayerCount: 2
Fore
SplineSet
534 0 m 1,0,-1
 534 267 l 1,1,-1
 0 267 l 1,2,-1
 0 979 l 1,3,-1
 445 979 l 1,4,-1
 445 1068 l 1,5,-1
 623 1068 l 1,6,-1
 623 1157 l 1,7,-1
 534 1157 l 1,8,-1
 534 1335 l 1,9,-1
 445 1335 l 1,10,-1
 445 1424 l 1,11,-1
 356 1424 l 1,12,-1
 356 1513 l 1,13,-1
 267 1513 l 1,14,-1
 267 1691 l 1,15,-1
 178 1691 l 1,16,-1
 178 1780 l 1,17,-1
 89 1780 l 1,18,-1
 89 1869 l 1,19,-1
 178 1869 l 1,20,-1
 178 2048 l 1,21,-1
 267 2048 l 1,22,-1
 267 2226 l 1,23,-1
 356 2226 l 1,24,-1
 356 2404 l 1,25,-1
 445 2404 l 1,26,-1
 445 2493 l 1,27,-1
 801 2493 l 1,28,-1
 801 2582 l 1,29,-1
 890 2582 l 1,30,-1
 890 3027 l 1,31,-1
 1246 3027 l 1,32,-1
 1246 2938 l 1,33,-1
 1602 2938 l 1,34,-1
 1602 2493 l 1,35,-1
 1513 2493 l 1,36,-1
 1513 2404 l 1,37,-1
 1869 2404 l 1,38,-1
 1869 2048 l 1,39,-1
 1958 2048 l 1,40,-1
 1958 1691 l 1,41,-1
 1602 1691 l 1,42,-1
 1602 1602 l 1,43,-1
 1335 1602 l 1,44,-1
 1335 1513 l 1,45,-1
 1513 1513 l 1,46,-1
 1513 1424 l 1,47,-1
 1691 1424 l 1,48,-1
 1691 1335 l 1,49,-1
 1869 1335 l 1,50,-1
 1869 1246 l 1,51,-1
 1958 1246 l 1,52,-1
 1958 1068 l 1,53,-1
 1869 1068 l 1,54,-1
 1869 890 l 1,55,-1
 1780 890 l 1,56,-1
 1780 712 l 1,57,-1
 1691 712 l 1,58,-1
 1691 534 l 1,59,-1
 1602 534 l 1,60,-1
 1602 356 l 1,61,-1
 1513 356 l 1,62,-1
 1513 267 l 1,63,-1
 1246 267 l 1,64,-1
 1246 0 l 1,65,-1
 534 0 l 1,0,-1
EndSplineSet
Validated: 1
EndChar

StartChar: percent
Encoding: 37 37 6
GlifName: percent
Width: 2404
GlyphClass: 1
Flags: W
LayerCount: 2
Fore
SplineSet
1958 534 m 1,0,-1
 1958 712 l 1,1,-1
 1780 712 l 1,2,-1
 1780 534 l 1,3,-1
 1958 534 l 1,0,-1
1780 89 m 1,4,-1
 1780 178 l 1,5,-1
 1602 178 l 1,6,-1
 1602 267 l 1,7,-1
 1513 267 l 1,8,-1
 1513 356 l 1,9,-1
 1424 356 l 1,10,-1
 1424 623 l 1,11,-1
 1335 623 l 1,12,-1
 1335 890 l 1,13,-1
 1424 890 l 1,14,-1
 1424 979 l 1,15,-1
 1513 979 l 1,16,-1
 1513 1068 l 1,17,-1
 1691 1068 l 1,18,-1
 1691 1157 l 1,19,-1
 1958 1157 l 1,20,-1
 1958 1068 l 1,21,-1
 2137 1068 l 1,22,-1
 2137 979 l 1,23,-1
 2226 979 l 1,24,-1
 2226 801 l 1,25,-1
 2315 801 l 1,26,-1
 2315 534 l 1,27,-1
 2226 534 l 1,28,-1
 2226 267 l 1,29,-1
 2137 267 l 1,30,-1
 2137 178 l 1,31,-1
 1958 178 l 1,32,-1
 1958 89 l 1,33,-1
 1780 89 l 1,4,-1
623 2137 m 1,34,-1
 623 2315 l 1,35,-1
 445 2315 l 1,36,-1
 445 2137 l 1,37,-1
 623 2137 l 1,34,-1
356 1691 m 1,38,-1
 356 1780 l 1,39,-1
 267 1780 l 1,40,-1
 267 1869 l 1,41,-1
 178 1869 l 1,42,-1
 178 2048 l 1,43,-1
 89 2048 l 1,44,-1
 89 2137 l 1,45,-1
 0 2137 l 1,46,-1
 0 2315 l 1,47,-1
 89 2315 l 1,48,-1
 89 2493 l 1,49,-1
 178 2493 l 1,50,-1
 178 2582 l 1,51,-1
 267 2582 l 1,52,-1
 267 2671 l 1,53,-1
 534 2671 l 1,54,-1
 534 2760 l 1,55,-1
 712 2760 l 1,56,-1
 712 2671 l 1,57,-1
 801 2671 l 1,58,-1
 801 2582 l 1,59,-1
 890 2582 l 1,60,-1
 890 2493 l 1,61,-1
 979 2493 l 1,62,-1
 979 2404 l 1,63,-1
 1068 2404 l 1,64,-1
 1068 2226 l 1,65,-1
 979 2226 l 1,66,-1
 979 2048 l 1,67,-1
 890 2048 l 1,68,-1
 890 1869 l 1,69,-1
 801 1869 l 1,70,-1
 801 1780 l 1,71,-1
 712 1780 l 1,72,-1
 712 1691 l 1,73,-1
 356 1691 l 1,38,-1
356 0 m 5,74,-1
 356 89 l 5,75,-1
 267 89 l 5,76,-1
 267 178 l 5,77,-1
 178 178 l 5,78,-1
 178 267 l 5,79,-1
 89 267 l 5,80,-1
 89 356 l 5,81,-1
 0 356 l 5,82,-1
 0 445 l 5,83,-1
 89 445 l 5,84,-1
 89 623 l 5,85,-1
 178 623 l 5,86,-1
 178 712 l 5,87,-1
 267 712 l 5,88,-1
 267 801 l 5,89,-1
 356 801 l 5,90,-1
 356 979 l 5,91,-1
 445 979 l 5,92,-1
 445 1068 l 5,93,-1
 534 1068 l 5,94,-1
 534 1157 l 5,95,-1
 623 1157 l 5,96,-1
 623 1335 l 5,97,-1
 712 1335 l 5,98,-1
 712 1424 l 5,99,-1
 801 1424 l 5,100,-1
 801 1602 l 5,101,-1
 890 1602 l 5,102,-1
 890 1691 l 5,103,-1
 979 1691 l 5,104,-1
 979 1780 l 5,105,-1
 1068 1780 l 5,106,-1
 1068 1958 l 5,107,-1
 1157 1958 l 5,108,-1
 1157 2048 l 5,109,-1
 1246 2048 l 5,110,-1
 1246 2137 l 5,111,-1
 1335 2137 l 5,112,-1
 1335 2315 l 5,113,-1
 1424 2315 l 5,114,-1
 1424 2404 l 5,115,-1
 1513 2404 l 5,116,-1
 1513 2493 l 5,117,-1
 1602 2493 l 5,118,-1
 1602 2671 l 5,119,-1
 1691 2671 l 5,120,-1
 1691 2760 l 5,121,-1
 1780 2760 l 5,122,-1
 1780 2671 l 5,123,-1
 1869 2671 l 5,124,-1
 1869 2582 l 5,125,-1
 2048 2582 l 5,126,-1
 2048 2493 l 5,127,-1
 2137 2493 l 5,128,-1
 2137 2404 l 5,129,-1
 2226 2404 l 5,130,-1
 2226 2315 l 5,131,-1
 2137 2315 l 5,132,-1
 2137 2226 l 5,133,-1
 2048 2226 l 5,134,-1
 2048 2048 l 5,135,-1
 1958 2048 l 5,136,-1
 1958 1958 l 5,137,-1
 1869 1958 l 5,138,-1
 1869 1869 l 5,139,-1
 1780 1869 l 5,140,-1
 1780 1691 l 5,141,-1
 1691 1691 l 5,142,-1
 1691 1602 l 5,143,-1
 1602 1602 l 5,144,-1
 1602 1513 l 5,145,-1
 1513 1513 l 5,146,-1
 1513 1335 l 5,147,-1
 1424 1335 l 5,148,-1
 1424 1246 l 5,149,-1
 1335 1246 l 5,150,-1
 1335 1157 l 5,151,-1
 1246 1157 l 5,152,-1
 1246 979 l 5,153,-1
 1157 979 l 5,154,-1
 1157 890 l 5,155,-1
 1068 890 l 5,156,-1
 1068 801 l 5,157,-1
 979 801 l 5,158,-1
 979 623 l 5,159,-1
 890 623 l 5,160,-1
 890 534 l 5,161,-1
 801 534 l 5,162,-1
 801 445 l 5,163,-1
 712 445 l 5,164,-1
 712 267 l 5,165,-1
 623 267 l 5,166,-1
 623 178 l 5,167,-1
 534 178 l 5,168,-1
 534 89 l 5,169,-1
 445 89 l 5,170,-1
 445 0 l 5,171,-1
 356 0 l 5,74,-1
EndSplineSet
Validated: 1
EndChar

StartChar: ampersand
Encoding: 38 38 7
GlifName: ampersand
Width: 2493
GlyphClass: 1
Flags: W
LayerCount: 2
Fore
SplineSet
712 534 m 1,0,-1
 712 623 l 1,1,-1
 801 623 l 1,2,-1
 801 712 l 1,3,-1
 890 712 l 1,4,-1
 890 801 l 1,5,-1
 801 801 l 1,6,-1
 801 890 l 1,7,-1
 712 890 l 1,8,-1
 712 979 l 1,9,-1
 623 979 l 1,10,-1
 623 890 l 1,11,-1
 534 890 l 1,12,-1
 534 801 l 1,13,-1
 445 801 l 1,14,-1
 445 712 l 1,15,-1
 534 712 l 1,16,-1
 534 623 l 1,17,-1
 623 623 l 1,18,-1
 623 534 l 1,19,-1
 712 534 l 1,0,-1
801 1869 m 1,20,-1
 801 1958 l 1,21,-1
 890 1958 l 1,22,-1
 890 2048 l 1,23,-1
 801 2048 l 1,24,-1
 801 2137 l 1,25,-1
 712 2137 l 1,26,-1
 712 2048 l 1,27,-1
 623 2048 l 1,28,-1
 623 1958 l 1,29,-1
 712 1958 l 1,30,-1
 712 1869 l 1,31,-1
 801 1869 l 1,20,-1
445 0 m 1,32,-1
 445 89 l 1,33,-1
 356 89 l 1,34,-1
 356 178 l 1,35,-1
 267 178 l 1,36,-1
 267 267 l 1,37,-1
 178 267 l 1,38,-1
 178 356 l 1,39,-1
 89 356 l 1,40,-1
 89 445 l 1,41,-1
 0 445 l 1,42,-1
 0 1068 l 1,43,-1
 89 1068 l 1,44,-1
 89 1157 l 1,45,-1
 178 1157 l 1,46,-1
 178 1246 l 1,47,-1
 267 1246 l 1,48,-1
 267 1335 l 1,49,-1
 356 1335 l 1,50,-1
 356 1424 l 1,51,-1
 267 1424 l 1,52,-1
 267 1513 l 1,53,-1
 178 1513 l 1,54,-1
 178 1602 l 1,55,-1
 89 1602 l 1,56,-1
 89 1691 l 1,57,-1
 0 1691 l 1,58,-1
 0 2315 l 1,59,-1
 89 2315 l 1,60,-1
 89 2404 l 1,61,-1
 178 2404 l 1,62,-1
 178 2493 l 1,63,-1
 267 2493 l 1,64,-1
 267 2582 l 1,65,-1
 356 2582 l 1,66,-1
 356 2671 l 1,67,-1
 445 2671 l 1,68,-1
 445 2760 l 1,69,-1
 1157 2760 l 1,70,-1
 1157 2671 l 1,71,-1
 1246 2671 l 1,72,-1
 1246 2582 l 1,73,-1
 1335 2582 l 1,74,-1
 1335 2493 l 1,75,-1
 1424 2493 l 1,76,-1
 1424 2404 l 1,77,-1
 1513 2404 l 1,78,-1
 1513 1780 l 1,79,-1
 1424 1780 l 1,80,-1
 1424 1691 l 1,81,-1
 1335 1691 l 1,82,-1
 1335 1602 l 1,83,-1
 1246 1602 l 1,84,-1
 1246 1513 l 1,85,-1
 1157 1513 l 1,86,-1
 1157 1424 l 1,87,-1
 1068 1424 l 1,88,-1
 1068 1335 l 1,89,-1
 1157 1335 l 1,90,-1
 1157 1246 l 1,91,-1
 1246 1246 l 1,92,-1
 1246 1157 l 1,93,-1
 1335 1157 l 1,94,-1
 1335 1246 l 1,95,-1
 1424 1246 l 1,96,-1
 1424 1335 l 1,97,-1
 1513 1335 l 1,98,-1
 1513 1424 l 1,99,-1
 1602 1424 l 1,100,-1
 1602 1513 l 1,101,-1
 1691 1513 l 1,102,-1
 1691 1602 l 1,103,-1
 2048 1602 l 1,104,-1
 2048 1513 l 1,105,-1
 2315 1513 l 1,106,-1
 2315 1424 l 1,107,-1
 2404 1424 l 1,108,-1
 2404 1157 l 1,109,-1
 2048 1157 l 1,110,-1
 2048 1068 l 1,111,-1
 1958 1068 l 1,112,-1
 1958 979 l 1,113,-1
 1869 979 l 1,114,-1
 1869 890 l 1,115,-1
 1780 890 l 1,116,-1
 1780 801 l 1,117,-1
 1691 801 l 1,118,-1
 1691 712 l 1,119,-1
 1780 712 l 1,120,-1
 1780 623 l 1,121,-1
 2048 623 l 1,122,-1
 2048 712 l 1,123,-1
 2226 712 l 1,124,-1
 2226 356 l 1,125,-1
 2137 356 l 1,126,-1
 2137 267 l 1,127,-1
 2048 267 l 1,128,-1
 2048 178 l 1,129,-1
 1958 178 l 1,130,-1
 1958 89 l 1,131,-1
 1869 89 l 1,132,-1
 1869 0 l 1,133,-1
 1602 0 l 1,134,-1
 1602 89 l 1,135,-1
 1513 89 l 1,136,-1
 1513 178 l 1,137,-1
 1424 178 l 1,138,-1
 1424 267 l 1,139,-1
 1335 267 l 1,140,-1
 1335 356 l 1,141,-1
 1246 356 l 1,142,-1
 1246 267 l 1,143,-1
 1157 267 l 1,144,-1
 1157 178 l 1,145,-1
 1068 178 l 1,146,-1
 1068 89 l 1,147,-1
 979 89 l 1,148,-1
 979 0 l 1,149,-1
 445 0 l 1,32,-1
EndSplineSet
Validated: 1
EndChar

StartChar: quotesingle
Encoding: 39 39 8
GlifName: quotesingle
Width: 623
GlyphClass: 1
Flags: W
LayerCount: 2
Fore
SplineSet
89 1869 m 1,0,-1
 89 2226 l 1,1,-1
 0 2226 l 1,2,-1
 0 2671 l 1,3,-1
 534 2671 l 1,4,-1
 534 2493 l 1,5,-1
 445 2493 l 1,6,-1
 445 2137 l 1,7,-1
 356 2137 l 1,8,-1
 356 1869 l 1,9,-1
 89 1869 l 1,0,-1
EndSplineSet
Validated: 1
EndChar

StartChar: parenleft
Encoding: 40 40 9
GlifName: parenleft
Width: 1335
GlyphClass: 1
Flags: W
LayerCount: 2
Fore
SplineSet
534 -445 m 1,0,-1
 534 -356 l 1,1,-1
 356 -356 l 1,2,-1
 356 -267 l 1,3,-1
 267 -267 l 1,4,-1
 267 -178 l 1,5,-1
 178 -178 l 1,6,-1
 178 0 l 1,7,-1
 89 0 l 1,8,-1
 89 267 l 1,9,-1
 0 267 l 1,10,-1
 0 801 l 1,11,-1
 -89 801 l 1,12,-1
 -89 1602 l 1,13,-1
 0 1602 l 1,14,-1
 0 2493 l 1,15,-1
 89 2493 l 1,16,-1
 89 3027 l 1,17,-1
 178 3027 l 1,18,-1
 178 3116 l 1,19,-1
 267 3116 l 1,20,-1
 267 3205 l 1,21,-1
 534 3205 l 1,22,-1
 534 3294 l 1,23,-1
 712 3294 l 1,24,-1
 712 3383 l 1,25,-1
 979 3383 l 1,26,-1
 979 3472 l 1,27,-1
 1157 3472 l 1,28,-1
 1157 3383 l 1,29,-1
 1246 3383 l 1,30,-1
 1246 3205 l 1,31,-1
 1157 3205 l 1,32,-1
 1157 3116 l 1,33,-1
 1068 3116 l 1,34,-1
 1068 3027 l 1,35,-1
 979 3027 l 1,36,-1
 979 2849 l 1,37,-1
 890 2849 l 1,38,-1
 890 2760 l 1,39,-1
 801 2760 l 1,40,-1
 801 2671 l 1,41,-1
 712 2671 l 1,42,-1
 712 1513 l 1,43,-1
 623 1513 l 1,44,-1
 623 623 l 1,45,-1
 712 623 l 1,46,-1
 712 445 l 1,47,-1
 801 445 l 1,48,-1
 801 267 l 1,49,-1
 890 267 l 1,50,-1
 890 89 l 1,51,-1
 979 89 l 1,52,-1
 979 -89 l 1,53,-1
 1068 -89 l 1,54,-1
 1068 -267 l 1,55,-1
 979 -267 l 1,56,-1
 979 -356 l 1,57,-1
 801 -356 l 1,58,-1
 801 -445 l 1,59,-1
 534 -445 l 1,0,-1
EndSplineSet
Validated: 1
EndChar

StartChar: parenright
Encoding: 41 41 10
GlifName: parenright
Width: 1335
GlyphClass: 1
Flags: W
LayerCount: 2
Fore
SplineSet
0 -445 m 5,0,-1
 0 -356 l 5,1,-1
 -89 -356 l 5,2,-1
 -89 -178 l 5,3,-1
 0 -178 l 5,4,-1
 0 -89 l 5,5,-1
 89 -89 l 5,6,-1
 89 0 l 5,7,-1
 178 0 l 5,8,-1
 178 178 l 5,9,-1
 267 178 l 5,10,-1
 267 267 l 5,11,-1
 356 267 l 5,12,-1
 356 356 l 5,13,-1
 445 356 l 5,14,-1
 445 1513 l 5,15,-1
 534 1513 l 5,16,-1
 534 2404 l 5,17,-1
 445 2404 l 5,18,-1
 445 2582 l 5,19,-1
 356 2582 l 5,20,-1
 356 2760 l 5,21,-1
 267 2760 l 5,22,-1
 267 2938 l 5,23,-1
 178 2938 l 5,24,-1
 178 3116 l 5,25,-1
 89 3116 l 5,26,-1
 89 3294 l 5,27,-1
 178 3294 l 5,28,-1
 178 3383 l 5,29,-1
 356 3383 l 5,30,-1
 356 3472 l 5,31,-1
 623 3472 l 5,32,-1
 623 3383 l 5,33,-1
 801 3383 l 5,34,-1
 801 3294 l 5,35,-1
 890 3294 l 5,36,-1
 890 3205 l 5,37,-1
 979 3205 l 5,38,-1
 979 3027 l 5,39,-1
 1068 3027 l 5,40,-1
 1068 2760 l 5,41,-1
 1157 2760 l 5,42,-1
 1157 2226 l 5,43,-1
 1246 2226 l 5,44,-1
 1246 1424 l 5,45,-1
 1157 1424 l 5,46,-1
 1157 534 l 5,47,-1
 1068 534 l 5,48,-1
 1068 0 l 5,49,-1
 979 0 l 5,50,-1
 979 -89 l 5,51,-1
 890 -89 l 5,52,-1
 890 -178 l 5,53,-1
 623 -178 l 5,54,-1
 623 -267 l 5,55,-1
 445 -267 l 5,56,-1
 445 -356 l 5,57,-1
 178 -356 l 5,58,-1
 178 -445 l 5,59,-1
 0 -445 l 5,0,-1
EndSplineSet
Validated: 1
EndChar

StartChar: asterisk
Encoding: 42 42 11
GlifName: asterisk
Width: 890
GlyphClass: 1
Flags: W
LayerCount: 2
Fore
SplineSet
89 1869 m 1,0,-1
 89 2048 l 1,1,-1
 178 2048 l 1,2,-1
 178 2226 l 1,3,-1
 89 2226 l 1,4,-1
 89 2315 l 1,5,-1
 0 2315 l 1,6,-1
 0 2493 l 1,7,-1
 178 2493 l 1,8,-1
 178 2582 l 1,9,-1
 267 2582 l 1,10,-1
 267 2671 l 1,11,-1
 356 2671 l 1,12,-1
 356 2760 l 1,13,-1
 445 2760 l 1,14,-1
 445 2671 l 1,15,-1
 534 2671 l 1,16,-1
 534 2582 l 1,17,-1
 623 2582 l 1,18,-1
 623 2493 l 1,19,-1
 801 2493 l 1,20,-1
 801 2315 l 1,21,-1
 712 2315 l 1,22,-1
 712 2226 l 1,23,-1
 623 2226 l 1,24,-1
 623 2048 l 1,25,-1
 712 2048 l 1,26,-1
 712 1869 l 1,27,-1
 445 1869 l 1,28,-1
 445 1958 l 1,29,-1
 356 1958 l 1,30,-1
 356 1869 l 1,31,-1
 89 1869 l 1,0,-1
EndSplineSet
Validated: 1
EndChar

StartChar: plus
Encoding: 43 43 12
GlifName: plus
Width: 1780
GlyphClass: 1
Flags: W
LayerCount: 2
Fore
SplineSet
534 712 m 1,0,-1
 534 1157 l 1,1,-1
 0 1157 l 1,2,-1
 0 1780 l 1,3,-1
 534 1780 l 1,4,-1
 534 2404 l 1,5,-1
 1068 2404 l 1,6,-1
 1068 1780 l 1,7,-1
 1335 1780 l 1,8,-1
 1335 1869 l 1,9,-1
 1691 1869 l 1,10,-1
 1691 1335 l 1,11,-1
 1424 1335 l 1,12,-1
 1424 1246 l 1,13,-1
 1157 1246 l 1,14,-1
 1157 1068 l 1,15,-1
 1246 1068 l 1,16,-1
 1246 801 l 1,17,-1
 890 801 l 1,18,-1
 890 712 l 1,19,-1
 534 712 l 1,0,-1
EndSplineSet
Validated: 1
EndChar

StartChar: comma
Encoding: 44 44 13
GlifName: comma
Width: 1068
GlyphClass: 1
Flags: W
LayerCount: 2
Fore
SplineSet
178 -534 m 5,0,-1
 178 -356 l 5,1,-1
 267 -356 l 5,2,-1
 267 0 l 5,3,-1
 0 0 l 5,4,-1
 0 712 l 5,5,-1
 445 712 l 5,6,-1
 445 801 l 5,7,-1
 979 801 l 5,8,-1
 979 445 l 5,9,-1
 890 445 l 5,10,-1
 890 0 l 5,11,-1
 801 0 l 5,12,-1
 801 -89 l 5,13,-1
 712 -89 l 5,14,-1
 712 -178 l 5,15,-1
 623 -178 l 5,16,-1
 623 -267 l 5,17,-1
 445 -267 l 5,18,-1
 445 -356 l 5,19,-1
 356 -356 l 5,20,-1
 356 -445 l 5,21,-1
 267 -445 l 5,22,-1
 267 -534 l 5,23,-1
 178 -534 l 5,0,-1
EndSplineSet
Validated: 1
EndChar

StartChar: hyphen
Encoding: 45 45 14
AltUni2: 0000ad.ffffffff.0 0000ad.ffffffff.0
GlifName: hyphen
Width: 1513
GlyphClass: 1
Flags: W
LayerCount: 2
Fore
SplineSet
0 1068 m 5,0,-1
 0 1780 l 5,1,-1
 1424 1780 l 5,2,-1
 1424 1157 l 5,3,-1
 712 1157 l 5,4,-1
 712 1068 l 5,5,-1
 0 1068 l 5,0,-1
EndSplineSet
Validated: 1
EndChar

StartChar: period
Encoding: 46 46 15
GlifName: period
Width: 801
GlyphClass: 1
Flags: W
LayerCount: 2
Fore
SplineSet
0 0 m 1,0,-1
 0 712 l 1,1,-1
 712 712 l 1,2,-1
 712 0 l 1,3,-1
 0 0 l 1,0,-1
EndSplineSet
Validated: 1
EndChar

StartChar: slash
Encoding: 47 47 16
GlifName: slash
Width: 1424
GlyphClass: 1
Flags: W
LayerCount: 2
Fore
SplineSet
445 0 m 5,0,-1
 445 89 l 5,1,-1
 0 89 l 5,2,-1
 0 356 l 5,3,-1
 89 356 l 5,4,-1
 89 712 l 5,5,-1
 178 712 l 5,6,-1
 178 1157 l 5,7,-1
 267 1157 l 5,8,-1
 267 1602 l 5,9,-1
 356 1602 l 5,10,-1
 356 1958 l 5,11,-1
 445 1958 l 5,12,-1
 445 2404 l 5,13,-1
 534 2404 l 5,14,-1
 534 2760 l 5,15,-1
 623 2760 l 5,16,-1
 623 2849 l 5,17,-1
 979 2849 l 5,18,-1
 979 2760 l 5,19,-1
 1335 2760 l 5,20,-1
 1335 2493 l 5,21,-1
 1246 2493 l 5,22,-1
 1246 2048 l 5,23,-1
 1157 2048 l 5,24,-1
 1157 1602 l 5,25,-1
 1068 1602 l 5,26,-1
 1068 1157 l 5,27,-1
 979 1157 l 5,28,-1
 979 712 l 5,29,-1
 890 712 l 5,30,-1
 890 267 l 5,31,-1
 801 267 l 5,32,-1
 801 0 l 5,33,-1
 445 0 l 5,0,-1
EndSplineSet
Validated: 1
EndChar

StartChar: zero
Encoding: 48 48 17
GlifName: zero
Width: 1780
GlyphClass: 1
Flags: W
LayerCount: 2
Fore
SplineSet
1068 712 m 1,0,-1
 1068 890 l 1,1,-1
 1157 890 l 1,2,-1
 1157 1246 l 1,3,-1
 1068 1246 l 1,4,-1
 1068 1424 l 1,5,-1
 712 1424 l 1,6,-1
 712 1335 l 1,7,-1
 623 1335 l 1,8,-1
 623 801 l 1,9,-1
 712 801 l 1,10,-1
 712 712 l 1,11,-1
 1068 712 l 1,0,-1
356 0 m 1,12,-1
 356 89 l 1,13,-1
 267 89 l 1,14,-1
 267 178 l 1,15,-1
 178 178 l 1,16,-1
 178 267 l 1,17,-1
 89 267 l 1,18,-1
 89 356 l 1,19,-1
 0 356 l 1,20,-1
 0 1869 l 1,21,-1
 89 1869 l 1,22,-1
 89 1958 l 1,23,-1
 178 1958 l 1,24,-1
 178 2048 l 1,25,-1
 267 2048 l 1,26,-1
 267 2137 l 1,27,-1
 356 2137 l 1,28,-1
 356 2226 l 1,29,-1
 445 2226 l 1,30,-1
 445 2315 l 1,31,-1
 534 2315 l 1,32,-1
 534 2404 l 1,33,-1
 623 2404 l 1,34,-1
 623 2493 l 1,35,-1
 1246 2493 l 1,36,-1
 1246 2404 l 1,37,-1
 1335 2404 l 1,38,-1
 1335 2315 l 1,39,-1
 1424 2315 l 1,40,-1
 1424 2226 l 1,41,-1
 1513 2226 l 1,42,-1
 1513 2137 l 1,43,-1
 1602 2137 l 1,44,-1
 1602 1513 l 1,45,-1
 1691 1513 l 1,46,-1
 1691 445 l 1,47,-1
 1602 445 l 1,48,-1
 1602 356 l 1,49,-1
 1513 356 l 1,50,-1
 1513 267 l 1,51,-1
 1424 267 l 1,52,-1
 1424 178 l 1,53,-1
 1246 178 l 1,54,-1
 1246 89 l 1,55,-1
 1157 89 l 1,56,-1
 1157 0 l 1,57,-1
 356 0 l 1,12,-1
EndSplineSet
Validated: 1
EndChar

StartChar: one
Encoding: 49 49 18
GlifName: one
Width: 1691
GlyphClass: 1
Flags: W
LayerCount: 2
Fore
SplineSet
534 0 m 1,0,-1
 534 356 l 1,1,-1
 623 356 l 1,2,-1
 623 890 l 1,3,-1
 712 890 l 1,4,-1
 712 1424 l 1,5,-1
 801 1424 l 1,6,-1
 801 1602 l 1,7,-1
 623 1602 l 1,8,-1
 623 1513 l 1,9,-1
 445 1513 l 1,10,-1
 445 1424 l 1,11,-1
 356 1424 l 1,12,-1
 356 1513 l 1,13,-1
 267 1513 l 1,14,-1
 267 1602 l 1,15,-1
 178 1602 l 1,16,-1
 178 1780 l 1,17,-1
 89 1780 l 1,18,-1
 89 1869 l 1,19,-1
 0 1869 l 1,20,-1
 0 1958 l 1,21,-1
 89 1958 l 1,22,-1
 89 2048 l 1,23,-1
 178 2048 l 1,24,-1
 178 2137 l 1,25,-1
 267 2137 l 1,26,-1
 267 2226 l 1,27,-1
 356 2226 l 1,28,-1
 356 2315 l 1,29,-1
 445 2315 l 1,30,-1
 445 2404 l 1,31,-1
 623 2404 l 1,32,-1
 623 2493 l 1,33,-1
 712 2493 l 1,34,-1
 712 2582 l 1,35,-1
 979 2582 l 1,36,-1
 979 2493 l 1,37,-1
 1335 2493 l 1,38,-1
 1335 2404 l 1,39,-1
 1602 2404 l 1,40,-1
 1602 1780 l 1,41,-1
 1513 1780 l 1,42,-1
 1513 1068 l 1,43,-1
 1424 1068 l 1,44,-1
 1424 356 l 1,45,-1
 1335 356 l 1,46,-1
 1335 0 l 1,47,-1
 534 0 l 1,0,-1
EndSplineSet
Validated: 1
EndChar

StartChar: two
Encoding: 50 50 19
GlifName: two
Width: 2315
GlyphClass: 1
Flags: W
LayerCount: 2
Fore
SplineSet
356 0 m 1,0,-1
 356 445 l 1,1,-1
 445 445 l 1,2,-1
 445 801 l 1,3,-1
 534 801 l 1,4,-1
 534 890 l 1,5,-1
 623 890 l 1,6,-1
 623 979 l 1,7,-1
 712 979 l 1,8,-1
 712 1068 l 1,9,-1
 801 1068 l 1,10,-1
 801 1157 l 1,11,-1
 979 1157 l 1,12,-1
 979 1246 l 1,13,-1
 1068 1246 l 1,14,-1
 1068 1335 l 1,15,-1
 1157 1335 l 1,16,-1
 1157 1424 l 1,17,-1
 1246 1424 l 1,18,-1
 1246 1513 l 1,19,-1
 1068 1513 l 1,20,-1
 1068 1602 l 1,21,-1
 979 1602 l 1,22,-1
 979 1513 l 1,23,-1
 890 1513 l 1,24,-1
 890 1424 l 1,25,-1
 801 1424 l 1,26,-1
 801 1335 l 1,27,-1
 712 1335 l 1,28,-1
 712 1246 l 1,29,-1
 623 1246 l 1,30,-1
 623 1157 l 1,31,-1
 534 1157 l 1,32,-1
 534 1246 l 1,33,-1
 445 1246 l 1,34,-1
 445 1335 l 1,35,-1
 267 1335 l 1,36,-1
 267 1424 l 1,37,-1
 178 1424 l 1,38,-1
 178 1513 l 1,39,-1
 89 1513 l 1,40,-1
 89 1602 l 1,41,-1
 0 1602 l 1,42,-1
 0 1691 l 1,43,-1
 89 1691 l 1,44,-1
 89 1780 l 1,45,-1
 178 1780 l 1,46,-1
 178 1958 l 1,47,-1
 267 1958 l 1,48,-1
 267 2048 l 1,49,-1
 356 2048 l 1,50,-1
 356 2137 l 1,51,-1
 445 2137 l 1,52,-1
 445 2226 l 1,53,-1
 534 2226 l 1,54,-1
 534 2315 l 1,55,-1
 623 2315 l 1,56,-1
 623 2404 l 1,57,-1
 1602 2404 l 1,58,-1
 1602 2315 l 1,59,-1
 1691 2315 l 1,60,-1
 1691 2226 l 1,61,-1
 1780 2226 l 1,62,-1
 1780 2137 l 1,63,-1
 1869 2137 l 1,64,-1
 1869 2048 l 1,65,-1
 1958 2048 l 1,66,-1
 1958 1869 l 1,67,-1
 2048 1869 l 1,68,-1
 2048 1780 l 1,69,-1
 2137 1780 l 1,70,-1
 2137 1691 l 1,71,-1
 2226 1691 l 1,72,-1
 2226 1602 l 1,73,-1
 2137 1602 l 1,74,-1
 2137 1513 l 1,75,-1
 2048 1513 l 1,76,-1
 2048 1335 l 1,77,-1
 1958 1335 l 1,78,-1
 1958 1246 l 1,79,-1
 1869 1246 l 1,80,-1
 1869 1157 l 1,81,-1
 1780 1157 l 1,82,-1
 1780 1068 l 1,83,-1
 1691 1068 l 1,84,-1
 1691 979 l 1,85,-1
 1602 979 l 1,86,-1
 1602 801 l 1,87,-1
 1513 801 l 1,88,-1
 1513 712 l 1,89,-1
 1424 712 l 1,90,-1
 1424 623 l 1,91,-1
 2226 623 l 1,92,-1
 2226 0 l 1,93,-1
 356 0 l 1,0,-1
EndSplineSet
Validated: 1
EndChar

StartChar: three
Encoding: 51 51 20
GlifName: three
Width: 2048
GlyphClass: 1
Flags: W
LayerCount: 2
Fore
SplineSet
356 0 m 1,0,-1
 356 89 l 1,1,-1
 267 89 l 1,2,-1
 267 178 l 1,3,-1
 178 178 l 1,4,-1
 178 356 l 1,5,-1
 89 356 l 1,6,-1
 89 445 l 1,7,-1
 0 445 l 1,8,-1
 0 534 l 1,9,-1
 89 534 l 1,10,-1
 89 623 l 1,11,-1
 178 623 l 1,12,-1
 178 712 l 1,13,-1
 267 712 l 1,14,-1
 267 801 l 1,15,-1
 356 801 l 1,16,-1
 356 890 l 1,17,-1
 445 890 l 1,18,-1
 445 979 l 1,19,-1
 534 979 l 1,20,-1
 534 890 l 1,21,-1
 623 890 l 1,22,-1
 623 801 l 1,23,-1
 801 801 l 1,24,-1
 801 712 l 1,25,-1
 890 712 l 1,26,-1
 890 801 l 1,27,-1
 979 801 l 1,28,-1
 979 890 l 1,29,-1
 890 890 l 1,30,-1
 890 979 l 1,31,-1
 801 979 l 1,32,-1
 801 1157 l 1,33,-1
 712 1157 l 1,34,-1
 712 1246 l 1,35,-1
 801 1246 l 1,36,-1
 801 1335 l 1,37,-1
 890 1335 l 1,38,-1
 890 1424 l 1,39,-1
 979 1424 l 1,40,-1
 979 1602 l 1,41,-1
 890 1602 l 1,42,-1
 890 1691 l 1,43,-1
 712 1691 l 1,44,-1
 712 1602 l 1,45,-1
 534 1602 l 1,46,-1
 534 1513 l 1,47,-1
 356 1513 l 1,48,-1
 356 1602 l 1,49,-1
 267 1602 l 1,50,-1
 267 1691 l 1,51,-1
 178 1691 l 1,52,-1
 178 1780 l 1,53,-1
 89 1780 l 1,54,-1
 89 1869 l 1,55,-1
 0 1869 l 1,56,-1
 0 1958 l 1,57,-1
 89 1958 l 1,58,-1
 89 2048 l 1,59,-1
 178 2048 l 1,60,-1
 178 2137 l 1,61,-1
 267 2137 l 1,62,-1
 267 2226 l 1,63,-1
 356 2226 l 1,64,-1
 356 2315 l 1,65,-1
 445 2315 l 1,66,-1
 445 2404 l 1,67,-1
 1335 2404 l 1,68,-1
 1335 2315 l 1,69,-1
 1424 2315 l 1,70,-1
 1424 2137 l 1,71,-1
 1513 2137 l 1,72,-1
 1513 2048 l 1,73,-1
 1602 2048 l 1,74,-1
 1602 1958 l 1,75,-1
 1691 1958 l 1,76,-1
 1691 1780 l 1,77,-1
 1780 1780 l 1,78,-1
 1780 1691 l 1,79,-1
 1869 1691 l 1,80,-1
 1869 1602 l 1,81,-1
 1780 1602 l 1,82,-1
 1780 1513 l 1,83,-1
 1691 1513 l 1,84,-1
 1691 1424 l 1,85,-1
 1602 1424 l 1,86,-1
 1602 1335 l 1,87,-1
 1513 1335 l 1,88,-1
 1513 1246 l 1,89,-1
 1424 1246 l 1,90,-1
 1424 1157 l 1,91,-1
 1513 1157 l 1,92,-1
 1513 1068 l 1,93,-1
 1691 1068 l 1,94,-1
 1691 979 l 1,95,-1
 1780 979 l 1,96,-1
 1780 890 l 1,97,-1
 1869 890 l 1,98,-1
 1869 801 l 1,99,-1
 1958 801 l 1,100,-1
 1958 712 l 1,101,-1
 1869 712 l 1,102,-1
 1869 623 l 1,103,-1
 1780 623 l 1,104,-1
 1780 534 l 1,105,-1
 1691 534 l 1,106,-1
 1691 445 l 1,107,-1
 1602 445 l 1,108,-1
 1602 267 l 1,109,-1
 1513 267 l 1,110,-1
 1513 178 l 1,111,-1
 1424 178 l 1,112,-1
 1424 89 l 1,113,-1
 1335 89 l 1,114,-1
 1335 0 l 1,115,-1
 356 0 l 1,0,-1
EndSplineSet
Validated: 1
EndChar

StartChar: four
Encoding: 52 52 21
GlifName: four
Width: 2315
GlyphClass: 1
Flags: W
LayerCount: 2
Fore
SplineSet
1068 0 m 1,0,-1
 1068 623 l 1,1,-1
 1157 623 l 1,2,-1
 1157 712 l 1,3,-1
 89 712 l 1,4,-1
 89 1068 l 1,5,-1
 0 1068 l 1,6,-1
 0 1424 l 1,7,-1
 89 1424 l 1,8,-1
 89 1602 l 1,9,-1
 178 1602 l 1,10,-1
 178 1780 l 1,11,-1
 267 1780 l 1,12,-1
 267 1958 l 1,13,-1
 356 1958 l 1,14,-1
 356 2137 l 1,15,-1
 445 2137 l 1,16,-1
 445 2315 l 1,17,-1
 534 2315 l 1,18,-1
 534 2493 l 1,19,-1
 712 2493 l 1,20,-1
 712 2404 l 1,21,-1
 979 2404 l 1,22,-1
 979 2315 l 1,23,-1
 1068 2315 l 1,24,-1
 1068 2226 l 1,25,-1
 1157 2226 l 1,26,-1
 1157 2137 l 1,27,-1
 1068 2137 l 1,28,-1
 1068 1958 l 1,29,-1
 979 1958 l 1,30,-1
 979 1780 l 1,31,-1
 890 1780 l 1,32,-1
 890 1602 l 1,33,-1
 801 1602 l 1,34,-1
 801 1424 l 1,35,-1
 1157 1424 l 1,36,-1
 1157 1780 l 1,37,-1
 1246 1780 l 1,38,-1
 1246 2404 l 1,39,-1
 1602 2404 l 1,40,-1
 1602 2315 l 1,41,-1
 1958 2315 l 1,42,-1
 1958 1691 l 1,43,-1
 1869 1691 l 1,44,-1
 1869 1424 l 1,45,-1
 2226 1424 l 1,46,-1
 2226 712 l 1,47,-1
 1869 712 l 1,48,-1
 1869 0 l 1,49,-1
 1068 0 l 1,0,-1
EndSplineSet
Validated: 1
EndChar

StartChar: five
Encoding: 53 53 22
GlifName: five
Width: 1869
GlyphClass: 1
Flags: W
LayerCount: 2
Fore
SplineSet
267 0 m 1,0,-1
 267 89 l 1,1,-1
 178 89 l 1,2,-1
 178 178 l 1,3,-1
 89 178 l 1,4,-1
 89 356 l 1,5,-1
 0 356 l 1,6,-1
 0 445 l 1,7,-1
 89 445 l 1,8,-1
 89 534 l 1,9,-1
 178 534 l 1,10,-1
 178 623 l 1,11,-1
 267 623 l 1,12,-1
 267 712 l 1,13,-1
 356 712 l 1,14,-1
 356 801 l 1,15,-1
 534 801 l 1,16,-1
 534 712 l 1,17,-1
 623 712 l 1,18,-1
 623 623 l 1,19,-1
 1068 623 l 1,20,-1
 1068 712 l 1,21,-1
 1157 712 l 1,22,-1
 1157 979 l 1,23,-1
 267 979 l 1,24,-1
 267 1068 l 1,25,-1
 178 1068 l 1,26,-1
 178 1157 l 1,27,-1
 0 1157 l 1,28,-1
 0 2404 l 1,29,-1
 1780 2404 l 1,30,-1
 1780 1780 l 1,31,-1
 801 1780 l 1,32,-1
 801 1602 l 1,33,-1
 1513 1602 l 1,34,-1
 1513 1513 l 1,35,-1
 1602 1513 l 1,36,-1
 1602 1424 l 1,37,-1
 1691 1424 l 1,38,-1
 1691 1335 l 1,39,-1
 1780 1335 l 1,40,-1
 1780 445 l 1,41,-1
 1691 445 l 1,42,-1
 1691 356 l 1,43,-1
 1602 356 l 1,44,-1
 1602 267 l 1,45,-1
 1513 267 l 1,46,-1
 1513 178 l 1,47,-1
 1424 178 l 1,48,-1
 1424 89 l 1,49,-1
 1335 89 l 1,50,-1
 1335 0 l 1,51,-1
 267 0 l 1,0,-1
EndSplineSet
Validated: 1
EndChar

StartChar: six
Encoding: 54 54 23
GlifName: six
Width: 1958
GlyphClass: 1
Flags: W
LayerCount: 2
Fore
SplineSet
1068 623 m 1,0,-1
 1068 712 l 1,1,-1
 1157 712 l 1,2,-1
 1157 801 l 1,3,-1
 1246 801 l 1,4,-1
 1246 979 l 1,5,-1
 1157 979 l 1,6,-1
 1157 1068 l 1,7,-1
 890 1068 l 1,8,-1
 890 979 l 1,9,-1
 801 979 l 1,10,-1
 801 890 l 1,11,-1
 712 890 l 1,12,-1
 712 623 l 1,13,-1
 1068 623 l 1,0,-1
445 0 m 1,14,-1
 445 89 l 1,15,-1
 356 89 l 1,16,-1
 356 178 l 1,17,-1
 267 178 l 1,18,-1
 267 267 l 1,19,-1
 178 267 l 1,20,-1
 178 356 l 1,21,-1
 89 356 l 1,22,-1
 89 445 l 1,23,-1
 0 445 l 1,24,-1
 0 1780 l 1,25,-1
 89 1780 l 1,26,-1
 89 1958 l 1,27,-1
 178 1958 l 1,28,-1
 178 2137 l 1,29,-1
 267 2137 l 1,30,-1
 267 2226 l 1,31,-1
 445 2226 l 1,32,-1
 445 2315 l 1,33,-1
 623 2315 l 1,34,-1
 623 2404 l 1,35,-1
 801 2404 l 1,36,-1
 801 2493 l 1,37,-1
 979 2493 l 1,38,-1
 979 2582 l 1,39,-1
 1068 2582 l 1,40,-1
 1068 2493 l 1,41,-1
 1157 2493 l 1,42,-1
 1157 2404 l 1,43,-1
 1246 2404 l 1,44,-1
 1246 2315 l 1,45,-1
 1335 2315 l 1,46,-1
 1335 2226 l 1,47,-1
 1424 2226 l 1,48,-1
 1424 2137 l 1,49,-1
 1513 2137 l 1,50,-1
 1513 2048 l 1,51,-1
 1424 2048 l 1,52,-1
 1424 1958 l 1,53,-1
 1335 1958 l 1,54,-1
 1335 1869 l 1,55,-1
 1246 1869 l 1,56,-1
 1246 1780 l 1,57,-1
 1157 1780 l 1,58,-1
 1157 1691 l 1,59,-1
 979 1691 l 1,60,-1
 979 1602 l 1,61,-1
 890 1602 l 1,62,-1
 890 1513 l 1,63,-1
 1157 1513 l 1,64,-1
 1157 1602 l 1,65,-1
 1602 1602 l 1,66,-1
 1602 1513 l 1,67,-1
 1691 1513 l 1,68,-1
 1691 1424 l 1,69,-1
 1780 1424 l 1,70,-1
 1780 1246 l 1,71,-1
 1869 1246 l 1,72,-1
 1869 534 l 1,73,-1
 1780 534 l 1,74,-1
 1780 445 l 1,75,-1
 1691 445 l 1,76,-1
 1691 356 l 1,77,-1
 1602 356 l 1,78,-1
 1602 267 l 1,79,-1
 1513 267 l 1,80,-1
 1513 178 l 1,81,-1
 1424 178 l 1,82,-1
 1424 89 l 1,83,-1
 1335 89 l 1,84,-1
 1335 0 l 1,85,-1
 445 0 l 1,14,-1
EndSplineSet
Validated: 1
EndChar

StartChar: seven
Encoding: 55 55 24
GlifName: seven
Width: 1691
GlyphClass: 1
Flags: W
LayerCount: 2
Fore
SplineSet
178 0 m 1,0,-1
 178 89 l 1,1,-1
 267 89 l 1,2,-1
 267 178 l 1,3,-1
 356 178 l 1,4,-1
 356 267 l 1,5,-1
 445 267 l 1,6,-1
 445 356 l 1,7,-1
 534 356 l 1,8,-1
 534 623 l 1,9,-1
 623 623 l 1,10,-1
 623 1068 l 1,11,-1
 712 1068 l 1,12,-1
 712 1424 l 1,13,-1
 801 1424 l 1,14,-1
 801 1780 l 1,15,-1
 0 1780 l 1,16,-1
 0 2493 l 1,17,-1
 1602 2493 l 1,18,-1
 1602 1602 l 1,19,-1
 1513 1602 l 1,20,-1
 1513 1246 l 1,21,-1
 1424 1246 l 1,22,-1
 1424 890 l 1,23,-1
 1335 890 l 1,24,-1
 1335 534 l 1,25,-1
 1246 534 l 1,26,-1
 1246 178 l 1,27,-1
 1157 178 l 1,28,-1
 1157 0 l 1,29,-1
 178 0 l 1,0,-1
EndSplineSet
Validated: 1
EndChar

StartChar: eight
Encoding: 56 56 25
GlifName: eight
Width: 1869
GlyphClass: 1
Flags: W
LayerCount: 2
Fore
SplineSet
1068 534 m 1,0,-1
 1068 623 l 1,1,-1
 1157 623 l 1,2,-1
 1157 979 l 1,3,-1
 1068 979 l 1,4,-1
 1068 1068 l 1,5,-1
 979 1068 l 1,6,-1
 979 1157 l 1,7,-1
 801 1157 l 1,8,-1
 801 1068 l 1,9,-1
 712 1068 l 1,10,-1
 712 979 l 1,11,-1
 623 979 l 1,12,-1
 623 623 l 1,13,-1
 712 623 l 1,14,-1
 712 534 l 1,15,-1
 1068 534 l 1,0,-1
979 1780 m 1,16,-1
 979 1869 l 1,17,-1
 1068 1869 l 1,18,-1
 1068 2137 l 1,19,-1
 712 2137 l 1,20,-1
 712 1869 l 1,21,-1
 801 1869 l 1,22,-1
 801 1780 l 1,23,-1
 979 1780 l 1,16,-1
534 0 m 1,24,-1
 534 89 l 1,25,-1
 445 89 l 1,26,-1
 445 178 l 1,27,-1
 356 178 l 1,28,-1
 356 267 l 1,29,-1
 267 267 l 1,30,-1
 267 356 l 1,31,-1
 178 356 l 1,32,-1
 178 445 l 1,33,-1
 89 445 l 1,34,-1
 89 534 l 1,35,-1
 0 534 l 1,36,-1
 0 1157 l 1,37,-1
 89 1157 l 1,38,-1
 89 1246 l 1,39,-1
 178 1246 l 1,40,-1
 178 1335 l 1,41,-1
 267 1335 l 1,42,-1
 267 1424 l 1,43,-1
 356 1424 l 1,44,-1
 356 1513 l 1,45,-1
 267 1513 l 1,46,-1
 267 1602 l 1,47,-1
 178 1602 l 1,48,-1
 178 1691 l 1,49,-1
 89 1691 l 1,50,-1
 89 1780 l 1,51,-1
 0 1780 l 1,52,-1
 0 2137 l 1,53,-1
 89 2137 l 1,54,-1
 89 2226 l 1,55,-1
 178 2226 l 1,56,-1
 178 2315 l 1,57,-1
 267 2315 l 1,58,-1
 267 2404 l 1,59,-1
 356 2404 l 1,60,-1
 356 2493 l 1,61,-1
 445 2493 l 1,62,-1
 445 2582 l 1,63,-1
 534 2582 l 1,64,-1
 534 2671 l 1,65,-1
 623 2671 l 1,66,-1
 623 2760 l 1,67,-1
 1157 2760 l 1,68,-1
 1157 2671 l 1,69,-1
 1246 2671 l 1,70,-1
 1246 2582 l 1,71,-1
 1335 2582 l 1,72,-1
 1335 2493 l 1,73,-1
 1424 2493 l 1,74,-1
 1424 2404 l 1,75,-1
 1513 2404 l 1,76,-1
 1513 2315 l 1,77,-1
 1602 2315 l 1,78,-1
 1602 2226 l 1,79,-1
 1691 2226 l 1,80,-1
 1691 1691 l 1,81,-1
 1602 1691 l 1,82,-1
 1602 1602 l 1,83,-1
 1513 1602 l 1,84,-1
 1513 1513 l 1,85,-1
 1424 1513 l 1,86,-1
 1424 1424 l 1,87,-1
 1513 1424 l 1,88,-1
 1513 1335 l 1,89,-1
 1602 1335 l 1,90,-1
 1602 1246 l 1,91,-1
 1691 1246 l 1,92,-1
 1691 1157 l 1,93,-1
 1780 1157 l 1,94,-1
 1780 445 l 1,95,-1
 1691 445 l 1,96,-1
 1691 356 l 1,97,-1
 1602 356 l 1,98,-1
 1602 267 l 1,99,-1
 1513 267 l 1,100,-1
 1513 178 l 1,101,-1
 1424 178 l 1,102,-1
 1424 89 l 1,103,-1
 1335 89 l 1,104,-1
 1335 0 l 1,105,-1
 534 0 l 1,24,-1
EndSplineSet
Validated: 1
EndChar

StartChar: nine
Encoding: 57 57 26
GlifName: nine
Width: 1691
GlyphClass: 1
Flags: W
LayerCount: 2
Fore
SplineSet
979 1602 m 1,0,-1
 979 1691 l 1,1,-1
 1068 1691 l 1,2,-1
 1068 2048 l 1,3,-1
 979 2048 l 1,4,-1
 979 2137 l 1,5,-1
 712 2137 l 1,6,-1
 712 2048 l 1,7,-1
 623 2048 l 1,8,-1
 623 1602 l 1,9,-1
 979 1602 l 1,0,-1
890 0 m 1,10,-1
 890 89 l 1,11,-1
 534 89 l 1,12,-1
 534 267 l 1,13,-1
 623 267 l 1,14,-1
 623 534 l 1,15,-1
 712 534 l 1,16,-1
 712 801 l 1,17,-1
 801 801 l 1,18,-1
 801 1068 l 1,19,-1
 890 1068 l 1,20,-1
 890 1157 l 1,21,-1
 356 1157 l 1,22,-1
 356 1246 l 1,23,-1
 178 1246 l 1,24,-1
 178 1424 l 1,25,-1
 89 1424 l 1,26,-1
 89 1513 l 1,27,-1
 0 1513 l 1,28,-1
 0 2226 l 1,29,-1
 89 2226 l 1,30,-1
 89 2315 l 1,31,-1
 178 2315 l 1,32,-1
 178 2404 l 1,33,-1
 267 2404 l 1,34,-1
 267 2493 l 1,35,-1
 356 2493 l 1,36,-1
 356 2582 l 1,37,-1
 445 2582 l 1,38,-1
 445 2671 l 1,39,-1
 1157 2671 l 1,40,-1
 1157 2582 l 1,41,-1
 1246 2582 l 1,42,-1
 1246 2493 l 1,43,-1
 1335 2493 l 1,44,-1
 1335 2404 l 1,45,-1
 1424 2404 l 1,46,-1
 1424 2315 l 1,47,-1
 1513 2315 l 1,48,-1
 1513 2226 l 1,49,-1
 1602 2226 l 1,50,-1
 1602 1157 l 1,51,-1
 1513 1157 l 1,52,-1
 1513 890 l 1,53,-1
 1424 890 l 1,54,-1
 1424 534 l 1,55,-1
 1335 534 l 1,56,-1
 1335 178 l 1,57,-1
 1246 178 l 1,58,-1
 1246 0 l 1,59,-1
 890 0 l 1,10,-1
EndSplineSet
Validated: 1
EndChar

StartChar: colon
Encoding: 58 58 27
GlifName: colon
Width: 979
GlyphClass: 1
Flags: W
LayerCount: 2
Fore
SplineSet
178 0 m 5,0,-1
 178 356 l 5,1,-1
 267 356 l 5,2,-1
 267 712 l 5,3,-1
 890 712 l 5,4,-1
 890 0 l 5,5,-1
 178 0 l 5,0,-1
267 1246 m 1,6,-1
 267 1602 l 1,7,-1
 178 1602 l 1,8,-1
 178 1958 l 1,9,-1
 534 1958 l 1,10,-1
 534 2048 l 1,11,-1
 890 2048 l 1,12,-1
 890 1335 l 1,13,-1
 534 1335 l 1,14,-1
 534 1246 l 1,15,-1
 267 1246 l 1,6,-1
EndSplineSet
Validated: 1
EndChar

StartChar: semicolon
Encoding: 59 59 28
GlifName: semicolon
Width: 979
GlyphClass: 1
Flags: W
LayerCount: 2
Fore
SplineSet
623 -445 m 5,0,-1
 623 -178 l 5,1,-1
 534 -178 l 5,2,-1
 534 0 l 5,3,-1
 178 0 l 5,4,-1
 178 356 l 5,5,-1
 267 356 l 5,6,-1
 267 712 l 5,7,-1
 801 712 l 5,8,-1
 801 356 l 5,9,-1
 890 356 l 5,10,-1
 890 -178 l 5,11,-1
 801 -178 l 5,12,-1
 801 -445 l 5,13,-1
 623 -445 l 5,0,-1
267 1246 m 1,14,-1
 267 1602 l 1,15,-1
 178 1602 l 1,16,-1
 178 1958 l 1,17,-1
 534 1958 l 1,18,-1
 534 2048 l 1,19,-1
 890 2048 l 1,20,-1
 890 1335 l 1,21,-1
 534 1335 l 1,22,-1
 534 1246 l 1,23,-1
 267 1246 l 1,14,-1
EndSplineSet
Validated: 1
EndChar

StartChar: question
Encoding: 63 63 29
GlifName: question
Width: 2137
GlyphClass: 1
Flags: W
LayerCount: 2
Fore
SplineSet
712 0 m 1,0,-1
 712 356 l 1,1,-1
 801 356 l 1,2,-1
 801 712 l 1,3,-1
 1335 712 l 1,4,-1
 1335 356 l 1,5,-1
 1424 356 l 1,6,-1
 1424 0 l 1,7,-1
 712 0 l 1,0,-1
801 890 m 5,8,-1
 801 1602 l 5,9,-1
 979 1602 l 5,10,-1
 979 1691 l 5,11,-1
 1157 1691 l 5,12,-1
 1157 1780 l 5,13,-1
 1068 1780 l 5,14,-1
 1068 1869 l 5,15,-1
 801 1869 l 5,16,-1
 801 1691 l 5,17,-1
 712 1691 l 5,18,-1
 712 1602 l 5,19,-1
 623 1602 l 5,20,-1
 623 1513 l 5,21,-1
 534 1513 l 5,22,-1
 534 1602 l 5,23,-1
 356 1602 l 5,24,-1
 356 1691 l 5,25,-1
 267 1691 l 5,26,-1
 267 1780 l 5,27,-1
 89 1780 l 5,28,-1
 89 1869 l 5,29,-1
 0 1869 l 5,30,-1
 0 1958 l 5,31,-1
 89 1958 l 5,32,-1
 89 2048 l 5,33,-1
 178 2048 l 5,34,-1
 178 2137 l 5,35,-1
 267 2137 l 5,36,-1
 267 2226 l 5,37,-1
 356 2226 l 5,38,-1
 356 2315 l 5,39,-1
 445 2315 l 5,40,-1
 445 2404 l 5,41,-1
 534 2404 l 5,42,-1
 534 2493 l 5,43,-1
 623 2493 l 5,44,-1
 623 2582 l 5,45,-1
 1602 2582 l 5,46,-1
 1602 2493 l 5,47,-1
 1691 2493 l 5,48,-1
 1691 2404 l 5,49,-1
 1780 2404 l 5,50,-1
 1780 2315 l 5,51,-1
 1869 2315 l 5,52,-1
 1869 2226 l 5,53,-1
 1958 2226 l 5,54,-1
 1958 2137 l 5,55,-1
 2048 2137 l 5,56,-1
 2048 1780 l 5,57,-1
 1958 1780 l 5,58,-1
 1958 1513 l 5,59,-1
 1780 1513 l 5,60,-1
 1780 1424 l 5,61,-1
 1602 1424 l 5,62,-1
 1602 1335 l 5,63,-1
 1424 1335 l 5,64,-1
 1424 979 l 5,65,-1
 1068 979 l 5,66,-1
 1068 890 l 5,67,-1
 801 890 l 5,8,-1
EndSplineSet
Validated: 1
EndChar

StartChar: at
Encoding: 64 64 30
GlifName: at
Width: 2315
GlyphClass: 1
Flags: W
LayerCount: 2
Fore
SplineSet
1157 1157 m 1,0,-1
 1157 1335 l 1,1,-1
 1068 1335 l 1,2,-1
 1068 1157 l 1,3,-1
 1157 1157 l 1,0,-1
534 0 m 1,4,-1
 534 89 l 1,5,-1
 445 89 l 1,6,-1
 445 178 l 1,7,-1
 356 178 l 1,8,-1
 356 267 l 1,9,-1
 267 267 l 1,10,-1
 267 356 l 1,11,-1
 178 356 l 1,12,-1
 178 445 l 1,13,-1
 89 445 l 1,14,-1
 89 534 l 1,15,-1
 0 534 l 1,16,-1
 0 1246 l 1,17,-1
 89 1246 l 1,18,-1
 89 2048 l 1,19,-1
 178 2048 l 1,20,-1
 178 2137 l 1,21,-1
 267 2137 l 1,22,-1
 267 2226 l 1,23,-1
 356 2226 l 1,24,-1
 356 2404 l 1,25,-1
 979 2404 l 1,26,-1
 979 2493 l 1,27,-1
 1691 2493 l 1,28,-1
 1691 2315 l 1,29,-1
 1780 2315 l 1,30,-1
 1780 2226 l 1,31,-1
 1869 2226 l 1,32,-1
 1869 2137 l 1,33,-1
 1958 2137 l 1,34,-1
 1958 2048 l 1,35,-1
 2048 2048 l 1,36,-1
 2048 1958 l 1,37,-1
 2137 1958 l 1,38,-1
 2137 1869 l 1,39,-1
 2226 1869 l 1,40,-1
 2226 1602 l 1,41,-1
 2137 1602 l 1,42,-1
 2137 1068 l 1,43,-1
 2048 1068 l 1,44,-1
 2048 801 l 1,45,-1
 1602 801 l 1,46,-1
 1602 979 l 1,47,-1
 1513 979 l 1,48,-1
 1513 801 l 1,49,-1
 1424 801 l 1,50,-1
 1424 712 l 1,51,-1
 801 712 l 1,52,-1
 801 890 l 1,53,-1
 712 890 l 1,54,-1
 712 1068 l 1,55,-1
 623 1068 l 1,56,-1
 623 1424 l 1,57,-1
 712 1424 l 1,58,-1
 712 1513 l 1,59,-1
 890 1513 l 1,60,-1
 890 1602 l 1,61,-1
 1068 1602 l 1,62,-1
 1068 1691 l 1,63,-1
 1157 1691 l 1,64,-1
 1157 1780 l 1,65,-1
 1335 1780 l 1,66,-1
 1335 1869 l 1,67,-1
 1424 1869 l 1,68,-1
 1424 1691 l 1,69,-1
 1513 1691 l 1,70,-1
 1513 1513 l 1,71,-1
 1602 1513 l 1,72,-1
 1602 1424 l 1,73,-1
 1691 1424 l 1,74,-1
 1691 1335 l 1,75,-1
 1780 1335 l 1,76,-1
 1780 1424 l 1,77,-1
 1691 1424 l 1,78,-1
 1691 1513 l 1,79,-1
 1602 1513 l 1,80,-1
 1602 1780 l 1,81,-1
 1513 1780 l 1,82,-1
 1513 1869 l 1,83,-1
 1424 1869 l 1,84,-1
 1424 1958 l 1,85,-1
 1246 1958 l 1,86,-1
 1246 1869 l 1,87,-1
 1068 1869 l 1,88,-1
 1068 1780 l 1,89,-1
 979 1780 l 1,90,-1
 979 1691 l 1,91,-1
 801 1691 l 1,92,-1
 801 1602 l 1,93,-1
 623 1602 l 1,94,-1
 623 1513 l 1,95,-1
 534 1513 l 1,96,-1
 534 1335 l 1,97,-1
 445 1335 l 1,98,-1
 445 1157 l 1,99,-1
 534 1157 l 1,100,-1
 534 979 l 1,101,-1
 623 979 l 1,102,-1
 623 712 l 1,103,-1
 712 712 l 1,104,-1
 712 534 l 1,105,-1
 2048 534 l 1,106,-1
 2048 445 l 1,107,-1
 2137 445 l 1,108,-1
 2137 0 l 1,109,-1
 534 0 l 1,4,-1
EndSplineSet
Validated: 5
EndChar

StartChar: A
Encoding: 65 65 31
GlifName: A_
Width: 2671
GlyphClass: 1
Flags: W
LayerCount: 2
Fore
SplineSet
1513 1157 m 5,0,-1
 1513 1513 l 1,1,-1
 1424 1513 l 1,2,-1
 1424 1335 l 1,3,-1
 1335 1335 l 1,4,-1
 1335 1246 l 1,5,-1
 1246 1246 l 1,6,-1
 1246 1157 l 1,7,-1
 1513 1157 l 5,0,-1
1691 0 m 5,8,-1
 1691 445 l 1,9,-1
 1424 445 l 1,10,-1
 1424 534 l 1,11,-1
 1068 534 l 1,12,-1
 1068 623 l 1,13,-1
 890 623 l 1,14,-1
 890 534 l 1,15,-1
 801 534 l 1,16,-1
 801 267 l 1,17,-1
 445 267 l 1,18,-1
 445 356 l 1,19,-1
 0 356 l 1,20,-1
 -0 623 l 1,21,-1
 89 623 l 1,22,-1
 89 801 l 1,23,-1
 178.000976562 801 l 1,24,-1
 178 979 l 1,25,-1
 267 979 l 1,26,-1
 267 1068 l 1,27,-1
 356 1068 l 1,28,-1
 356 1246 l 1,29,-1
 445 1246 l 1,30,-1
 445 1424 l 1,31,-1
 534 1424 l 1,32,-1
 534 1602 l 1,33,-1
 623 1602 l 1,34,-1
 623 1780 l 1,35,-1
 712 1780 l 1,36,-1
 712 1958 l 1,37,-1
 801 1958 l 1,38,-1
 801 2137 l 1,39,-1
 890 2137 l 1,40,-1
 890 2315 l 1,41,-1
 979 2315 l 1,42,-1
 978.999023438 2493 l 1,43,-1
 1068 2493 l 1,44,-1
 1068 2671 l 1,45,-1
 1513 2671 l 1,46,-1
 1513 2582 l 1,47,-1
 1958 2582 l 1,48,-1
 1958 2137 l 1,49,-1
 2048 2137 l 1,50,-1
 2048 1869 l 1,51,-1
 2137 1869 l 1,52,-1
 2137 1602 l 1,53,-1
 2226 1602 l 1,54,-1
 2226 1335 l 1,55,-1
 2315 1334.99902344 l 1,56,-1
 2315 1068.00097656 l 1,57,-1
 2404 1068 l 1,58,-1
 2404 712 l 1,59,-1
 2493 712 l 1,60,-1
 2493 356 l 1,61,-1
 2582 355.999023438 l 1,62,-1
 2582 0 l 1,63,-1
 1691 0 l 5,8,-1
EndSplineSet
Validated: 1
EndChar

StartChar: B
Encoding: 66 66 32
GlifName: B_
Width: 2493
GlyphClass: 1
Flags: W
LayerCount: 2
Fore
SplineSet
1157 623 m 1,0,-1
 1157 712 l 1,1,-1
 1424 712 l 1,2,-1
 1424 979 l 1,3,-1
 1335 979 l 1,4,-1
 1335 1068 l 1,5,-1
 1068 1068 l 1,6,-1
 1068 979 l 1,7,-1
 890 979 l 1,8,-1
 890 712 l 1,9,-1
 979 712 l 1,10,-1
 979 623 l 1,11,-1
 1157 623 l 1,0,-1
890 1424 m 1,12,-1
 890 1513 l 1,13,-1
 1068 1513 l 1,14,-1
 1068 1602 l 1,15,-1
 1246 1602 l 1,16,-1
 1246 1869 l 1,17,-1
 712 1869 l 1,18,-1
 712 1691 l 1,19,-1
 801 1691 l 1,20,-1
 801 1424 l 1,21,-1
 890 1424 l 1,12,-1
445 0 m 1,22,-1
 445 267 l 1,23,-1
 356 267 l 1,24,-1
 356 712 l 1,25,-1
 267 712 l 1,26,-1
 267 1157 l 1,27,-1
 178 1157 l 1,28,-1
 178 1691 l 1,29,-1
 89 1691 l 1,30,-1
 89 2137 l 1,31,-1
 0 2137 l 1,32,-1
 0 2404 l 1,33,-1
 356 2404 l 1,34,-1
 356 2493 l 1,35,-1
 890 2493 l 1,36,-1
 890 2582 l 1,37,-1
 1246 2582 l 1,38,-1
 1246 2493 l 1,39,-1
 1424 2493 l 1,40,-1
 1424 2404 l 1,41,-1
 1602 2404 l 1,42,-1
 1602 2315 l 1,43,-1
 1691 2315 l 1,44,-1
 1691 2226 l 1,45,-1
 1869 2226 l 1,46,-1
 1869 2137 l 1,47,-1
 2048 2137 l 1,48,-1
 2048 2048 l 1,49,-1
 2137 2048 l 1,50,-1
 2137 1780 l 1,51,-1
 2048 1780 l 1,52,-1
 2048 1424 l 1,53,-1
 1958 1424 l 1,54,-1
 1958 1246 l 1,55,-1
 2048 1246 l 1,56,-1
 2048 1157 l 1,57,-1
 2137 1157 l 1,58,-1
 2137 979 l 1,59,-1
 2226 979 l 1,60,-1
 2226 890 l 1,61,-1
 2315 890 l 1,62,-1
 2315 801 l 1,63,-1
 2404 801 l 1,64,-1
 2404 712 l 1,65,-1
 2315 712 l 1,66,-1
 2315 623 l 1,67,-1
 2226 623 l 1,68,-1
 2226 534 l 1,69,-1
 2137 534 l 1,70,-1
 2137 445 l 1,71,-1
 2048 445 l 1,72,-1
 2048 356 l 1,73,-1
 1958 356 l 1,74,-1
 1958 267 l 1,75,-1
 1869 267 l 1,76,-1
 1869 178 l 1,77,-1
 1780 178 l 1,78,-1
 1780 89 l 1,79,-1
 1691 89 l 1,80,-1
 1691 0 l 1,81,-1
 445 0 l 1,22,-1
EndSplineSet
Validated: 1
EndChar

StartChar: C
Encoding: 67 67 33
GlifName: C_
Width: 2315
GlyphClass: 1
Flags: W
LayerCount: 2
Fore
SplineSet
1157 0 m 1,0,-1
 1157 89 l 1,1,-1
 1068 89 l 1,2,-1
 1068 178 l 1,3,-1
 979 178 l 1,4,-1
 979 267 l 1,5,-1
 890 267 l 1,6,-1
 890 356 l 1,7,-1
 801 356 l 1,8,-1
 801 445 l 1,9,-1
 712 445 l 1,10,-1
 712 534 l 1,11,-1
 623 534 l 1,12,-1
 623 623 l 1,13,-1
 534 623 l 1,14,-1
 534 712 l 1,15,-1
 445 712 l 1,16,-1
 445 801 l 1,17,-1
 356 801 l 1,18,-1
 356 890 l 1,19,-1
 267 890 l 1,20,-1
 267 979 l 1,21,-1
 178 979 l 1,22,-1
 178 1068 l 1,23,-1
 89 1068 l 1,24,-1
 89 2048 l 1,25,-1
 178 2048 l 1,26,-1
 178 2137 l 1,27,-1
 267 2137 l 1,28,-1
 267 2226 l 1,29,-1
 356 2226 l 1,30,-1
 356 2315 l 1,31,-1
 445 2315 l 1,32,-1
 445 2404 l 1,33,-1
 534 2404 l 1,34,-1
 534 2493 l 1,35,-1
 623 2493 l 1,36,-1
 623 2582 l 1,37,-1
 712 2582 l 1,38,-1
 712 2671 l 1,39,-1
 801 2671 l 1,40,-1
 801 2760 l 1,41,-1
 890 2760 l 1,42,-1
 890 2849 l 1,43,-1
 1602 2849 l 1,44,-1
 1602 2760 l 1,45,-1
 1691 2760 l 1,46,-1
 1691 2671 l 1,47,-1
 1780 2671 l 1,48,-1
 1780 2582 l 1,49,-1
 1869 2582 l 1,50,-1
 1869 2493 l 1,51,-1
 1958 2493 l 1,52,-1
 1958 2404 l 1,53,-1
 2048 2404 l 1,54,-1
 2048 2315 l 1,55,-1
 2137 2315 l 1,56,-1
 2137 2137 l 1,57,-1
 2048 2137 l 1,58,-1
 2048 2048 l 1,59,-1
 1958 2048 l 1,60,-1
 1958 1958 l 1,61,-1
 1869 1958 l 1,62,-1
 1869 1869 l 1,63,-1
 1780 1869 l 1,64,-1
 1780 1780 l 1,65,-1
 1691 1780 l 1,66,-1
 1691 1869 l 1,67,-1
 1602 1869 l 1,68,-1
 1602 1958 l 1,69,-1
 1513 1958 l 1,70,-1
 1513 2048 l 1,71,-1
 1068 2048 l 1,72,-1
 1068 1958 l 1,73,-1
 979 1958 l 1,74,-1
 979 1869 l 1,75,-1
 890 1869 l 1,76,-1
 890 1780 l 1,77,-1
 801 1780 l 1,78,-1
 801 1691 l 1,79,-1
 712 1691 l 1,80,-1
 712 1335 l 1,81,-1
 801 1335 l 1,82,-1
 801 1246 l 1,83,-1
 890 1246 l 1,84,-1
 890 1157 l 1,85,-1
 979 1157 l 1,86,-1
 979 1068 l 1,87,-1
 1068 1068 l 1,88,-1
 1068 979 l 1,89,-1
 1157 979 l 1,90,-1
 1157 890 l 1,91,-1
 1246 890 l 1,92,-1
 1246 801 l 1,93,-1
 1335 801 l 1,94,-1
 1335 890 l 1,95,-1
 1424 890 l 1,96,-1
 1424 979 l 1,97,-1
 1513 979 l 1,98,-1
 1513 1068 l 1,99,-1
 1602 1068 l 1,100,-1
 1602 1157 l 1,101,-1
 1691 1157 l 1,102,-1
 1691 1246 l 1,103,-1
 1869 1246 l 1,104,-1
 1869 1157 l 1,105,-1
 1958 1157 l 1,106,-1
 1958 1068 l 1,107,-1
 2048 1068 l 1,108,-1
 2048 979 l 1,109,-1
 2137 979 l 1,110,-1
 2137 890 l 1,111,-1
 2226 890 l 1,112,-1
 2226 712 l 1,113,-1
 2137 712 l 1,114,-1
 2137 623 l 1,115,-1
 2048 623 l 1,116,-1
 2048 534 l 1,117,-1
 1958 534 l 1,118,-1
 1958 445 l 1,119,-1
 1869 445 l 1,120,-1
 1869 356 l 1,121,-1
 1780 356 l 1,122,-1
 1780 267 l 1,123,-1
 1691 267 l 1,124,-1
 1691 178 l 1,125,-1
 1602 178 l 1,126,-1
 1602 89 l 1,127,-1
 1513 89 l 1,128,-1
 1513 0 l 1,129,-1
 1157 0 l 1,0,-1
EndSplineSet
Validated: 1
EndChar

StartChar: D
Encoding: 68 68 34
GlifName: D_
Width: 1780
GlyphClass: 1
Flags: W
LayerCount: 2
Fore
SplineSet
979 1246 m 1,0,-1
 979 1335 l 1,1,-1
 1068 1335 l 1,2,-1
 1068 1602 l 1,3,-1
 979 1602 l 1,4,-1
 979 1691 l 1,5,-1
 801 1691 l 1,6,-1
 801 1246 l 1,7,-1
 979 1246 l 1,0,-1
0 0 m 1,8,-1
 0 2849 l 1,9,-1
 979 2849 l 1,10,-1
 979 2760 l 1,11,-1
 1068 2760 l 1,12,-1
 1068 2671 l 1,13,-1
 1157 2671 l 1,14,-1
 1157 2582 l 1,15,-1
 1246 2582 l 1,16,-1
 1246 2493 l 1,17,-1
 1335 2493 l 1,18,-1
 1335 2404 l 1,19,-1
 1424 2404 l 1,20,-1
 1424 2315 l 1,21,-1
 1513 2315 l 1,22,-1
 1513 2226 l 1,23,-1
 1602 2226 l 1,24,-1
 1602 2137 l 1,25,-1
 1691 2137 l 1,26,-1
 1691 623 l 1,27,-1
 1602 623 l 1,28,-1
 1602 534 l 1,29,-1
 1513 534 l 1,30,-1
 1513 445 l 1,31,-1
 1424 445 l 1,32,-1
 1424 356 l 1,33,-1
 1335 356 l 1,34,-1
 1335 267 l 1,35,-1
 1246 267 l 1,36,-1
 1246 178 l 1,37,-1
 1157 178 l 1,38,-1
 1157 89 l 1,39,-1
 1068 89 l 1,40,-1
 1068 0 l 1,41,-1
 0 0 l 1,8,-1
EndSplineSet
Validated: 1
EndChar

StartChar: E
Encoding: 69 69 35
GlifName: E_
Width: 2493
GlyphClass: 1
Flags: W
LayerCount: 2
Fore
SplineSet
356 0 m 5,0,-1
 356 356 l 5,1,-1
 267 356 l 5,2,-1
 267 890 l 5,3,-1
 178 890 l 5,4,-1
 178 1424 l 5,5,-1
 89 1424 l 5,6,-1
 89 1958 l 5,7,-1
 0 1958 l 5,8,-1
 0 2226 l 5,9,-1
 267 2226 l 5,10,-1
 267 2315 l 5,11,-1
 801 2315 l 5,12,-1
 801 2404 l 5,13,-1
 1246 2404 l 5,14,-1
 1246 2493 l 5,15,-1
 1780 2493 l 5,16,-1
 1780 2582 l 5,17,-1
 2048 2582 l 5,18,-1
 2048 2137 l 5,19,-1
 1958 2137 l 5,20,-1
 1958 1780 l 5,21,-1
 1691 1780 l 5,22,-1
 1691 1691 l 5,23,-1
 1335 1691 l 5,24,-1
 1335 1602 l 5,25,-1
 979 1602 l 5,26,-1
 979 1513 l 5,27,-1
 890 1513 l 5,28,-1
 890 1335 l 5,29,-1
 1068 1335 l 5,30,-1
 1068 1424 l 5,31,-1
 1602 1424 l 5,32,-1
 1602 1513 l 5,33,-1
 1869 1513 l 5,34,-1
 1869 1157 l 5,35,-1
 1780 1157 l 5,36,-1
 1780 890 l 5,37,-1
 1335 890 l 5,38,-1
 1335 801 l 5,39,-1
 979 801 l 5,40,-1
 979 534 l 5,41,-1
 1157 534 l 5,42,-1
 1157 623 l 5,43,-1
 1602 623 l 5,44,-1
 1602 712 l 5,45,-1
 2137 712 l 5,46,-1
 2137 801 l 5,47,-1
 2404 801 l 5,48,-1
 2404 534 l 5,49,-1
 2315 534 l 5,50,-1
 2315 178 l 5,51,-1
 2226 178 l 5,52,-1
 2226 0 l 5,53,-1
 356 0 l 5,0,-1
EndSplineSet
Validated: 1
EndChar

StartChar: F
Encoding: 70 70 36
GlifName: F_
Width: 2226
GlyphClass: 1
Flags: W
LayerCount: 2
Fore
SplineSet
356 0 m 1,0,-1
 356 356 l 1,1,-1
 267 356 l 1,2,-1
 267 890 l 1,3,-1
 178 890 l 1,4,-1
 178 1424 l 1,5,-1
 89 1424 l 1,6,-1
 89 1958 l 1,7,-1
 0 1958 l 1,8,-1
 0 2226 l 1,9,-1
 178 2226 l 1,10,-1
 178 2315 l 1,11,-1
 445 2315 l 1,12,-1
 445 2404 l 1,13,-1
 712 2404 l 1,14,-1
 712 2493 l 1,15,-1
 979 2493 l 1,16,-1
 979 2582 l 1,17,-1
 1246 2582 l 1,18,-1
 1246 2671 l 1,19,-1
 1513 2671 l 1,20,-1
 1513 2760 l 1,21,-1
 1780 2760 l 1,22,-1
 1780 2849 l 1,23,-1
 1958 2849 l 1,24,-1
 1958 2582 l 1,25,-1
 2048 2582 l 1,26,-1
 2048 2226 l 1,27,-1
 2137 2226 l 1,28,-1
 2137 2048 l 1,29,-1
 1869 2048 l 1,30,-1
 1869 1958 l 1,31,-1
 1513 1958 l 1,32,-1
 1513 1869 l 1,33,-1
 1157 1869 l 1,34,-1
 1157 1780 l 1,35,-1
 979 1780 l 1,36,-1
 979 1424 l 1,37,-1
 1157 1424 l 1,38,-1
 1157 1513 l 1,39,-1
 1513 1513 l 1,40,-1
 1513 1602 l 1,41,-1
 1691 1602 l 1,42,-1
 1691 1424 l 1,43,-1
 1780 1424 l 1,44,-1
 1780 1157 l 1,45,-1
 1869 1157 l 1,46,-1
 1869 979 l 1,47,-1
 1602 979 l 1,48,-1
 1602 890 l 1,49,-1
 1246 890 l 1,50,-1
 1246 801 l 1,51,-1
 1068 801 l 1,52,-1
 1068 0 l 1,53,-1
 356 0 l 1,0,-1
EndSplineSet
Validated: 1
EndChar

StartChar: G
Encoding: 71 71 37
GlifName: G_
Width: 2760
GlyphClass: 1
Flags: W
LayerCount: 2
Fore
SplineSet
623 0 m 1,0,-1
 623 89 l 1,1,-1
 534 89 l 1,2,-1
 534 178 l 1,3,-1
 445 178 l 1,4,-1
 445 267 l 1,5,-1
 356 267 l 1,6,-1
 356 356 l 1,7,-1
 267 356 l 1,8,-1
 267 445 l 1,9,-1
 178 445 l 1,10,-1
 178 534 l 1,11,-1
 89 534 l 1,12,-1
 89 623 l 1,13,-1
 0 623 l 1,14,-1
 0 1513 l 1,15,-1
 89 1513 l 1,16,-1
 89 2404 l 1,17,-1
 178 2404 l 1,18,-1
 178 2493 l 1,19,-1
 356 2493 l 1,20,-1
 356 2582 l 1,21,-1
 445 2582 l 1,22,-1
 445 2671 l 1,23,-1
 534 2671 l 1,24,-1
 534 2760 l 1,25,-1
 712 2760 l 1,26,-1
 712 2849 l 1,27,-1
 801 2849 l 1,28,-1
 801 2938 l 1,29,-1
 1602 2938 l 1,30,-1
 1602 2849 l 1,31,-1
 2315 2849 l 1,32,-1
 2315 2582 l 1,33,-1
 2404 2582 l 1,34,-1
 2404 2226 l 1,35,-1
 2493 2226 l 1,36,-1
 2493 2048 l 1,37,-1
 1780 2048 l 1,38,-1
 1780 2137 l 1,39,-1
 1246 2137 l 1,40,-1
 1246 2048 l 1,41,-1
 1157 2048 l 1,42,-1
 1157 1869 l 1,43,-1
 1068 1869 l 1,44,-1
 1068 1602 l 1,45,-1
 979 1602 l 1,46,-1
 979 1335 l 1,47,-1
 890 1335 l 1,48,-1
 890 1157 l 1,49,-1
 801 1157 l 1,50,-1
 801 979 l 1,51,-1
 979 979 l 1,52,-1
 979 890 l 1,53,-1
 1157 890 l 1,54,-1
 1157 801 l 1,55,-1
 1335 801 l 1,56,-1
 1335 712 l 1,57,-1
 1869 712 l 1,58,-1
 1869 801 l 1,59,-1
 1780 801 l 1,60,-1
 1780 1068 l 1,61,-1
 1691 1068 l 1,62,-1
 1691 1157 l 1,63,-1
 1246 1157 l 1,64,-1
 1246 1335 l 1,65,-1
 1335 1335 l 1,66,-1
 1335 1513 l 1,67,-1
 1424 1513 l 1,68,-1
 1424 1691 l 1,69,-1
 1958 1691 l 1,70,-1
 1958 1602 l 1,71,-1
 2493 1602 l 1,72,-1
 2493 1246 l 1,73,-1
 2582 1246 l 1,74,-1
 2582 712 l 1,75,-1
 2671 712 l 1,76,-1
 2671 356 l 1,77,-1
 2582 356 l 1,78,-1
 2582 267 l 1,79,-1
 2493 267 l 1,80,-1
 2493 178 l 1,81,-1
 2404 178 l 1,82,-1
 2404 89 l 1,83,-1
 2315 89 l 1,84,-1
 2315 0 l 1,85,-1
 623 0 l 1,0,-1
EndSplineSet
Validated: 1
EndChar

StartChar: H
Encoding: 72 72 38
GlifName: H_
Width: 2404
GlyphClass: 1
Flags: W
LayerCount: 2
Fore
SplineSet
356 0 m 1,0,-1
 356 89 l 1,1,-1
 0 89 l 1,2,-1
 0 1424 l 1,3,-1
 89 1424 l 1,4,-1
 89 2671 l 1,5,-1
 356 2671 l 1,6,-1
 356 2760 l 1,7,-1
 801 2760 l 1,8,-1
 801 1780 l 1,9,-1
 1335 1780 l 1,10,-1
 1335 2493 l 1,11,-1
 1424 2493 l 1,12,-1
 1424 2582 l 1,13,-1
 1602 2582 l 1,14,-1
 1602 2671 l 1,15,-1
 1691 2671 l 1,16,-1
 1691 2760 l 1,17,-1
 1780 2760 l 1,18,-1
 1780 2849 l 1,19,-1
 2048 2849 l 1,20,-1
 2048 2404 l 1,21,-1
 2137 2404 l 1,22,-1
 2137 1513 l 1,23,-1
 2226 1513 l 1,24,-1
 2226 623 l 1,25,-1
 2315 623 l 1,26,-1
 2315 89 l 1,27,-1
 1958 89 l 1,28,-1
 1958 0 l 1,29,-1
 1602 0 l 1,30,-1
 1602 267 l 1,31,-1
 1513 267 l 1,32,-1
 1513 623 l 1,33,-1
 1424 623 l 1,34,-1
 1424 1068 l 1,35,-1
 1068 1068 l 1,36,-1
 1068 979 l 1,37,-1
 801 979 l 1,38,-1
 801 356 l 1,39,-1
 712 356 l 1,40,-1
 712 0 l 1,41,-1
 356 0 l 1,0,-1
EndSplineSet
Validated: 1
EndChar

StartChar: I
Encoding: 73 73 39
GlifName: I_
Width: 979
GlyphClass: 1
Flags: W
LayerCount: 2
Fore
SplineSet
0 0 m 1,0,-1
 0 2582 l 1,1,-1
 623 2582 l 1,2,-1
 623 1958 l 1,3,-1
 712 1958 l 1,4,-1
 712 1246 l 1,5,-1
 801 1246 l 1,6,-1
 801 534 l 1,7,-1
 890 534 l 1,8,-1
 890 0 l 1,9,-1
 0 0 l 1,0,-1
EndSplineSet
Validated: 1
EndChar

StartChar: J
Encoding: 74 74 40
GlifName: J_
Width: 2404
GlyphClass: 1
Flags: W
LayerCount: 2
Fore
SplineSet
356 0 m 1,0,-1
 356 89 l 1,1,-1
 267 89 l 1,2,-1
 267 178 l 1,3,-1
 178 178 l 1,4,-1
 178 267 l 1,5,-1
 89 267 l 1,6,-1
 89 356 l 1,7,-1
 0 356 l 1,8,-1
 0 445 l 1,9,-1
 89 445 l 1,10,-1
 89 534 l 1,11,-1
 178 534 l 1,12,-1
 178 712 l 1,13,-1
 267 712 l 1,14,-1
 267 801 l 1,15,-1
 356 801 l 1,16,-1
 356 890 l 1,17,-1
 445 890 l 1,18,-1
 445 979 l 1,19,-1
 534 979 l 1,20,-1
 534 890 l 1,21,-1
 623 890 l 1,22,-1
 623 801 l 1,23,-1
 712 801 l 1,24,-1
 712 712 l 1,25,-1
 801 712 l 1,26,-1
 801 623 l 1,27,-1
 1068 623 l 1,28,-1
 1068 712 l 1,29,-1
 1246 712 l 1,30,-1
 1246 890 l 1,31,-1
 1335 890 l 1,32,-1
 1335 1424 l 1,33,-1
 1424 1424 l 1,34,-1
 1424 1869 l 1,35,-1
 1513 1869 l 1,36,-1
 1513 2404 l 1,37,-1
 1602 2404 l 1,38,-1
 1602 2671 l 1,39,-1
 1780 2671 l 1,40,-1
 1780 2582 l 1,41,-1
 1958 2582 l 1,42,-1
 1958 2493 l 1,43,-1
 2137 2493 l 1,44,-1
 2137 2404 l 1,45,-1
 2315 2404 l 1,46,-1
 2315 1958 l 1,47,-1
 2226 1958 l 1,48,-1
 2226 1068 l 1,49,-1
 2137 1068 l 1,50,-1
 2137 534 l 1,51,-1
 2048 534 l 1,52,-1
 2048 445 l 1,53,-1
 1958 445 l 1,54,-1
 1958 356 l 1,55,-1
 1869 356 l 1,56,-1
 1869 267 l 1,57,-1
 1780 267 l 1,58,-1
 1780 178 l 1,59,-1
 1691 178 l 1,60,-1
 1691 89 l 1,61,-1
 1602 89 l 1,62,-1
 1602 0 l 1,63,-1
 356 0 l 1,0,-1
EndSplineSet
Validated: 1
EndChar

StartChar: K
Encoding: 75 75 41
GlifName: K_
Width: 2226
GlyphClass: 1
Flags: W
LayerCount: 2
Fore
SplineSet
0 0 m 1,0,-1
 0 2582 l 1,1,-1
 623 2582 l 1,2,-1
 623 2137 l 1,3,-1
 712 2137 l 1,4,-1
 712 1958 l 1,5,-1
 801 1958 l 1,6,-1
 801 2137 l 1,7,-1
 890 2137 l 1,8,-1
 890 2226 l 1,9,-1
 979 2226 l 1,10,-1
 979 2315 l 1,11,-1
 1068 2315 l 1,12,-1
 1068 2493 l 1,13,-1
 1157 2493 l 1,14,-1
 1157 2582 l 1,15,-1
 1246 2582 l 1,16,-1
 1246 2671 l 1,17,-1
 1335 2671 l 1,18,-1
 1335 2582 l 1,19,-1
 1424 2582 l 1,20,-1
 1424 2493 l 1,21,-1
 1513 2493 l 1,22,-1
 1513 2404 l 1,23,-1
 1602 2404 l 1,24,-1
 1602 2315 l 1,25,-1
 1691 2315 l 1,26,-1
 1691 2226 l 1,27,-1
 1780 2226 l 1,28,-1
 1780 2048 l 1,29,-1
 1691 2048 l 1,30,-1
 1691 1869 l 1,31,-1
 1602 1869 l 1,32,-1
 1602 1780 l 1,33,-1
 1513 1780 l 1,34,-1
 1513 1602 l 1,35,-1
 1424 1602 l 1,36,-1
 1424 1513 l 1,37,-1
 1335 1513 l 1,38,-1
 1335 1335 l 1,39,-1
 1246 1335 l 1,40,-1
 1246 1157 l 1,41,-1
 1424 1157 l 1,42,-1
 1424 1068 l 1,43,-1
 1513 1068 l 1,44,-1
 1513 979 l 1,45,-1
 1602 979 l 1,46,-1
 1602 890 l 1,47,-1
 1780 890 l 1,48,-1
 1780 801 l 1,49,-1
 1869 801 l 1,50,-1
 1869 712 l 1,51,-1
 2048 712 l 1,52,-1
 2048 623 l 1,53,-1
 2137 623 l 1,54,-1
 2137 534 l 1,55,-1
 2048 534 l 1,56,-1
 2048 356 l 1,57,-1
 1958 356 l 1,58,-1
 1958 267 l 1,59,-1
 1869 267 l 1,60,-1
 1869 89 l 1,61,-1
 1780 89 l 1,62,-1
 1780 0 l 1,63,-1
 1602 0 l 1,64,-1
 1602 89 l 1,65,-1
 1513 89 l 1,66,-1
 1513 178 l 1,67,-1
 1335 178 l 1,68,-1
 1335 267 l 1,69,-1
 1246 267 l 1,70,-1
 1246 356 l 1,71,-1
 1157 356 l 1,72,-1
 1157 445 l 1,73,-1
 1068 445 l 1,74,-1
 1068 534 l 1,75,-1
 890 534 l 1,76,-1
 890 623 l 1,77,-1
 801 623 l 1,78,-1
 801 445 l 1,79,-1
 890 445 l 1,80,-1
 890 0 l 1,81,-1
 0 0 l 1,0,-1
EndSplineSet
Validated: 1
EndChar

StartChar: L
Encoding: 76 76 42
GlifName: L_
Width: 1691
GlyphClass: 1
Flags: W
LayerCount: 2
Fore
SplineSet
0 0 m 5,0,-1
 0 2582 l 5,1,-1
 623 2582 l 5,2,-1
 623 1958 l 5,3,-1
 712 1958 l 5,4,-1
 712 1246 l 5,5,-1
 801 1246 l 5,6,-1
 801 801 l 5,7,-1
 1602 801 l 5,8,-1
 1602 0 l 5,9,-1
 0 0 l 5,0,-1
EndSplineSet
Validated: 1
EndChar

StartChar: M
Encoding: 77 77 43
GlifName: M_
Width: 2760
GlyphClass: 1
Flags: W
LayerCount: 2
Fore
SplineSet
0 0 m 1,0,-1
 0 712 l 1,1,-1
 89 712 l 1,2,-1
 89 1246 l 1,3,-1
 178 1246 l 1,4,-1
 178 1780 l 1,5,-1
 267 1780 l 1,6,-1
 267 2315 l 1,7,-1
 356 2315 l 1,8,-1
 356 2671 l 1,9,-1
 1068 2671 l 1,10,-1
 1068 2493 l 1,11,-1
 1157 2493 l 1,12,-1
 1157 2226 l 1,13,-1
 1246 2226 l 1,14,-1
 1246 2493 l 1,15,-1
 1335 2493 l 1,16,-1
 1335 2671 l 1,17,-1
 1691 2671 l 1,18,-1
 1691 2582 l 1,19,-1
 2137 2582 l 1,20,-1
 2137 2226 l 1,21,-1
 2226 2226 l 1,22,-1
 2226 1869 l 1,23,-1
 2315 1869 l 1,24,-1
 2315 1513 l 1,25,-1
 2404 1513 l 1,26,-1
 2404 1068 l 1,27,-1
 2493 1068 l 1,28,-1
 2493 712 l 1,29,-1
 2582 712 l 1,30,-1
 2582 534 l 1,31,-1
 2671 534 l 1,32,-1
 2671 445 l 1,33,-1
 2582 445 l 1,34,-1
 2582 356 l 1,35,-1
 2493 356 l 1,36,-1
 2493 267 l 1,37,-1
 2315 267 l 1,38,-1
 2315 178 l 1,39,-1
 2137 178 l 1,40,-1
 2137 89 l 1,41,-1
 1958 89 l 1,42,-1
 1958 356 l 1,43,-1
 1869 356 l 1,44,-1
 1869 712 l 1,45,-1
 1780 712 l 1,46,-1
 1780 1068 l 1,47,-1
 1691 1068 l 1,48,-1
 1691 1424 l 1,49,-1
 1602 1424 l 1,50,-1
 1602 1157 l 1,51,-1
 1513 1157 l 1,52,-1
 1513 890 l 1,53,-1
 1424 890 l 1,54,-1
 1424 623 l 1,55,-1
 1335 623 l 1,56,-1
 1335 356 l 1,57,-1
 1246 356 l 1,58,-1
 1246 267 l 1,59,-1
 1157 267 l 1,60,-1
 1157 356 l 1,61,-1
 1068 356 l 1,62,-1
 1068 623 l 1,63,-1
 979 623 l 1,64,-1
 979 890 l 1,65,-1
 890 890 l 1,66,-1
 890 0 l 1,67,-1
 0 0 l 1,0,-1
EndSplineSet
Validated: 1
EndChar

StartChar: N
Encoding: 78 78 44
GlifName: N_
Width: 2849
GlyphClass: 1
Flags: W
LayerCount: 2
Fore
SplineSet
623 0 m 1,0,-1
 623 89 l 1,1,-1
 267 89 l 1,2,-1
 267 178 l 1,3,-1
 0 178 l 1,4,-1
 0 801 l 1,5,-1
 89 801 l 1,6,-1
 89 1958 l 1,7,-1
 178 1958 l 1,8,-1
 178 2582 l 1,9,-1
 445 2582 l 1,10,-1
 445 2671 l 1,11,-1
 890 2671 l 1,12,-1
 890 2760 l 1,13,-1
 1157 2760 l 1,14,-1
 1157 2582 l 1,15,-1
 1246 2582 l 1,16,-1
 1246 2404 l 1,17,-1
 1335 2404 l 1,18,-1
 1335 2226 l 1,19,-1
 1424 2226 l 1,20,-1
 1424 2048 l 1,21,-1
 1513 2048 l 1,22,-1
 1513 1869 l 1,23,-1
 1602 1869 l 1,24,-1
 1602 1691 l 1,25,-1
 1691 1691 l 1,26,-1
 1691 1513 l 1,27,-1
 1780 1513 l 1,28,-1
 1780 1691 l 1,29,-1
 1869 1691 l 1,30,-1
 1869 2137 l 1,31,-1
 1958 2137 l 1,32,-1
 1958 2582 l 1,33,-1
 2048 2582 l 1,34,-1
 2048 2760 l 1,35,-1
 2315 2760 l 1,36,-1
 2315 2671 l 1,37,-1
 2493 2671 l 1,38,-1
 2493 2582 l 1,39,-1
 2671 2582 l 1,40,-1
 2671 2493 l 1,41,-1
 2760 2493 l 1,42,-1
 2760 2137 l 1,43,-1
 2671 2137 l 1,44,-1
 2671 1602 l 1,45,-1
 2582 1602 l 1,46,-1
 2582 1068 l 1,47,-1
 2493 1068 l 1,48,-1
 2493 534 l 1,49,-1
 2404 534 l 1,50,-1
 2404 267 l 1,51,-1
 2226 267 l 1,52,-1
 2226 178 l 1,53,-1
 1958 178 l 1,54,-1
 1958 89 l 1,55,-1
 1691 89 l 1,56,-1
 1691 0 l 1,57,-1
 1513 0 l 1,58,-1
 1513 178 l 1,59,-1
 1424 178 l 1,60,-1
 1424 534 l 1,61,-1
 1335 534 l 1,62,-1
 1335 801 l 1,63,-1
 1246 801 l 1,64,-1
 1246 1068 l 1,65,-1
 1157 1068 l 1,66,-1
 1157 1424 l 1,67,-1
 1068 1424 l 1,68,-1
 1068 1691 l 1,69,-1
 979 1691 l 1,70,-1
 979 1068 l 1,71,-1
 890 1068 l 1,72,-1
 890 356 l 1,73,-1
 801 356 l 1,74,-1
 801 0 l 1,75,-1
 623 0 l 1,0,-1
EndSplineSet
Validated: 1
EndChar

StartChar: O
Encoding: 79 79 45
GlifName: O_
Width: 2226
GlyphClass: 1
Flags: W
LayerCount: 2
Fore
SplineSet
1157 979 m 1,0,-1
 1157 1068 l 1,1,-1
 1246 1068 l 1,2,-1
 1246 1157 l 1,3,-1
 1335 1157 l 1,4,-1
 1335 1424 l 1,5,-1
 1246 1424 l 1,6,-1
 1246 1513 l 1,7,-1
 1157 1513 l 1,8,-1
 1157 1602 l 1,9,-1
 1068 1602 l 1,10,-1
 1068 1513 l 1,11,-1
 979 1513 l 1,12,-1
 979 1424 l 1,13,-1
 890 1424 l 1,14,-1
 890 1157 l 1,15,-1
 979 1157 l 1,16,-1
 979 1068 l 1,17,-1
 1068 1068 l 1,18,-1
 1068 979 l 1,19,-1
 1157 979 l 1,0,-1
623 0 m 1,20,-1
 623 89 l 1,21,-1
 534 89 l 1,22,-1
 534 178 l 1,23,-1
 445 178 l 1,24,-1
 445 267 l 1,25,-1
 356 267 l 1,26,-1
 356 356 l 1,27,-1
 267 356 l 1,28,-1
 267 445 l 1,29,-1
 178 445 l 1,30,-1
 178 534 l 1,31,-1
 89 534 l 1,32,-1
 89 623 l 1,33,-1
 0 623 l 1,34,-1
 0 1424 l 1,35,-1
 89 1424 l 1,36,-1
 89 1958 l 1,37,-1
 178 1958 l 1,38,-1
 178 2048 l 1,39,-1
 267 2048 l 1,40,-1
 267 2137 l 1,41,-1
 356 2137 l 1,42,-1
 356 2226 l 1,43,-1
 445 2226 l 1,44,-1
 445 2315 l 1,45,-1
 534 2315 l 1,46,-1
 534 2404 l 1,47,-1
 623 2404 l 1,48,-1
 623 2493 l 1,49,-1
 1513 2493 l 1,50,-1
 1513 2404 l 1,51,-1
 1602 2404 l 1,52,-1
 1602 2315 l 1,53,-1
 1691 2315 l 1,54,-1
 1691 2226 l 1,55,-1
 1780 2226 l 1,56,-1
 1780 2137 l 1,57,-1
 1869 2137 l 1,58,-1
 1869 2048 l 1,59,-1
 1958 2048 l 1,60,-1
 1958 1958 l 1,61,-1
 2048 1958 l 1,62,-1
 2048 1335 l 1,63,-1
 2137 1335 l 1,64,-1
 2137 623 l 1,65,-1
 2048 623 l 1,66,-1
 2048 534 l 1,67,-1
 1958 534 l 1,68,-1
 1958 445 l 1,69,-1
 1869 445 l 1,70,-1
 1869 356 l 1,71,-1
 1780 356 l 1,72,-1
 1780 267 l 1,73,-1
 1691 267 l 1,74,-1
 1691 178 l 1,75,-1
 1602 178 l 1,76,-1
 1602 89 l 1,77,-1
 1513 89 l 1,78,-1
 1513 0 l 1,79,-1
 623 0 l 1,20,-1
EndSplineSet
Validated: 1
EndChar

StartChar: P
Encoding: 80 80 46
GlifName: P_
Width: 1780
GlyphClass: 1
Flags: W
LayerCount: 2
Fore
SplineSet
890 1513 m 1,0,-1
 890 1602 l 1,1,-1
 979 1602 l 1,2,-1
 979 1691 l 1,3,-1
 1068 1691 l 1,4,-1
 1068 1780 l 1,5,-1
 801 1780 l 1,6,-1
 801 1513 l 1,7,-1
 890 1513 l 1,0,-1
0 0 m 1,8,-1
 0 2849 l 1,9,-1
 1246 2849 l 1,10,-1
 1246 2760 l 1,11,-1
 1335 2760 l 1,12,-1
 1335 2671 l 1,13,-1
 1424 2671 l 1,14,-1
 1424 2582 l 1,15,-1
 1513 2582 l 1,16,-1
 1513 2493 l 1,17,-1
 1602 2493 l 1,18,-1
 1602 2404 l 1,19,-1
 1691 2404 l 1,20,-1
 1691 1335 l 1,21,-1
 1602 1335 l 1,22,-1
 1602 1246 l 1,23,-1
 1513 1246 l 1,24,-1
 1513 1157 l 1,25,-1
 1424 1157 l 1,26,-1
 1424 1068 l 1,27,-1
 1335 1068 l 1,28,-1
 1335 979 l 1,29,-1
 1246 979 l 1,30,-1
 1246 890 l 1,31,-1
 1157 890 l 1,32,-1
 1157 801 l 1,33,-1
 1068 801 l 1,34,-1
 1068 712 l 1,35,-1
 801 712 l 1,36,-1
 801 0 l 1,37,-1
 0 0 l 1,8,-1
EndSplineSet
Validated: 1
EndChar

StartChar: Q
Encoding: 81 81 47
GlifName: Q_
Width: 2493
GlyphClass: 1
Flags: W
LayerCount: 2
Fore
SplineSet
1157 979 m 1,0,-1
 1157 1068 l 1,1,-1
 1246 1068 l 1,2,-1
 1246 1157 l 1,3,-1
 1335 1157 l 1,4,-1
 1335 1424 l 1,5,-1
 1246 1424 l 1,6,-1
 1246 1513 l 1,7,-1
 1157 1513 l 1,8,-1
 1157 1602 l 1,9,-1
 1068 1602 l 1,10,-1
 1068 1513 l 1,11,-1
 979 1513 l 1,12,-1
 979 1424 l 1,13,-1
 890 1424 l 1,14,-1
 890 1157 l 1,15,-1
 979 1157 l 1,16,-1
 979 1068 l 1,17,-1
 1068 1068 l 1,18,-1
 1068 979 l 1,19,-1
 1157 979 l 1,0,-1
1958 -178 m 1,20,-1
 1958 -89 l 1,21,-1
 1869 -89 l 1,22,-1
 1869 0 l 1,23,-1
 1780 0 l 1,24,-1
 1780 89 l 1,25,-1
 1691 89 l 1,26,-1
 1691 178 l 1,27,-1
 1602 178 l 1,28,-1
 1602 89 l 1,29,-1
 1513 89 l 1,30,-1
 1513 0 l 1,31,-1
 623 0 l 1,32,-1
 623 89 l 1,33,-1
 534 89 l 1,34,-1
 534 178 l 1,35,-1
 445 178 l 1,36,-1
 445 267 l 1,37,-1
 356 267 l 1,38,-1
 356 356 l 1,39,-1
 267 356 l 1,40,-1
 267 445 l 1,41,-1
 178 445 l 1,42,-1
 178 534 l 1,43,-1
 89 534 l 1,44,-1
 89 623 l 1,45,-1
 0 623 l 1,46,-1
 0 1424 l 1,47,-1
 89 1424 l 1,48,-1
 89 1958 l 1,49,-1
 178 1958 l 1,50,-1
 178 2048 l 1,51,-1
 267 2048 l 1,52,-1
 267 2137 l 1,53,-1
 356 2137 l 1,54,-1
 356 2226 l 1,55,-1
 445 2226 l 1,56,-1
 445 2315 l 1,57,-1
 534 2315 l 1,58,-1
 534 2404 l 1,59,-1
 623 2404 l 1,60,-1
 623 2493 l 1,61,-1
 1513 2493 l 1,62,-1
 1513 2404 l 1,63,-1
 1602 2404 l 1,64,-1
 1602 2315 l 1,65,-1
 1691 2315 l 1,66,-1
 1691 2226 l 1,67,-1
 1780 2226 l 1,68,-1
 1780 2137 l 1,69,-1
 1869 2137 l 1,70,-1
 1869 2048 l 1,71,-1
 1958 2048 l 1,72,-1
 1958 1958 l 1,73,-1
 2048 1958 l 1,74,-1
 2048 1691 l 1,75,-1
 2137 1691 l 1,76,-1
 2137 890 l 1,77,-1
 2048 890 l 1,78,-1
 2048 623 l 1,79,-1
 2137 623 l 1,80,-1
 2137 534 l 1,81,-1
 2226 534 l 1,82,-1
 2226 445 l 1,83,-1
 2315 445 l 1,84,-1
 2315 356 l 1,85,-1
 2404 356 l 1,86,-1
 2404 178 l 1,87,-1
 2315 178 l 1,88,-1
 2315 89 l 1,89,-1
 2226 89 l 1,90,-1
 2226 0 l 1,91,-1
 2137 0 l 1,92,-1
 2137 -89 l 1,93,-1
 2048 -89 l 1,94,-1
 2048 -178 l 1,95,-1
 1958 -178 l 1,20,-1
EndSplineSet
Validated: 1
EndChar

StartChar: R
Encoding: 82 82 48
GlifName: R_
Width: 1869
GlyphClass: 1
Flags: W
LayerCount: 2
Fore
SplineSet
890 1602 m 1,0,-1
 890 1691 l 1,1,-1
 979 1691 l 1,2,-1
 979 1780 l 1,3,-1
 1068 1780 l 1,4,-1
 1068 1869 l 1,5,-1
 801 1869 l 1,6,-1
 801 1602 l 1,7,-1
 890 1602 l 1,0,-1
1246 0 m 1,8,-1
 1246 89 l 1,9,-1
 1157 89 l 1,10,-1
 1157 178 l 1,11,-1
 1068 178 l 1,12,-1
 1068 356 l 1,13,-1
 979 356 l 1,14,-1
 979 534 l 1,15,-1
 890 534 l 1,16,-1
 890 712 l 1,17,-1
 801 712 l 1,18,-1
 801 89 l 1,19,-1
 0 89 l 1,20,-1
 0 2938 l 1,21,-1
 1246 2938 l 1,22,-1
 1246 2849 l 1,23,-1
 1335 2849 l 1,24,-1
 1335 2760 l 1,25,-1
 1424 2760 l 1,26,-1
 1424 2671 l 1,27,-1
 1513 2671 l 1,28,-1
 1513 2582 l 1,29,-1
 1602 2582 l 1,30,-1
 1602 2493 l 1,31,-1
 1691 2493 l 1,32,-1
 1691 1424 l 1,33,-1
 1602 1424 l 1,34,-1
 1602 1335 l 1,35,-1
 1513 1335 l 1,36,-1
 1513 1246 l 1,37,-1
 1424 1246 l 1,38,-1
 1424 1157 l 1,39,-1
 1513 1157 l 1,40,-1
 1513 979 l 1,41,-1
 1602 979 l 1,42,-1
 1602 801 l 1,43,-1
 1691 801 l 1,44,-1
 1691 712 l 1,45,-1
 1780 712 l 1,46,-1
 1780 445 l 1,47,-1
 1691 445 l 1,48,-1
 1691 356 l 1,49,-1
 1602 356 l 1,50,-1
 1602 267 l 1,51,-1
 1513 267 l 1,52,-1
 1513 178 l 1,53,-1
 1424 178 l 1,54,-1
 1424 89 l 1,55,-1
 1335 89 l 1,56,-1
 1335 0 l 1,57,-1
 1246 0 l 1,8,-1
EndSplineSet
Validated: 1
EndChar

StartChar: S
Encoding: 83 83 49
GlifName: S_
Width: 2048
GlyphClass: 1
Flags: W
LayerCount: 2
Fore
SplineSet
0 0 m 1,0,-1
 0 712 l 1,1,-1
 445 712 l 1,2,-1
 445 801 l 1,3,-1
 623 801 l 1,4,-1
 623 890 l 1,5,-1
 534 890 l 1,6,-1
 534 1068 l 1,7,-1
 445 1068 l 1,8,-1
 445 1157 l 1,9,-1
 356 1157 l 1,10,-1
 356 1246 l 1,11,-1
 267 1246 l 1,12,-1
 267 1424 l 1,13,-1
 178 1424 l 1,14,-1
 178 1513 l 1,15,-1
 89 1513 l 1,16,-1
 89 1602 l 1,17,-1
 178 1602 l 1,18,-1
 178 1780 l 1,19,-1
 267 1780 l 1,20,-1
 267 1958 l 1,21,-1
 356 1958 l 1,22,-1
 356 2048 l 1,23,-1
 445 2048 l 1,24,-1
 445 2226 l 1,25,-1
 534 2226 l 1,26,-1
 534 2404 l 1,27,-1
 623 2404 l 1,28,-1
 623 2493 l 1,29,-1
 1246 2493 l 1,30,-1
 1246 2582 l 1,31,-1
 1869 2582 l 1,32,-1
 1869 2137 l 1,33,-1
 1958 2137 l 1,34,-1
 1958 1691 l 1,35,-1
 1335 1691 l 1,36,-1
 1335 1602 l 1,37,-1
 1424 1602 l 1,38,-1
 1424 1424 l 1,39,-1
 1513 1424 l 1,40,-1
 1513 1335 l 1,41,-1
 1602 1335 l 1,42,-1
 1602 1246 l 1,43,-1
 1691 1246 l 1,44,-1
 1691 1157 l 1,45,-1
 1780 1157 l 1,46,-1
 1780 979 l 1,47,-1
 1869 979 l 1,48,-1
 1869 890 l 1,49,-1
 1958 890 l 1,50,-1
 1958 801 l 1,51,-1
 1869 801 l 1,52,-1
 1869 623 l 1,53,-1
 1780 623 l 1,54,-1
 1780 445 l 1,55,-1
 1691 445 l 1,56,-1
 1691 267 l 1,57,-1
 1602 267 l 1,58,-1
 1602 89 l 1,59,-1
 1513 89 l 1,60,-1
 1513 0 l 1,61,-1
 0 0 l 1,0,-1
EndSplineSet
Validated: 1
EndChar

StartChar: T
Encoding: 84 84 50
GlifName: T_
Width: 2582
GlyphClass: 1
Flags: W
LayerCount: 2
Fore
SplineSet
890 0 m 1,0,-1
 890 2137 l 1,1,-1
 0 2137 l 1,2,-1
 0 2938 l 1,3,-1
 2137 2938 l 1,4,-1
 2137 2849 l 1,5,-1
 2226 2849 l 1,6,-1
 2226 2760 l 1,7,-1
 2315 2760 l 1,8,-1
 2315 2671 l 1,9,-1
 2404 2671 l 1,10,-1
 2404 2582 l 1,11,-1
 2493 2582 l 1,12,-1
 2493 2137 l 1,13,-1
 1780 2137 l 1,14,-1
 1780 1780 l 1,15,-1
 1691 1780 l 1,16,-1
 1691 1068 l 1,17,-1
 1602 1068 l 1,18,-1
 1602 356 l 1,19,-1
 1513 356 l 1,20,-1
 1513 0 l 1,21,-1
 890 0 l 1,0,-1
EndSplineSet
Validated: 1
EndChar

StartChar: U
Encoding: 85 85 51
GlifName: U_
Width: 2315
GlyphClass: 1
Flags: W
LayerCount: 2
Fore
SplineSet
712 0 m 1,0,-1
 712 89 l 1,1,-1
 623 89 l 1,2,-1
 623 178 l 1,3,-1
 534 178 l 1,4,-1
 534 267 l 1,5,-1
 445 267 l 1,6,-1
 445 356 l 1,7,-1
 356 356 l 1,8,-1
 356 445 l 1,9,-1
 267 445 l 1,10,-1
 267 534 l 1,11,-1
 178 534 l 1,12,-1
 178 623 l 1,13,-1
 89 623 l 1,14,-1
 89 712 l 1,15,-1
 0 712 l 1,16,-1
 0 2849 l 1,17,-1
 979 2849 l 1,18,-1
 979 1958 l 1,19,-1
 890 1958 l 1,20,-1
 890 1157 l 1,21,-1
 1068 1157 l 1,22,-1
 1068 1246 l 1,23,-1
 1335 1246 l 1,24,-1
 1335 2582 l 1,25,-1
 1602 2582 l 1,26,-1
 1602 2671 l 1,27,-1
 1958 2671 l 1,28,-1
 1958 2760 l 1,29,-1
 2226 2760 l 1,30,-1
 2226 623 l 1,31,-1
 2137 623 l 1,32,-1
 2137 445 l 1,33,-1
 2048 445 l 1,34,-1
 2048 356 l 1,35,-1
 1958 356 l 1,36,-1
 1958 267 l 1,37,-1
 1869 267 l 1,38,-1
 1869 89 l 1,39,-1
 1780 89 l 1,40,-1
 1780 0 l 1,41,-1
 712 0 l 1,0,-1
EndSplineSet
Validated: 1
EndChar

StartChar: V
Encoding: 86 86 52
GlifName: V_
Width: 2849
GlyphClass: 1
Flags: W
LayerCount: 2
Fore
SplineSet
801 89 m 1,0,-1
 801 178 l 1,1,-1
 712 178 l 1,2,-1
 712 356 l 1,3,-1
 623 356 l 1,4,-1
 623 712 l 1,5,-1
 534 712 l 1,6,-1
 534 1068 l 1,7,-1
 445 1068 l 1,8,-1
 445 1335 l 1,9,-1
 356 1335 l 1,10,-1
 356 1691 l 1,11,-1
 267 1691 l 1,12,-1
 267 1958 l 1,13,-1
 178 1958 l 1,14,-1
 178 2315 l 1,15,-1
 89 2315 l 1,16,-1
 89 2671 l 1,17,-1
 0 2671 l 1,18,-1
 0 2849 l 1,19,-1
 267 2849 l 1,20,-1
 267 2760 l 1,21,-1
 623 2760 l 1,22,-1
 623 2671 l 1,23,-1
 979 2671 l 1,24,-1
 979 2582 l 1,25,-1
 1157 2582 l 1,26,-1
 1157 2226 l 1,27,-1
 1246 2226 l 1,28,-1
 1246 1869 l 1,29,-1
 1335 1869 l 1,30,-1
 1335 1513 l 1,31,-1
 1424 1513 l 1,32,-1
 1424 1780 l 1,33,-1
 1513 1780 l 1,34,-1
 1513 2048 l 1,35,-1
 1602 2048 l 1,36,-1
 1602 2315 l 1,37,-1
 1691 2315 l 1,38,-1
 1691 2493 l 1,39,-1
 1869 2493 l 1,40,-1
 1869 2404 l 1,41,-1
 2226 2404 l 1,42,-1
 2226 2315 l 1,43,-1
 2582 2315 l 1,44,-1
 2582 2226 l 1,45,-1
 2760 2226 l 1,46,-1
 2760 2048 l 1,47,-1
 2671 2048 l 1,48,-1
 2671 1869 l 1,49,-1
 2582 1869 l 1,50,-1
 2582 1691 l 1,51,-1
 2493 1691 l 1,52,-1
 2493 1424 l 1,53,-1
 2404 1424 l 1,54,-1
 2404 1335 l 1,55,-1
 2315 1335 l 1,56,-1
 2315 1157 l 1,57,-1
 2226 1157 l 1,58,-1
 2226 979 l 1,59,-1
 2137 979 l 1,60,-1
 2137 712 l 1,61,-1
 2048 712 l 1,62,-1
 2048 534 l 1,63,-1
 1958 534 l 1,64,-1
 1958 356 l 1,65,-1
 1869 356 l 1,66,-1
 1869 178 l 1,67,-1
 1246 178 l 1,68,-1
 1246 89 l 1,69,-1
 801 89 l 1,0,-1
EndSplineSet
Validated: 1
EndChar

StartChar: W
Encoding: 87 87 53
GlifName: W_
Width: 2760
GlyphClass: 1
Flags: W
LayerCount: 2
Fore
SplineSet
356 0 m 1,0,-1
 356 534 l 1,1,-1
 267 534 l 1,2,-1
 267 1068 l 1,3,-1
 178 1068 l 1,4,-1
 178 1602 l 1,5,-1
 89 1602 l 1,6,-1
 89 2137 l 1,7,-1
 0 2137 l 1,8,-1
 0 2849 l 1,9,-1
 979 2849 l 1,10,-1
 979 2315 l 1,11,-1
 1068 2315 l 1,12,-1
 1068 1691 l 1,13,-1
 1157 1691 l 1,14,-1
 1157 1780 l 1,15,-1
 1246 1780 l 1,16,-1
 1246 2048 l 1,17,-1
 1335 2048 l 1,18,-1
 1335 2137 l 1,19,-1
 1424 2137 l 1,20,-1
 1424 2048 l 1,21,-1
 1513 2048 l 1,22,-1
 1513 1780 l 1,23,-1
 1602 1780 l 1,24,-1
 1602 1513 l 1,25,-1
 1691 1513 l 1,26,-1
 1691 1869 l 1,27,-1
 1780 1869 l 1,28,-1
 1780 2315 l 1,29,-1
 1869 2315 l 1,30,-1
 1869 2849 l 1,31,-1
 2137 2849 l 1,32,-1
 2137 2760 l 1,33,-1
 2404 2760 l 1,34,-1
 2404 2671 l 1,35,-1
 2671 2671 l 1,36,-1
 2671 2226 l 1,37,-1
 2582 2226 l 1,38,-1
 2582 1780 l 1,39,-1
 2493 1780 l 1,40,-1
 2493 1424 l 1,41,-1
 2404 1424 l 1,42,-1
 2404 1068 l 1,43,-1
 2315 1068 l 1,44,-1
 2315 712 l 1,45,-1
 2226 712 l 1,46,-1
 2226 356 l 1,47,-1
 2137 356 l 1,48,-1
 2137 89 l 1,49,-1
 1602 89 l 1,50,-1
 1602 267 l 1,51,-1
 1513 267 l 1,52,-1
 1513 445 l 1,53,-1
 1424 445 l 1,54,-1
 1424 623 l 1,55,-1
 1335 623 l 1,56,-1
 1335 445 l 1,57,-1
 1246 445 l 1,58,-1
 1246 267 l 1,59,-1
 1157 267 l 1,60,-1
 1157 0 l 1,61,-1
 356 0 l 1,0,-1
EndSplineSet
Validated: 1
EndChar

StartChar: X
Encoding: 88 88 54
GlifName: X_
Width: 2849
GlyphClass: 1
Flags: W
LayerCount: 2
Fore
SplineSet
1691 0 m 1,0,-1
 1691 89 l 1,1,-1
 1602 89 l 1,2,-1
 1602 267 l 1,3,-1
 1513 267 l 1,4,-1
 1513 445 l 1,5,-1
 1424 445 l 1,6,-1
 1424 623 l 1,7,-1
 1335 623 l 1,8,-1
 1335 801 l 1,9,-1
 1246 801 l 1,10,-1
 1246 712 l 1,11,-1
 1157 712 l 1,12,-1
 1157 623 l 1,13,-1
 1068 623 l 1,14,-1
 1068 445 l 1,15,-1
 979 445 l 1,16,-1
 979 267 l 1,17,-1
 890 267 l 1,18,-1
 890 178 l 1,19,-1
 445 178 l 1,20,-1
 445 267 l 1,21,-1
 0 267 l 1,22,-1
 0 445 l 1,23,-1
 89 445 l 1,24,-1
 89 623 l 1,25,-1
 178 623 l 1,26,-1
 178 890 l 1,27,-1
 267 890 l 1,28,-1
 267 1157 l 1,29,-1
 356 1157 l 1,30,-1
 356 1335 l 1,31,-1
 445 1335 l 1,32,-1
 445 1602 l 1,33,-1
 356 1602 l 1,34,-1
 356 1780 l 1,35,-1
 267 1780 l 1,36,-1
 267 2048 l 1,37,-1
 178 2048 l 1,38,-1
 178 2315 l 1,39,-1
 89 2315 l 1,40,-1
 89 2493 l 1,41,-1
 0 2493 l 1,42,-1
 0 2671 l 1,43,-1
 267 2671 l 1,44,-1
 267 2760 l 1,45,-1
 623 2760 l 1,46,-1
 623 2849 l 1,47,-1
 979 2849 l 1,48,-1
 979 2938 l 1,49,-1
 1157 2938 l 1,50,-1
 1157 2671 l 1,51,-1
 1246 2671 l 1,52,-1
 1246 2315 l 1,53,-1
 1335 2315 l 1,54,-1
 1335 1958 l 1,55,-1
 1424 1958 l 1,56,-1
 1424 2048 l 1,57,-1
 1513 2048 l 1,58,-1
 1513 2226 l 1,59,-1
 1602 2226 l 1,60,-1
 1602 2404 l 1,61,-1
 1691 2404 l 1,62,-1
 1691 2582 l 1,63,-1
 1780 2582 l 1,64,-1
 1780 2760 l 1,65,-1
 1869 2760 l 1,66,-1
 1869 2849 l 1,67,-1
 2048 2849 l 1,68,-1
 2048 2760 l 1,69,-1
 2226 2760 l 1,70,-1
 2226 2671 l 1,71,-1
 2404 2671 l 1,72,-1
 2404 2582 l 1,73,-1
 2582 2582 l 1,74,-1
 2582 2493 l 1,75,-1
 2760 2493 l 1,76,-1
 2760 2315 l 1,77,-1
 2671 2315 l 1,78,-1
 2671 2137 l 1,79,-1
 2582 2137 l 1,80,-1
 2582 1958 l 1,81,-1
 2493 1958 l 1,82,-1
 2493 1780 l 1,83,-1
 2404 1780 l 1,84,-1
 2404 1602 l 1,85,-1
 2315 1602 l 1,86,-1
 2315 1424 l 1,87,-1
 2226 1424 l 1,88,-1
 2226 1246 l 1,89,-1
 2137 1246 l 1,90,-1
 2137 1068 l 1,91,-1
 2226 1068 l 1,92,-1
 2226 890 l 1,93,-1
 2315 890 l 1,94,-1
 2315 712 l 1,95,-1
 2404 712 l 1,96,-1
 2404 623 l 1,97,-1
 2493 623 l 1,98,-1
 2493 445 l 1,99,-1
 2582 445 l 1,100,-1
 2582 356 l 1,101,-1
 2493 356 l 1,102,-1
 2493 267 l 1,103,-1
 2315 267 l 1,104,-1
 2315 178 l 1,105,-1
 2137 178 l 1,106,-1
 2137 89 l 1,107,-1
 1958 89 l 1,108,-1
 1958 0 l 1,109,-1
 1691 0 l 1,0,-1
EndSplineSet
Validated: 1
EndChar

StartChar: Y
Encoding: 89 89 55
GlifName: Y_
Width: 2404
GlyphClass: 1
Flags: W
LayerCount: 2
Fore
SplineSet
712 0 m 1,0,-1
 712 1068 l 5,1,-1
 623 1068 l 5,2,-1
 623 1246 l 5,3,-1
 534 1246 l 5,4,-1
 534 1424 l 5,5,-1
 445 1424 l 5,6,-1
 445 1513 l 5,7,-1
 356 1513 l 5,8,-1
 356 1691 l 5,9,-1
 267 1691 l 5,10,-1
 267 1869 l 5,11,-1
 178 1869 l 5,12,-1
 178 1958 l 5,13,-1
 89 1958 l 5,14,-1
 89 2137 l 5,15,-1
 0 2137 l 5,16,-1
 0 2493 l 5,17,-1
 267 2493 l 5,18,-1
 267 2582 l 5,19,-1
 534 2582 l 5,20,-1
 534 2671 l 5,21,-1
 890 2671 l 5,22,-1
 890 2315 l 5,23,-1
 979 2315 l 5,24,-1
 979 2137 l 5,25,-1
 1068 2137 l 5,26,-1
 1068 1869 l 5,27,-1
 1157 1869 l 5,28,-1
 1157 2048 l 5,29,-1
 1246 2048 l 5,30,-1
 1246 2226 l 5,31,-1
 1335 2226 l 5,32,-1
 1335 2404 l 5,33,-1
 1424 2404 l 5,34,-1
 1424 2582 l 5,35,-1
 1602 2582 l 5,36,-1
 1602 2671 l 5,37,-1
 1958 2671 l 5,38,-1
 1958 2760 l 5,39,-1
 2315 2760 l 5,40,-1
 2315 2493 l 5,41,-1
 2226 2493 l 5,42,-1
 2226 2226 l 5,43,-1
 2137 2226 l 5,44,-1
 2137 2048 l 5,45,-1
 2048 2048 l 5,46,-1
 2048 1780 l 5,47,-1
 1958 1780 l 5,48,-1
 1958 1602 l 5,49,-1
 1869 1602 l 5,50,-1
 1869 1424 l 5,51,-1
 1780 1424 l 5,52,-1
 1780 1157 l 5,53,-1
 1691 1157 l 5,54,-1
 1691 979 l 5,55,-1
 1602 979 l 5,56,-1
 1602 356 l 1,57,-1
 1691 356 l 1,58,-1
 1691 0 l 1,59,-1
 712 0 l 1,0,-1
EndSplineSet
Validated: 1
EndChar

StartChar: Z
Encoding: 90 90 56
GlifName: Z_
Width: 1869
GlyphClass: 1
Flags: W
LayerCount: 2
Fore
SplineSet
0 0 m 1,0,-1
 0 712 l 1,1,-1
 89 712 l 1,2,-1
 89 890 l 1,3,-1
 178 890 l 1,4,-1
 178 979 l 1,5,-1
 267 979 l 1,6,-1
 267 1157 l 1,7,-1
 356 1157 l 1,8,-1
 356 1246 l 1,9,-1
 445 1246 l 1,10,-1
 445 1335 l 1,11,-1
 534 1335 l 1,12,-1
 534 1513 l 1,13,-1
 623 1513 l 1,14,-1
 623 1602 l 1,15,-1
 712 1602 l 1,16,-1
 712 1780 l 1,17,-1
 0 1780 l 1,18,-1
 0 2582 l 1,19,-1
 979 2582 l 1,20,-1
 979 2671 l 1,21,-1
 1780 2671 l 1,22,-1
 1780 1780 l 1,23,-1
 1691 1780 l 1,24,-1
 1691 1602 l 1,25,-1
 1602 1602 l 1,26,-1
 1602 1513 l 1,27,-1
 1513 1513 l 1,28,-1
 1513 1424 l 1,29,-1
 1424 1424 l 1,30,-1
 1424 1246 l 1,31,-1
 1335 1246 l 1,32,-1
 1335 1157 l 1,33,-1
 1246 1157 l 1,34,-1
 1246 1068 l 1,35,-1
 1157 1068 l 1,36,-1
 1157 890 l 1,37,-1
 1424 890 l 1,38,-1
 1424 801 l 1,39,-1
 1780 801 l 1,40,-1
 1780 0 l 1,41,-1
 0 0 l 1,0,-1
EndSplineSet
Validated: 1
EndChar

StartChar: underscore
Encoding: 95 95 57
GlifName: underscore
Width: 2137
GlyphClass: 1
Flags: W
LayerCount: 2
Fore
SplineSet
0 0 m 1,0,-1
 0 445 l 1,1,-1
 2048 445 l 1,2,-1
 2048 0 l 1,3,-1
 0 0 l 1,0,-1
EndSplineSet
Validated: 1
EndChar

StartChar: grave
Encoding: 96 96 58
GlifName: grave
Width: 979
GlyphClass: 1
Flags: W
LayerCount: 2
Fore
SplineSet
712 2137 m 1,0,-1
 712 2226 l 1,1,-1
 534 2226 l 1,2,-1
 534 2315 l 1,3,-1
 356 2315 l 1,4,-1
 356 2404 l 1,5,-1
 178 2404 l 1,6,-1
 178 2493 l 1,7,-1
 0 2493 l 1,8,-1
 0 2671 l 1,9,-1
 89 2671 l 1,10,-1
 89 2760 l 1,11,-1
 178 2760 l 1,12,-1
 178 2849 l 1,13,-1
 356 2849 l 1,14,-1
 356 2938 l 1,15,-1
 445 2938 l 1,16,-1
 445 2849 l 1,17,-1
 534 2849 l 1,18,-1
 534 2760 l 1,19,-1
 623 2760 l 1,20,-1
 623 2671 l 1,21,-1
 712 2671 l 1,22,-1
 712 2493 l 1,23,-1
 801 2493 l 1,24,-1
 801 2404 l 1,25,-1
 890 2404 l 1,26,-1
 890 2226 l 1,27,-1
 801 2226 l 1,28,-1
 801 2137 l 1,29,-1
 712 2137 l 1,0,-1
EndSplineSet
Validated: 1
EndChar

StartChar: a
Encoding: 97 97 59
GlifName: a
Width: 2048
GlyphClass: 1
Flags: W
LayerCount: 2
Fore
SplineSet
1157 801 m 1,0,-1
 1157 979 l 1,1,-1
 1068 979 l 1,2,-1
 1068 890 l 1,3,-1
 979 890 l 1,4,-1
 979 801 l 1,5,-1
 1157 801 l 1,0,-1
1335 0 m 1,6,-1
 1335 178 l 1,7,-1
 1246 178 l 1,8,-1
 1246 356 l 1,9,-1
 1157 356 l 1,10,-1
 1157 445 l 1,11,-1
 890 445 l 1,12,-1
 890 356 l 1,13,-1
 801 356 l 1,14,-1
 801 178 l 1,15,-1
 712 178 l 1,16,-1
 712 89 l 1,17,-1
 534 89 l 1,18,-1
 534 178 l 1,19,-1
 356 178 l 1,20,-1
 356 267 l 1,21,-1
 178 267 l 1,22,-1
 178 356 l 1,23,-1
 89 356 l 1,24,-1
 89 445 l 1,25,-1
 0 445 l 1,26,-1
 0 623 l 1,27,-1
 89 623 l 1,28,-1
 89 712 l 1,29,-1
 178 712 l 1,30,-1
 178 890 l 1,31,-1
 267 890 l 1,32,-1
 267 1068 l 1,33,-1
 356 1068 l 1,34,-1
 356 1246 l 1,35,-1
 445 1246 l 1,36,-1
 445 1424 l 1,37,-1
 534 1424 l 1,38,-1
 534 1602 l 1,39,-1
 623 1602 l 1,40,-1
 623 1780 l 1,41,-1
 712 1780 l 1,42,-1
 712 1869 l 1,43,-1
 979 1869 l 1,44,-1
 979 1780 l 1,45,-1
 1335 1780 l 1,46,-1
 1335 1691 l 1,47,-1
 1602 1691 l 1,48,-1
 1602 1424 l 1,49,-1
 1691 1424 l 1,50,-1
 1691 1068 l 1,51,-1
 1780 1068 l 1,52,-1
 1780 623 l 1,53,-1
 1869 623 l 1,54,-1
 1869 267 l 1,55,-1
 1958 267 l 1,56,-1
 1958 0 l 1,57,-1
 1335 0 l 1,6,-1
EndSplineSet
Validated: 1
EndChar

StartChar: b
Encoding: 98 98 60
GlifName: b
Width: 1869
GlyphClass: 1
Flags: W
LayerCount: 2
Fore
SplineSet
979 445 m 1,0,-1
 979 534 l 1,1,-1
 1157 534 l 1,2,-1
 1157 623 l 1,3,-1
 1068 623 l 1,4,-1
 1068 801 l 1,5,-1
 890 801 l 1,6,-1
 890 712 l 1,7,-1
 623 712 l 1,8,-1
 623 623 l 1,9,-1
 712 623 l 1,10,-1
 712 445 l 1,11,-1
 979 445 l 1,0,-1
801 979 m 1,12,-1
 801 1068 l 1,13,-1
 979 1068 l 1,14,-1
 979 1246 l 1,15,-1
 890 1246 l 1,16,-1
 890 1335 l 1,17,-1
 801 1335 l 1,18,-1
 801 1246 l 1,19,-1
 623 1246 l 1,20,-1
 623 1157 l 1,21,-1
 534 1157 l 1,22,-1
 534 979 l 1,23,-1
 801 979 l 1,12,-1
178 0 m 1,24,-1
 178 445 l 1,25,-1
 89 445 l 1,26,-1
 89 1157 l 1,27,-1
 0 1157 l 1,28,-1
 0 1513 l 1,29,-1
 178 1513 l 1,30,-1
 178 1602 l 1,31,-1
 445 1602 l 1,32,-1
 445 1691 l 1,33,-1
 623 1691 l 1,34,-1
 623 1780 l 1,35,-1
 890 1780 l 1,36,-1
 890 1869 l 1,37,-1
 1068 1869 l 1,38,-1
 1068 1780 l 1,39,-1
 1246 1780 l 1,40,-1
 1246 1691 l 1,41,-1
 1335 1691 l 1,42,-1
 1335 1602 l 1,43,-1
 1424 1602 l 1,44,-1
 1424 1513 l 1,45,-1
 1602 1513 l 1,46,-1
 1602 1424 l 1,47,-1
 1691 1424 l 1,48,-1
 1691 1246 l 1,49,-1
 1602 1246 l 1,50,-1
 1602 1068 l 1,51,-1
 1513 1068 l 1,52,-1
 1513 890 l 1,53,-1
 1602 890 l 1,54,-1
 1602 712 l 1,55,-1
 1691 712 l 1,56,-1
 1691 534 l 1,57,-1
 1780 534 l 1,58,-1
 1780 267 l 1,59,-1
 1691 267 l 1,60,-1
 1691 178 l 1,61,-1
 1513 178 l 1,62,-1
 1513 89 l 1,63,-1
 1246 89 l 1,64,-1
 1246 0 l 1,65,-1
 178 0 l 1,24,-1
EndSplineSet
Validated: 1
EndChar

StartChar: c
Encoding: 99 99 61
GlifName: c
Width: 1691
GlyphClass: 1
Flags: W
LayerCount: 2
Fore
SplineSet
534 0 m 1,0,-1
 534 89 l 1,1,-1
 267 89 l 1,2,-1
 267 267 l 1,3,-1
 178 267 l 1,4,-1
 178 445 l 1,5,-1
 89 445 l 1,6,-1
 89 623 l 1,7,-1
 0 623 l 1,8,-1
 0 890 l 1,9,-1
 89 890 l 1,10,-1
 89 1246 l 1,11,-1
 178 1246 l 1,12,-1
 178 1424 l 1,13,-1
 267 1424 l 1,14,-1
 267 1513 l 1,15,-1
 445 1513 l 1,16,-1
 445 1602 l 1,17,-1
 623 1602 l 1,18,-1
 623 1691 l 1,19,-1
 801 1691 l 1,20,-1
 801 1602 l 1,21,-1
 1068 1602 l 1,22,-1
 1068 1513 l 1,23,-1
 1424 1513 l 1,24,-1
 1424 1424 l 1,25,-1
 1513 1424 l 1,26,-1
 1513 1246 l 1,27,-1
 1424 1246 l 1,28,-1
 1424 1157 l 1,29,-1
 1335 1157 l 1,30,-1
 1335 1068 l 1,31,-1
 979 1068 l 1,32,-1
 979 1157 l 1,33,-1
 712 1157 l 1,34,-1
 712 1068 l 1,35,-1
 623 1068 l 1,36,-1
 623 801 l 1,37,-1
 534 801 l 1,38,-1
 534 623 l 1,39,-1
 623 623 l 1,40,-1
 623 534 l 1,41,-1
 801 534 l 1,42,-1
 801 445 l 1,43,-1
 1157 445 l 1,44,-1
 1157 534 l 1,45,-1
 1602 534 l 1,46,-1
 1602 356 l 1,47,-1
 1513 356 l 1,48,-1
 1513 89 l 1,49,-1
 1068 89 l 1,50,-1
 1068 0 l 1,51,-1
 534 0 l 1,0,-1
EndSplineSet
Validated: 1
EndChar

StartChar: d
Encoding: 100 100 62
GlifName: d
Width: 1602
GlyphClass: 1
Flags: W
LayerCount: 2
Fore
SplineSet
712 712 m 1,0,-1
 712 801 l 1,1,-1
 801 801 l 1,2,-1
 801 890 l 1,3,-1
 890 890 l 1,4,-1
 890 1068 l 1,5,-1
 801 1068 l 1,6,-1
 801 1157 l 1,7,-1
 712 1157 l 1,8,-1
 712 1246 l 1,9,-1
 623 1246 l 1,10,-1
 623 712 l 1,11,-1
 712 712 l 1,0,-1
0 0 m 1,12,-1
 0 2048 l 1,13,-1
 979 2048 l 1,14,-1
 979 1958 l 1,15,-1
 1068 1958 l 1,16,-1
 1068 1869 l 1,17,-1
 1157 1869 l 1,18,-1
 1157 1780 l 1,19,-1
 1246 1780 l 1,20,-1
 1246 1691 l 1,21,-1
 1335 1691 l 1,22,-1
 1335 1602 l 1,23,-1
 1424 1602 l 1,24,-1
 1424 1513 l 1,25,-1
 1513 1513 l 1,26,-1
 1513 445 l 1,27,-1
 1424 445 l 1,28,-1
 1424 356 l 1,29,-1
 1335 356 l 1,30,-1
 1335 267 l 1,31,-1
 1246 267 l 1,32,-1
 1246 178 l 1,33,-1
 1157 178 l 1,34,-1
 1157 89 l 1,35,-1
 1068 89 l 1,36,-1
 1068 0 l 1,37,-1
 0 0 l 1,12,-1
EndSplineSet
Validated: 1
EndChar

StartChar: e
Encoding: 101 101 63
GlifName: e
Width: 1691
GlyphClass: 1
Flags: W
LayerCount: 2
Fore
SplineSet
267 0 m 1,0,-1
 267 356 l 1,1,-1
 178 356 l 1,2,-1
 178 890 l 1,3,-1
 89 890 l 1,4,-1
 89 1424 l 1,5,-1
 0 1424 l 1,6,-1
 0 1780 l 1,7,-1
 445 1780 l 1,8,-1
 445 1869 l 1,9,-1
 712 1869 l 1,10,-1
 712 1958 l 1,11,-1
 979 1958 l 1,12,-1
 979 2048 l 1,13,-1
 1246 2048 l 1,14,-1
 1246 1424 l 1,15,-1
 979 1424 l 1,16,-1
 979 1335 l 1,17,-1
 1335 1335 l 1,18,-1
 1335 801 l 1,19,-1
 1068 801 l 1,20,-1
 1068 712 l 1,21,-1
 890 712 l 1,22,-1
 890 623 l 1,23,-1
 1068 623 l 1,24,-1
 1068 712 l 1,25,-1
 1335 712 l 1,26,-1
 1335 801 l 1,27,-1
 1602 801 l 1,28,-1
 1602 178 l 1,29,-1
 1246 178 l 1,30,-1
 1246 89 l 1,31,-1
 801 89 l 1,32,-1
 801 0 l 1,33,-1
 267 0 l 1,0,-1
EndSplineSet
Validated: 5
EndChar

StartChar: f
Encoding: 102 102 64
GlifName: f
Width: 1513
GlyphClass: 1
Flags: W
LayerCount: 2
Fore
SplineSet
356 0 m 1,0,-1
 356 267 l 1,1,-1
 267 267 l 1,2,-1
 267 623 l 1,3,-1
 178 623 l 1,4,-1
 178 979 l 1,5,-1
 89 979 l 1,6,-1
 89 1335 l 1,7,-1
 0 1335 l 1,8,-1
 0 1691 l 1,9,-1
 178 1691 l 1,10,-1
 178 1780 l 1,11,-1
 445 1780 l 1,12,-1
 445 1869 l 1,13,-1
 801 1869 l 1,14,-1
 801 1958 l 1,15,-1
 1068 1958 l 1,16,-1
 1068 2048 l 1,17,-1
 1246 2048 l 1,18,-1
 1246 1869 l 1,19,-1
 1335 1869 l 1,20,-1
 1335 1602 l 1,21,-1
 1424 1602 l 1,22,-1
 1424 1424 l 1,23,-1
 1246 1424 l 1,24,-1
 1246 1335 l 1,25,-1
 979 1335 l 1,26,-1
 979 1246 l 1,27,-1
 712 1246 l 1,28,-1
 712 1157 l 1,29,-1
 623 1157 l 1,30,-1
 623 1068 l 1,31,-1
 712 1068 l 1,32,-1
 712 979 l 1,33,-1
 801 979 l 1,34,-1
 801 1068 l 1,35,-1
 1068 1068 l 1,36,-1
 1068 1157 l 1,37,-1
 1246 1157 l 1,38,-1
 1246 979 l 1,39,-1
 1335 979 l 1,40,-1
 1335 801 l 1,41,-1
 1424 801 l 1,42,-1
 1424 623 l 1,43,-1
 1068 623 l 1,44,-1
 1068 534 l 1,45,-1
 890 534 l 1,46,-1
 890 0 l 1,47,-1
 356 0 l 1,0,-1
EndSplineSet
Validated: 1
EndChar

StartChar: g
Encoding: 103 103 65
GlifName: g
Width: 1958
GlyphClass: 1
Flags: W
LayerCount: 2
Fore
SplineSet
445 0 m 1,0,-1
 445 89 l 1,1,-1
 356 89 l 1,2,-1
 356 178 l 1,3,-1
 178 178 l 1,4,-1
 178 267 l 1,5,-1
 89 267 l 1,6,-1
 89 356 l 1,7,-1
 0 356 l 1,8,-1
 0 1602 l 1,9,-1
 89 1602 l 1,10,-1
 89 1691 l 1,11,-1
 178 1691 l 1,12,-1
 178 1780 l 1,13,-1
 267 1780 l 1,14,-1
 267 1869 l 1,15,-1
 356 1869 l 1,16,-1
 356 1958 l 1,17,-1
 445 1958 l 1,18,-1
 445 2048 l 1,19,-1
 1513 2048 l 1,20,-1
 1513 1958 l 1,21,-1
 1602 1958 l 1,22,-1
 1602 1869 l 1,23,-1
 1691 1869 l 1,24,-1
 1691 1780 l 1,25,-1
 1780 1780 l 1,26,-1
 1780 1691 l 1,27,-1
 1869 1691 l 1,28,-1
 1869 1602 l 1,29,-1
 1780 1602 l 1,30,-1
 1780 1513 l 1,31,-1
 1691 1513 l 1,32,-1
 1691 1424 l 1,33,-1
 1602 1424 l 1,34,-1
 1602 1335 l 1,35,-1
 1157 1335 l 1,36,-1
 1157 1424 l 1,37,-1
 801 1424 l 1,38,-1
 801 1335 l 1,39,-1
 712 1335 l 1,40,-1
 712 1068 l 1,41,-1
 623 1068 l 1,42,-1
 623 801 l 1,43,-1
 534 801 l 1,44,-1
 534 712 l 1,45,-1
 623 712 l 1,46,-1
 623 623 l 1,47,-1
 890 623 l 1,48,-1
 890 534 l 1,49,-1
 1068 534 l 1,50,-1
 1068 445 l 1,51,-1
 1246 445 l 1,52,-1
 1246 534 l 1,53,-1
 1157 534 l 1,54,-1
 1157 623 l 1,55,-1
 979 623 l 1,56,-1
 979 712 l 1,57,-1
 801 712 l 1,58,-1
 801 890 l 1,59,-1
 890 890 l 1,60,-1
 890 979 l 1,61,-1
 979 979 l 1,62,-1
 979 1157 l 1,63,-1
 1246 1157 l 1,64,-1
 1246 1068 l 1,65,-1
 1602 1068 l 1,66,-1
 1602 979 l 1,67,-1
 1869 979 l 1,68,-1
 1869 534 l 1,69,-1
 1780 534 l 1,70,-1
 1780 0 l 1,71,-1
 445 0 l 1,0,-1
EndSplineSet
Validated: 1
EndChar

StartChar: h
Encoding: 104 104 66
GlifName: h
Width: 1780
GlyphClass: 1
Flags: W
LayerCount: 2
Fore
SplineSet
0 0 m 1,0,-1
 0 1068 l 1,1,-1
 89 1068 l 1,2,-1
 89 2048 l 1,3,-1
 801 2048 l 1,4,-1
 801 1602 l 1,5,-1
 712 1602 l 1,6,-1
 712 1335 l 1,7,-1
 1068 1335 l 1,8,-1
 1068 1869 l 1,9,-1
 1424 1869 l 1,10,-1
 1424 1958 l 1,11,-1
 1691 1958 l 1,12,-1
 1691 0 l 1,13,-1
 1068 0 l 1,14,-1
 1068 712 l 1,15,-1
 801 712 l 1,16,-1
 801 534 l 1,17,-1
 712 534 l 1,18,-1
 712 178 l 1,19,-1
 623 178 l 1,20,-1
 623 0 l 1,21,-1
 0 0 l 1,0,-1
EndSplineSet
Validated: 1
EndChar

StartChar: i
Encoding: 105 105 67
GlifName: i
Width: 801
GlyphClass: 1
Flags: W
LayerCount: 2
Fore
SplineSet
0 0 m 1,0,-1
 0 2048 l 1,1,-1
 623 2048 l 1,2,-1
 623 1068 l 1,3,-1
 712 1068 l 1,4,-1
 712 0 l 1,5,-1
 0 0 l 1,0,-1
EndSplineSet
Validated: 1
EndChar

StartChar: j
Encoding: 106 106 68
GlifName: j
Width: 1691
GlyphClass: 1
Flags: W
LayerCount: 2
Fore
SplineSet
267 0 m 1,0,-1
 267 89 l 1,1,-1
 178 89 l 1,2,-1
 178 178 l 1,3,-1
 89 178 l 1,4,-1
 89 267 l 1,5,-1
 0 267 l 1,6,-1
 0 445 l 1,7,-1
 178 445 l 1,8,-1
 178 534 l 1,9,-1
 356 534 l 1,10,-1
 356 623 l 1,11,-1
 801 623 l 1,12,-1
 801 1246 l 1,13,-1
 890 1246 l 1,14,-1
 890 1958 l 1,15,-1
 1246 1958 l 1,16,-1
 1246 2048 l 1,17,-1
 1602 2048 l 1,18,-1
 1602 1246 l 1,19,-1
 1513 1246 l 1,20,-1
 1513 445 l 1,21,-1
 1424 445 l 1,22,-1
 1424 356 l 1,23,-1
 1335 356 l 1,24,-1
 1335 267 l 1,25,-1
 1246 267 l 1,26,-1
 1246 178 l 1,27,-1
 1157 178 l 1,28,-1
 1157 89 l 1,29,-1
 1068 89 l 1,30,-1
 1068 0 l 1,31,-1
 267 0 l 1,0,-1
EndSplineSet
Validated: 1
EndChar

StartChar: k
Encoding: 107 107 69
GlifName: k
Width: 1780
GlyphClass: 1
Flags: W
LayerCount: 2
Fore
SplineSet
0 0 m 1,0,-1
 0 2048 l 1,1,-1
 712 2048 l 1,2,-1
 712 1691 l 1,3,-1
 801 1691 l 1,4,-1
 801 1780 l 1,5,-1
 890 1780 l 1,6,-1
 890 1869 l 1,7,-1
 979 1869 l 1,8,-1
 979 1958 l 1,9,-1
 1068 1958 l 1,10,-1
 1068 2048 l 1,11,-1
 1157 2048 l 1,12,-1
 1157 1958 l 1,13,-1
 1246 1958 l 1,14,-1
 1246 1869 l 1,15,-1
 1335 1869 l 1,16,-1
 1335 1780 l 1,17,-1
 1424 1780 l 1,18,-1
 1424 1691 l 1,19,-1
 1513 1691 l 1,20,-1
 1513 1602 l 1,21,-1
 1602 1602 l 1,22,-1
 1602 1513 l 1,23,-1
 1691 1513 l 1,24,-1
 1691 1424 l 1,25,-1
 1602 1424 l 1,26,-1
 1602 1335 l 1,27,-1
 1513 1335 l 1,28,-1
 1513 1246 l 1,29,-1
 1424 1246 l 1,30,-1
 1424 1157 l 1,31,-1
 1335 1157 l 1,32,-1
 1335 1068 l 1,33,-1
 1246 1068 l 1,34,-1
 1246 890 l 1,35,-1
 1335 890 l 1,36,-1
 1335 801 l 1,37,-1
 1424 801 l 1,38,-1
 1424 712 l 1,39,-1
 1513 712 l 1,40,-1
 1513 623 l 1,41,-1
 1602 623 l 1,42,-1
 1602 534 l 1,43,-1
 1691 534 l 1,44,-1
 1691 445 l 1,45,-1
 1602 445 l 1,46,-1
 1602 356 l 1,47,-1
 1513 356 l 1,48,-1
 1513 267 l 1,49,-1
 1424 267 l 1,50,-1
 1424 178 l 1,51,-1
 1335 178 l 1,52,-1
 1335 89 l 1,53,-1
 1246 89 l 1,54,-1
 1246 0 l 1,55,-1
 1068 0 l 1,56,-1
 1068 89 l 1,57,-1
 979 89 l 1,58,-1
 979 178 l 1,59,-1
 890 178 l 1,60,-1
 890 267 l 1,61,-1
 801 267 l 1,62,-1
 801 356 l 1,63,-1
 712 356 l 1,64,-1
 712 0 l 1,65,-1
 0 0 l 1,0,-1
EndSplineSet
Validated: 1
EndChar

StartChar: l
Encoding: 108 108 70
GlifName: l
Width: 1424
GlyphClass: 1
Flags: W
LayerCount: 2
Fore
SplineSet
0 0 m 1,0,-1
 0 2048 l 1,1,-1
 623 2048 l 1,2,-1
 623 1068 l 1,3,-1
 712 1068 l 1,4,-1
 712 623 l 1,5,-1
 1335 623 l 1,6,-1
 1335 0 l 1,7,-1
 0 0 l 1,0,-1
EndSplineSet
Validated: 1
EndChar

StartChar: m
Encoding: 109 109 71
GlifName: m
Width: 1780
GlyphClass: 1
Flags: W
LayerCount: 2
Fore
SplineSet
0 0 m 1,0,-1
 0 1068 l 1,1,-1
 89 1068 l 1,2,-1
 89 1958 l 1,3,-1
 534 1958 l 1,4,-1
 534 1691 l 1,5,-1
 623 1691 l 1,6,-1
 623 1424 l 1,7,-1
 712 1424 l 1,8,-1
 712 1691 l 1,9,-1
 801 1691 l 1,10,-1
 801 1869 l 1,11,-1
 1068 1869 l 1,12,-1
 1068 1958 l 1,13,-1
 1335 1958 l 1,14,-1
 1335 1691 l 1,15,-1
 1424 1691 l 1,16,-1
 1424 1335 l 1,17,-1
 1513 1335 l 1,18,-1
 1513 979 l 1,19,-1
 1602 979 l 1,20,-1
 1602 623 l 1,21,-1
 1691 623 l 1,22,-1
 1691 356 l 1,23,-1
 1602 356 l 1,24,-1
 1602 267 l 1,25,-1
 1513 267 l 1,26,-1
 1513 178 l 1,27,-1
 1246 178 l 1,28,-1
 1246 89 l 1,29,-1
 1157 89 l 1,30,-1
 1157 178 l 1,31,-1
 1068 178 l 1,32,-1
 1068 356 l 1,33,-1
 979 356 l 1,34,-1
 979 534 l 1,35,-1
 890 534 l 1,36,-1
 890 267 l 1,37,-1
 801 267 l 1,38,-1
 801 89 l 1,39,-1
 712 89 l 1,40,-1
 712 178 l 1,41,-1
 623 178 l 1,42,-1
 623 267 l 1,43,-1
 534 267 l 1,44,-1
 534 0 l 1,45,-1
 0 0 l 1,0,-1
EndSplineSet
Validated: 1
EndChar

StartChar: n
Encoding: 110 110 72
GlifName: n
Width: 2137
GlyphClass: 1
Flags: W
LayerCount: 2
Fore
SplineSet
356 0 m 1,0,-1
 356 89 l 1,1,-1
 0 89 l 1,2,-1
 0 623 l 1,3,-1
 89 623 l 1,4,-1
 89 1513 l 1,5,-1
 178 1513 l 1,6,-1
 178 1958 l 1,7,-1
 445 1958 l 1,8,-1
 445 2048 l 1,9,-1
 801 2048 l 1,10,-1
 801 1958 l 1,11,-1
 890 1958 l 1,12,-1
 890 1869 l 1,13,-1
 979 1869 l 1,14,-1
 979 1691 l 1,15,-1
 1068 1691 l 1,16,-1
 1068 1513 l 1,17,-1
 1157 1513 l 1,18,-1
 1157 1424 l 1,19,-1
 1246 1424 l 1,20,-1
 1246 1691 l 1,21,-1
 1335 1691 l 1,22,-1
 1335 2137 l 1,23,-1
 1602 2137 l 1,24,-1
 1602 2048 l 1,25,-1
 1780 2048 l 1,26,-1
 1780 1958 l 1,27,-1
 1958 1958 l 1,28,-1
 1958 1068 l 1,29,-1
 2048 1068 l 1,30,-1
 2048 89 l 1,31,-1
 1691 89 l 1,32,-1
 1691 0 l 1,33,-1
 1246 0 l 1,34,-1
 1246 89 l 1,35,-1
 1157 89 l 1,36,-1
 1157 267 l 1,37,-1
 1068 267 l 1,38,-1
 1068 356 l 1,39,-1
 979 356 l 1,40,-1
 979 445 l 1,41,-1
 890 445 l 1,42,-1
 890 534 l 1,43,-1
 801 534 l 1,44,-1
 801 178 l 1,45,-1
 712 178 l 1,46,-1
 712 0 l 1,47,-1
 356 0 l 1,0,-1
EndSplineSet
Validated: 1
EndChar

StartChar: o
Encoding: 111 111 73
GlifName: o
Width: 1780
GlyphClass: 1
Flags: W
LayerCount: 2
Fore
SplineSet
890 712 m 1,0,-1
 890 801 l 1,1,-1
 979 801 l 1,2,-1
 979 890 l 1,3,-1
 1068 890 l 1,4,-1
 1068 979 l 1,5,-1
 979 979 l 1,6,-1
 979 1068 l 1,7,-1
 890 1068 l 1,8,-1
 890 1157 l 1,9,-1
 801 1157 l 1,10,-1
 801 1068 l 1,11,-1
 712 1068 l 1,12,-1
 712 979 l 1,13,-1
 623 979 l 1,14,-1
 623 890 l 1,15,-1
 712 890 l 1,16,-1
 712 801 l 1,17,-1
 801 801 l 1,18,-1
 801 712 l 1,19,-1
 890 712 l 1,0,-1
356 0 m 1,20,-1
 356 89 l 1,21,-1
 267 89 l 1,22,-1
 267 178 l 1,23,-1
 178 178 l 1,24,-1
 178 267 l 1,25,-1
 89 267 l 1,26,-1
 89 356 l 1,27,-1
 0 356 l 1,28,-1
 0 979 l 1,29,-1
 89 979 l 1,30,-1
 89 1602 l 1,31,-1
 178 1602 l 1,32,-1
 178 1691 l 1,33,-1
 267 1691 l 1,34,-1
 267 1780 l 1,35,-1
 445 1780 l 1,36,-1
 445 1869 l 1,37,-1
 534 1869 l 1,38,-1
 534 1958 l 1,39,-1
 1246 1958 l 1,40,-1
 1246 1869 l 1,41,-1
 1335 1869 l 1,42,-1
 1335 1780 l 1,43,-1
 1424 1780 l 1,44,-1
 1424 1691 l 1,45,-1
 1513 1691 l 1,46,-1
 1513 1602 l 1,47,-1
 1602 1602 l 1,48,-1
 1602 1513 l 1,49,-1
 1691 1513 l 1,50,-1
 1691 445 l 1,51,-1
 1602 445 l 1,52,-1
 1602 356 l 1,53,-1
 1513 356 l 1,54,-1
 1513 267 l 1,55,-1
 1424 267 l 1,56,-1
 1424 178 l 1,57,-1
 1335 178 l 1,58,-1
 1335 89 l 1,59,-1
 1246 89 l 1,60,-1
 1246 0 l 1,61,-1
 356 0 l 1,20,-1
EndSplineSet
Validated: 1
EndChar

StartChar: p
Encoding: 112 112 74
GlifName: p
Width: 1513
GlyphClass: 1
Flags: W
LayerCount: 2
Fore
SplineSet
712 1068 m 1,0,-1
 712 1157 l 1,1,-1
 801 1157 l 1,2,-1
 801 1246 l 1,3,-1
 890 1246 l 1,4,-1
 890 1335 l 1,5,-1
 623 1335 l 1,6,-1
 623 1068 l 1,7,-1
 712 1068 l 1,0,-1
0 0 m 1,8,-1
 0 2048 l 1,9,-1
 979 2048 l 1,10,-1
 979 1958 l 1,11,-1
 1068 1958 l 1,12,-1
 1068 1869 l 1,13,-1
 1157 1869 l 1,14,-1
 1157 1780 l 1,15,-1
 1246 1780 l 1,16,-1
 1246 1691 l 1,17,-1
 1335 1691 l 1,18,-1
 1335 1602 l 1,19,-1
 1424 1602 l 1,20,-1
 1424 890 l 1,21,-1
 1335 890 l 1,22,-1
 1335 801 l 1,23,-1
 1246 801 l 1,24,-1
 1246 712 l 1,25,-1
 1157 712 l 1,26,-1
 1157 623 l 1,27,-1
 1068 623 l 1,28,-1
 1068 534 l 1,29,-1
 979 534 l 1,30,-1
 979 445 l 1,31,-1
 890 445 l 1,32,-1
 890 356 l 1,33,-1
 623 356 l 1,34,-1
 623 0 l 1,35,-1
 0 0 l 1,8,-1
EndSplineSet
Validated: 1
EndChar

StartChar: q
Encoding: 113 113 75
GlifName: q
Width: 2048
GlyphClass: 1
Flags: W
LayerCount: 2
Fore
SplineSet
890 712 m 1,0,-1
 890 801 l 1,1,-1
 979 801 l 1,2,-1
 979 890 l 1,3,-1
 1068 890 l 1,4,-1
 1068 979 l 1,5,-1
 979 979 l 1,6,-1
 979 1068 l 1,7,-1
 890 1068 l 1,8,-1
 890 1157 l 1,9,-1
 801 1157 l 1,10,-1
 801 1068 l 1,11,-1
 712 1068 l 1,12,-1
 712 979 l 1,13,-1
 623 979 l 1,14,-1
 623 890 l 1,15,-1
 712 890 l 1,16,-1
 712 801 l 1,17,-1
 801 801 l 1,18,-1
 801 712 l 1,19,-1
 890 712 l 1,0,-1
356 0 m 1,20,-1
 356 89 l 1,21,-1
 267 89 l 1,22,-1
 267 178 l 1,23,-1
 178 178 l 1,24,-1
 178 267 l 1,25,-1
 89 267 l 1,26,-1
 89 356 l 1,27,-1
 0 356 l 1,28,-1
 0 979 l 1,29,-1
 89 979 l 1,30,-1
 89 1602 l 1,31,-1
 178 1602 l 1,32,-1
 178 1691 l 1,33,-1
 267 1691 l 1,34,-1
 267 1780 l 1,35,-1
 445 1780 l 1,36,-1
 445 1869 l 1,37,-1
 534 1869 l 1,38,-1
 534 1958 l 1,39,-1
 1246 1958 l 1,40,-1
 1246 1869 l 1,41,-1
 1335 1869 l 1,42,-1
 1335 1780 l 1,43,-1
 1424 1780 l 1,44,-1
 1424 1691 l 1,45,-1
 1513 1691 l 1,46,-1
 1513 1602 l 1,47,-1
 1602 1602 l 1,48,-1
 1602 1513 l 1,49,-1
 1691 1513 l 1,50,-1
 1691 1246 l 1,51,-1
 1780 1246 l 1,52,-1
 1780 890 l 1,53,-1
 1691 890 l 1,54,-1
 1691 623 l 1,55,-1
 1780 623 l 1,56,-1
 1780 534 l 1,57,-1
 1869 534 l 1,58,-1
 1869 445 l 1,59,-1
 1958 445 l 1,60,-1
 1958 356 l 1,61,-1
 1869 356 l 1,62,-1
 1869 267 l 1,63,-1
 1780 267 l 1,64,-1
 1780 178 l 1,65,-1
 1691 178 l 1,66,-1
 1691 89 l 1,67,-1
 1602 89 l 1,68,-1
 1602 0 l 1,69,-1
 1513 0 l 1,70,-1
 1513 89 l 1,71,-1
 1424 89 l 1,72,-1
 1424 178 l 1,73,-1
 1335 178 l 1,74,-1
 1335 89 l 1,75,-1
 1246 89 l 1,76,-1
 1246 0 l 1,77,-1
 356 0 l 1,20,-1
EndSplineSet
Validated: 1
EndChar

StartChar: r
Encoding: 114 114 76
GlifName: r
Width: 1780
GlyphClass: 1
Flags: W
LayerCount: 2
Fore
SplineSet
801 1068 m 1,0,-1
 801 1157 l 1,1,-1
 890 1157 l 1,2,-1
 890 1246 l 1,3,-1
 979 1246 l 1,4,-1
 979 1335 l 1,5,-1
 712 1335 l 1,6,-1
 712 1068 l 1,7,-1
 801 1068 l 1,0,-1
0 0 m 1,8,-1
 0 2048 l 1,9,-1
 1068 2048 l 1,10,-1
 1068 1958 l 1,11,-1
 1157 1958 l 1,12,-1
 1157 1869 l 1,13,-1
 1246 1869 l 1,14,-1
 1246 1780 l 1,15,-1
 1335 1780 l 1,16,-1
 1335 1691 l 1,17,-1
 1424 1691 l 1,18,-1
 1424 1602 l 1,19,-1
 1513 1602 l 1,20,-1
 1513 1513 l 1,21,-1
 1602 1513 l 1,22,-1
 1602 1068 l 1,23,-1
 1513 1068 l 1,24,-1
 1513 979 l 1,25,-1
 1424 979 l 1,26,-1
 1424 890 l 1,27,-1
 1335 890 l 1,28,-1
 1335 801 l 1,29,-1
 1246 801 l 1,30,-1
 1246 712 l 1,31,-1
 1335 712 l 1,32,-1
 1335 623 l 1,33,-1
 1424 623 l 1,34,-1
 1424 534 l 1,35,-1
 1513 534 l 1,36,-1
 1513 445 l 1,37,-1
 1602 445 l 1,38,-1
 1602 356 l 1,39,-1
 1691 356 l 1,40,-1
 1691 267 l 1,41,-1
 1602 267 l 1,42,-1
 1602 178 l 1,43,-1
 1424 178 l 1,44,-1
 1424 89 l 1,45,-1
 1246 89 l 1,46,-1
 1246 0 l 1,47,-1
 890 0 l 1,48,-1
 890 178 l 1,49,-1
 801 178 l 1,50,-1
 801 356 l 1,51,-1
 712 356 l 1,52,-1
 712 0 l 1,53,-1
 0 0 l 1,8,-1
EndSplineSet
Validated: 1
EndChar

StartChar: s
Encoding: 115 115 77
GlifName: s
Width: 1513
GlyphClass: 1
Flags: W
LayerCount: 2
Fore
SplineSet
0 0 m 1,0,-1
 0 178 l 1,1,-1
 89 178 l 1,2,-1
 89 356 l 1,3,-1
 178 356 l 1,4,-1
 178 534 l 1,5,-1
 267 534 l 1,6,-1
 267 623 l 1,7,-1
 623 623 l 1,8,-1
 623 801 l 1,9,-1
 534 801 l 1,10,-1
 534 890 l 1,11,-1
 445 890 l 1,12,-1
 445 979 l 1,13,-1
 356 979 l 1,14,-1
 356 1068 l 1,15,-1
 267 1068 l 1,16,-1
 267 1157 l 1,17,-1
 178 1157 l 1,18,-1
 178 1246 l 1,19,-1
 89 1246 l 1,20,-1
 89 1335 l 1,21,-1
 0 1335 l 1,22,-1
 0 1513 l 1,23,-1
 89 1513 l 1,24,-1
 89 1602 l 1,25,-1
 178 1602 l 1,26,-1
 178 1691 l 1,27,-1
 267 1691 l 1,28,-1
 267 1780 l 1,29,-1
 356 1780 l 1,30,-1
 356 1869 l 1,31,-1
 445 1869 l 1,32,-1
 445 1958 l 1,33,-1
 534 1958 l 1,34,-1
 534 2048 l 1,35,-1
 623 2048 l 1,36,-1
 623 2137 l 1,37,-1
 1424 2137 l 1,38,-1
 1424 1958 l 1,39,-1
 1335 1958 l 1,40,-1
 1335 1780 l 1,41,-1
 1246 1780 l 1,42,-1
 1246 1602 l 1,43,-1
 1157 1602 l 1,44,-1
 1157 1513 l 1,45,-1
 890 1513 l 1,46,-1
 890 1424 l 1,47,-1
 979 1424 l 1,48,-1
 979 1335 l 1,49,-1
 1068 1335 l 1,50,-1
 1068 1246 l 1,51,-1
 1157 1246 l 1,52,-1
 1157 1157 l 1,53,-1
 1246 1157 l 1,54,-1
 1246 1068 l 1,55,-1
 1335 1068 l 1,56,-1
 1335 979 l 1,57,-1
 1424 979 l 1,58,-1
 1424 623 l 1,59,-1
 1335 623 l 1,60,-1
 1335 445 l 1,61,-1
 1246 445 l 1,62,-1
 1246 267 l 1,63,-1
 1157 267 l 1,64,-1
 1157 89 l 1,65,-1
 1068 89 l 1,66,-1
 1068 0 l 1,67,-1
 0 0 l 1,0,-1
EndSplineSet
Validated: 1
EndChar

StartChar: t
Encoding: 116 116 78
GlifName: t
Width: 1958
GlyphClass: 1
Flags: W
LayerCount: 2
Fore
SplineSet
534 0 m 1,0,-1
 534 1513 l 1,1,-1
 0 1513 l 1,2,-1
 0 2137 l 1,3,-1
 1602 2137 l 1,4,-1
 1602 2048 l 1,5,-1
 1691 2048 l 1,6,-1
 1691 1958 l 1,7,-1
 1780 1958 l 1,8,-1
 1780 1869 l 1,9,-1
 1869 1869 l 1,10,-1
 1869 1513 l 1,11,-1
 1335 1513 l 1,12,-1
 1335 801 l 1,13,-1
 1424 801 l 1,14,-1
 1424 89 l 1,15,-1
 1068 89 l 1,16,-1
 1068 0 l 1,17,-1
 534 0 l 1,0,-1
EndSplineSet
Validated: 1
EndChar

StartChar: u
Encoding: 117 117 79
GlifName: u
Width: 1424
GlyphClass: 1
Flags: W
LayerCount: 2
Fore
SplineSet
267 89 m 1,0,-1
 267 178 l 1,1,-1
 178 178 l 1,2,-1
 178 267 l 1,3,-1
 89 267 l 1,4,-1
 89 356 l 1,5,-1
 0 356 l 1,6,-1
 0 1958 l 1,7,-1
 623 1958 l 1,8,-1
 623 890 l 1,9,-1
 712 890 l 1,10,-1
 712 1780 l 1,11,-1
 1335 1780 l 1,12,-1
 1335 534 l 1,13,-1
 1246 534 l 1,14,-1
 1246 445 l 1,15,-1
 1157 445 l 1,16,-1
 1157 356 l 1,17,-1
 1068 356 l 1,18,-1
 1068 267 l 1,19,-1
 979 267 l 1,20,-1
 979 178 l 1,21,-1
 623 178 l 1,22,-1
 623 89 l 1,23,-1
 267 89 l 1,0,-1
EndSplineSet
Validated: 1
EndChar

StartChar: v
Encoding: 118 118 80
GlifName: v
Width: 2048
GlyphClass: 1
Flags: W
LayerCount: 2
Fore
SplineSet
890 0 m 1,0,-1
 890 89 l 1,1,-1
 356 89 l 1,2,-1
 356 267 l 1,3,-1
 267 267 l 1,4,-1
 267 623 l 1,5,-1
 178 623 l 1,6,-1
 178 1068 l 1,7,-1
 89 1068 l 1,8,-1
 89 1424 l 1,9,-1
 0 1424 l 1,10,-1
 0 1691 l 1,11,-1
 267 1691 l 1,12,-1
 267 1780 l 1,13,-1
 712 1780 l 1,14,-1
 712 1602 l 1,15,-1
 801 1602 l 1,16,-1
 801 1335 l 1,17,-1
 890 1335 l 1,18,-1
 890 1157 l 1,19,-1
 979 1157 l 1,20,-1
 979 979 l 1,21,-1
 1068 979 l 1,22,-1
 1068 1335 l 1,23,-1
 1157 1335 l 1,24,-1
 1157 1691 l 1,25,-1
 1246 1691 l 1,26,-1
 1246 1780 l 1,27,-1
 1513 1780 l 1,28,-1
 1513 1691 l 1,29,-1
 1691 1691 l 1,30,-1
 1691 1602 l 1,31,-1
 1869 1602 l 1,32,-1
 1869 1513 l 1,33,-1
 1958 1513 l 1,34,-1
 1958 1335 l 1,35,-1
 1869 1335 l 1,36,-1
 1869 1068 l 1,37,-1
 1780 1068 l 1,38,-1
 1780 890 l 1,39,-1
 1691 890 l 1,40,-1
 1691 623 l 1,41,-1
 1602 623 l 1,42,-1
 1602 356 l 1,43,-1
 1513 356 l 1,44,-1
 1513 178 l 1,45,-1
 1424 178 l 1,46,-1
 1424 0 l 1,47,-1
 890 0 l 1,0,-1
EndSplineSet
Validated: 1
EndChar

StartChar: w
Encoding: 119 119 81
GlifName: w
Width: 2048
GlyphClass: 1
Flags: W
LayerCount: 2
Fore
SplineSet
267 0 m 1,0,-1
 267 356 l 1,1,-1
 178 356 l 1,2,-1
 178 979 l 1,3,-1
 89 979 l 1,4,-1
 89 1691 l 1,5,-1
 0 1691 l 1,6,-1
 0 1958 l 1,7,-1
 623 1958 l 1,8,-1
 623 1691 l 1,9,-1
 712 1691 l 1,10,-1
 712 1157 l 1,11,-1
 801 1157 l 1,12,-1
 801 1335 l 1,13,-1
 890 1335 l 1,14,-1
 890 1513 l 1,15,-1
 979 1513 l 1,16,-1
 979 1335 l 1,17,-1
 1068 1335 l 1,18,-1
 1068 1157 l 1,19,-1
 1157 1157 l 1,20,-1
 1157 1246 l 1,21,-1
 1246 1246 l 1,22,-1
 1246 1780 l 1,23,-1
 1335 1780 l 1,24,-1
 1335 2048 l 1,25,-1
 1691 2048 l 1,26,-1
 1691 1958 l 1,27,-1
 1958 1958 l 1,28,-1
 1958 1424 l 1,29,-1
 1869 1424 l 1,30,-1
 1869 534 l 1,31,-1
 1780 534 l 1,32,-1
 1780 89 l 1,33,-1
 1157 89 l 1,34,-1
 1157 267 l 1,35,-1
 1068 267 l 1,36,-1
 1068 356 l 1,37,-1
 979 356 l 1,38,-1
 979 178 l 1,39,-1
 890 178 l 1,40,-1
 890 0 l 1,41,-1
 267 0 l 1,0,-1
EndSplineSet
Validated: 1
EndChar

StartChar: x
Encoding: 120 120 82
GlifName: x
Width: 1869
GlyphClass: 1
Flags: W
LayerCount: 2
Fore
SplineSet
445 0 m 1,0,-1
 445 89 l 1,1,-1
 178 89 l 1,2,-1
 178 178 l 1,3,-1
 89 178 l 1,4,-1
 89 356 l 1,5,-1
 178 356 l 1,6,-1
 178 623 l 1,7,-1
 267 623 l 1,8,-1
 267 979 l 1,9,-1
 356 979 l 1,10,-1
 356 1157 l 1,11,-1
 267 1157 l 1,12,-1
 267 1335 l 1,13,-1
 178 1335 l 1,14,-1
 178 1513 l 1,15,-1
 89 1513 l 1,16,-1
 89 1691 l 1,17,-1
 0 1691 l 1,18,-1
 0 1869 l 1,19,-1
 89 1869 l 1,20,-1
 89 1958 l 1,21,-1
 267 1958 l 1,22,-1
 267 2048 l 1,23,-1
 445 2048 l 1,24,-1
 445 2137 l 1,25,-1
 623 2137 l 1,26,-1
 623 2048 l 1,27,-1
 712 2048 l 1,28,-1
 712 1869 l 1,29,-1
 801 1869 l 1,30,-1
 801 1691 l 1,31,-1
 890 1691 l 1,32,-1
 890 1513 l 1,33,-1
 979 1513 l 1,34,-1
 979 1691 l 1,35,-1
 1068 1691 l 1,36,-1
 1068 1869 l 1,37,-1
 1157 1869 l 1,38,-1
 1157 2048 l 1,39,-1
 1335 2048 l 1,40,-1
 1335 1958 l 1,41,-1
 1691 1958 l 1,42,-1
 1691 1869 l 1,43,-1
 1780 1869 l 1,44,-1
 1780 1602 l 1,45,-1
 1691 1602 l 1,46,-1
 1691 1513 l 1,47,-1
 1602 1513 l 1,48,-1
 1602 1335 l 1,49,-1
 1513 1335 l 1,50,-1
 1513 1246 l 1,51,-1
 1424 1246 l 1,52,-1
 1424 1068 l 1,53,-1
 1335 1068 l 1,54,-1
 1335 979 l 1,55,-1
 1424 979 l 1,56,-1
 1424 801 l 1,57,-1
 1513 801 l 1,58,-1
 1513 712 l 1,59,-1
 1602 712 l 1,60,-1
 1602 534 l 1,61,-1
 1691 534 l 1,62,-1
 1691 445 l 1,63,-1
 1780 445 l 1,64,-1
 1780 178 l 1,65,-1
 1691 178 l 1,66,-1
 1691 89 l 1,67,-1
 1335 89 l 1,68,-1
 1335 0 l 1,69,-1
 1157 0 l 1,70,-1
 1157 89 l 1,71,-1
 1068 89 l 1,72,-1
 1068 267 l 1,73,-1
 979 267 l 1,74,-1
 979 445 l 1,75,-1
 890 445 l 1,76,-1
 890 267 l 1,77,-1
 801 267 l 1,78,-1
 801 89 l 1,79,-1
 712 89 l 1,80,-1
 712 0 l 1,81,-1
 445 0 l 1,0,-1
EndSplineSet
Validated: 1
EndChar

StartChar: y
Encoding: 121 121 83
GlifName: y
Width: 2137
GlyphClass: 1
Flags: W
LayerCount: 2
Fore
SplineSet
534 0 m 1,0,-1
 534 623 l 1,1,-1
 445 623 l 1,2,-1
 445 801 l 1,3,-1
 356 801 l 1,4,-1
 356 979 l 1,5,-1
 267 979 l 1,6,-1
 267 1157 l 1,7,-1
 178 1157 l 1,8,-1
 178 1424 l 1,9,-1
 89 1424 l 1,10,-1
 89 1602 l 1,11,-1
 0 1602 l 1,12,-1
 0 1780 l 1,13,-1
 178 1780 l 1,14,-1
 178 1869 l 1,15,-1
 445 1869 l 1,16,-1
 445 1958 l 1,17,-1
 712 1958 l 1,18,-1
 712 2048 l 1,19,-1
 890 2048 l 1,20,-1
 890 1424 l 1,21,-1
 979 1424 l 1,22,-1
 979 1602 l 1,23,-1
 1068 1602 l 1,24,-1
 1068 1780 l 1,25,-1
 1157 1780 l 1,26,-1
 1157 1958 l 1,27,-1
 1246 1958 l 1,28,-1
 1246 2048 l 1,29,-1
 1335 2048 l 1,30,-1
 1335 1958 l 1,31,-1
 1513 1958 l 1,32,-1
 1513 1869 l 1,33,-1
 1691 1869 l 1,34,-1
 1691 1780 l 1,35,-1
 1780 1780 l 1,36,-1
 1780 1691 l 1,37,-1
 1958 1691 l 1,38,-1
 1958 1602 l 1,39,-1
 2048 1602 l 1,40,-1
 2048 1513 l 1,41,-1
 1958 1513 l 1,42,-1
 1958 1424 l 1,43,-1
 1869 1424 l 1,44,-1
 1869 1335 l 1,45,-1
 1780 1335 l 1,46,-1
 1780 1246 l 1,47,-1
 1691 1246 l 1,48,-1
 1691 1068 l 1,49,-1
 1602 1068 l 1,50,-1
 1602 979 l 1,51,-1
 1513 979 l 1,52,-1
 1513 890 l 1,53,-1
 1424 890 l 1,54,-1
 1424 801 l 1,55,-1
 1335 801 l 1,56,-1
 1335 356 l 1,57,-1
 1424 356 l 1,58,-1
 1424 0 l 1,59,-1
 534 0 l 1,0,-1
EndSplineSet
Validated: 1
EndChar

StartChar: z
Encoding: 122 122 84
GlifName: z
Width: 1602
GlyphClass: 1
Flags: W
LayerCount: 2
Fore
SplineSet
0 0 m 1,0,-1
 0 356 l 1,1,-1
 89 356 l 1,2,-1
 89 445 l 1,3,-1
 178 445 l 1,4,-1
 178 534 l 1,5,-1
 267 534 l 1,6,-1
 267 623 l 1,7,-1
 356 623 l 1,8,-1
 356 801 l 1,9,-1
 445 801 l 1,10,-1
 445 890 l 1,11,-1
 534 890 l 1,12,-1
 534 979 l 1,13,-1
 623 979 l 1,14,-1
 623 1068 l 1,15,-1
 712 1068 l 1,16,-1
 712 1157 l 1,17,-1
 801 1157 l 1,18,-1
 801 1335 l 1,19,-1
 534 1335 l 1,20,-1
 534 1246 l 1,21,-1
 0 1246 l 1,22,-1
 0 2048 l 1,23,-1
 1513 2048 l 1,24,-1
 1513 1246 l 1,25,-1
 1424 1246 l 1,26,-1
 1424 1157 l 1,27,-1
 1335 1157 l 1,28,-1
 1335 979 l 1,29,-1
 1246 979 l 1,30,-1
 1246 890 l 1,31,-1
 1157 890 l 1,32,-1
 1157 801 l 1,33,-1
 1068 801 l 1,34,-1
 1068 712 l 1,35,-1
 979 712 l 1,36,-1
 979 623 l 1,37,-1
 1157 623 l 1,38,-1
 1157 712 l 1,39,-1
 1513 712 l 1,40,-1
 1513 0 l 1,41,-1
 0 0 l 1,0,-1
EndSplineSet
Validated: 1
EndChar

StartChar: braceleft
Encoding: 123 123 85
GlifName: braceleft
Width: 2404
GlyphClass: 1
Flags: W
LayerCount: 2
Fore
SplineSet
712 -356 m 1,0,-1
 712 -267 l 1,1,-1
 623 -267 l 1,2,-1
 623 -178 l 1,3,-1
 534 -178 l 1,4,-1
 534 -89 l 1,5,-1
 445 -89 l 1,6,-1
 445 979 l 1,7,-1
 356 979 l 1,8,-1
 356 1068 l 1,9,-1
 267 1068 l 1,10,-1
 267 1157 l 1,11,-1
 178 1157 l 1,12,-1
 178 1246 l 1,13,-1
 89 1246 l 1,14,-1
 89 1335 l 1,15,-1
 0 1335 l 1,16,-1
 0 1424 l 1,17,-1
 89 1424 l 1,18,-1
 89 1513 l 1,19,-1
 178 1513 l 1,20,-1
 178 1602 l 1,21,-1
 267 1602 l 1,22,-1
 267 1780 l 1,23,-1
 356 1780 l 1,24,-1
 356 1869 l 1,25,-1
 445 1869 l 1,26,-1
 445 3027 l 1,27,-1
 534 3027 l 1,28,-1
 534 3116 l 1,29,-1
 623 3116 l 1,30,-1
 623 3205 l 1,31,-1
 712 3205 l 1,32,-1
 712 3294 l 1,33,-1
 2048 3294 l 1,34,-1
 2048 3027 l 1,35,-1
 1958 3027 l 1,36,-1
 1958 2849 l 1,37,-1
 1869 2849 l 1,38,-1
 1869 2671 l 1,39,-1
 1335 2671 l 1,40,-1
 1335 2582 l 1,41,-1
 1246 2582 l 1,42,-1
 1246 2493 l 1,43,-1
 1157 2493 l 1,44,-1
 1157 1691 l 1,45,-1
 979 1691 l 1,46,-1
 979 1513 l 1,47,-1
 890 1513 l 1,48,-1
 890 1424 l 1,49,-1
 801 1424 l 1,50,-1
 801 1335 l 1,51,-1
 890 1335 l 1,52,-1
 890 1157 l 1,53,-1
 1068 1157 l 1,54,-1
 1068 534 l 1,55,-1
 1157 534 l 1,56,-1
 1157 445 l 1,57,-1
 1246 445 l 1,58,-1
 1246 356 l 1,59,-1
 2315 356 l 1,60,-1
 2315 0 l 1,61,-1
 2226 0 l 1,62,-1
 2226 -356 l 1,63,-1
 712 -356 l 1,0,-1
EndSplineSet
Validated: 1
EndChar

StartChar: bar
Encoding: 124 124 86
GlifName: bar
Width: 801
GlyphClass: 1
Flags: W
LayerCount: 2
Fore
SplineSet
0 -89 m 5,0,-1
 0 2938 l 5,1,-1
 712 2938 l 5,2,-1
 712 -89 l 5,3,-1
 0 -89 l 5,0,-1
EndSplineSet
Validated: 1
EndChar

StartChar: braceright
Encoding: 125 125 87
GlifName: braceright
Width: 2404
GlyphClass: 1
Flags: W
LayerCount: 2
Fore
SplineSet
243 2841 m 1025,0,-1
267 3027 m 1,1,-1
 356 3027 l 1025,2,-1
89 -356 m 1,3,-1
 89 0 l 1,4,-1
 0 0 l 1,5,-1
 0 356 l 1,6,-1
 1068 356 l 1,7,-1
 1068 445 l 1,8,-1
 1157 445 l 1,9,-1
 1157 534 l 1,10,-1
 1246 534 l 1,11,-1
 1246 1157 l 1,12,-1
 1424 1157 l 1,13,-1
 1424 1335 l 1,14,-1
 1513 1335 l 1,15,-1
 1513 1424 l 1,16,-1
 1424 1424 l 1,17,-1
 1424 1513 l 1,18,-1
 1335 1513 l 1,19,-1
 1335 1691 l 1,20,-1
 1157 1691 l 1,21,-1
 1157 2493 l 1,22,-1
 1068 2493 l 1,23,-1
 1068 2582 l 1,24,-1
 979 2582 l 1,25,-1
 979 2671 l 1,26,-1
 445 2671 l 1,27,-1
 445 2849 l 1,28,-1
 356 2849 l 1,29,-1
 356 3027 l 1,30,-1
 267 3027 l 1,31,-1
 267 3294 l 1,32,-1
 1602 3294 l 1,33,-1
 1602 3205 l 1,34,-1
 1691 3205 l 1,35,-1
 1691 3116 l 1,36,-1
 1780 3116 l 1,37,-1
 1780 3027 l 1,38,-1
 1869 3027 l 1,39,-1
 1869 1869 l 1,40,-1
 1958 1869 l 1,41,-1
 1958 1780 l 1,42,-1
 2048 1780 l 1,43,-1
 2048 1602 l 1,44,-1
 2137 1602 l 1,45,-1
 2137 1513 l 1,46,-1
 2226 1513 l 1,47,-1
 2226 1424 l 1,48,-1
 2315 1424 l 1,49,-1
 2315 1335 l 1,50,-1
 2226 1335 l 1,51,-1
 2226 1246 l 1,52,-1
 2137 1246 l 1,53,-1
 2137 1157 l 1,54,-1
 2048 1157 l 1,55,-1
 2048 1068 l 1,56,-1
 1958 1068 l 1,57,-1
 1958 979 l 1,58,-1
 1869 979 l 1,59,-1
 1869 -89 l 1,60,-1
 1780 -89 l 1,61,-1
 1780 -178 l 1,62,-1
 1691 -178 l 1,63,-1
 1691 -267 l 1,64,-1
 1602 -267 l 1,65,-1
 1602 -356 l 1,66,-1
 89 -356 l 1,3,-1
EndSplineSet
Validated: 3
EndChar

StartChar: asciitilde
Encoding: 126 126 88
GlifName: asciitilde
Width: 2315
GlyphClass: 1
Flags: W
LayerCount: 2
Fore
SplineSet
178 1693 m 1052,0,-1
490 1136 m 28,1,-1
 490 1136 l 28,1,-1
-1144 2302 m 1049,2,-1
267 1246 m 5,3,-1
 267 1157 l 5,4,-1
 178 1157 l 5,5,-1
 178 1246 l 5,6,-1
 89 1246 l 5,7,-1
 89 1424 l 5,8,-1
 0 1424 l 5,9,-1
 0 1602 l 5,10,-1
 89 1602 l 5,11,-1
 89 1691 l 5,12,-1
 178 1691 l 5,13,-1
 178 1780 l 5,14,-1
 267 1780 l 5,15,-1
 267 1869 l 5,16,-1
 356 1869 l 5,17,-1
 356 1958 l 5,18,-1
 1246 1958 l 5,19,-1
 1246 1869 l 5,20,-1
 1335 1869 l 5,21,-1
 1335 1691 l 5,22,-1
 1424 1691 l 5,23,-1
 1424 1602 l 5,24,-1
 1602 1602 l 5,25,-1
 1602 1780 l 5,26,-1
 1691 1780 l 5,27,-1
 1691 2137 l 5,28,-1
 1958 2137 l 5,29,-1
 1958 2048 l 5,30,-1
 2226 2048 l 5,31,-1
 2226 1780 l 5,32,-1
 2137 1780 l 5,33,-1
 2137 1424 l 5,34,-1
 2048 1424 l 5,35,-1
 2048 1335 l 5,36,-1
 1869 1335 l 5,37,-1
 1869 1246 l 5,38,-1
 1691 1246 l 5,39,-1
 1691 1157 l 5,40,-1
 1068 1157 l 5,41,-1
 1068 1246 l 5,42,-1
 979 1246 l 5,43,-1
 979 1335 l 5,44,-1
 890 1335 l 5,45,-1
 890 1424 l 5,46,-1
 534 1424 l 5,47,-1
 534 1335 l 5,48,-1
 445 1335 l 5,49,-1
 445 1246 l 5,50,-1
 267 1246 l 5,3,-1
EndSplineSet
Validated: 1
EndChar

StartChar: quoteleft
Encoding: 8216 8216 89
GlifName: quoteleft
Width: 623
GlyphClass: 1
Flags: W
LayerCount: 2
Fore
SplineSet
89 1869 m 1,0,-1
 89 2226 l 1,1,-1
 0 2226 l 1,2,-1
 0 2671 l 1,3,-1
 534 2671 l 1,4,-1
 534 2493 l 1,5,-1
 445 2493 l 1,6,-1
 445 2137 l 1,7,-1
 356 2137 l 1,8,-1
 356 1869 l 1,9,-1
 89 1869 l 1,0,-1
EndSplineSet
Validated: 1
EndChar

StartChar: quoteright
Encoding: 8217 8217 90
GlifName: quoteright
Width: 623
GlyphClass: 1
Flags: W
LayerCount: 2
Fore
SplineSet
89 1869 m 1,0,-1
 89 2226 l 1,1,-1
 0 2226 l 1,2,-1
 0 2671 l 1,3,-1
 534 2671 l 1,4,-1
 534 2493 l 1,5,-1
 445 2493 l 1,6,-1
 445 2137 l 1,7,-1
 356 2137 l 1,8,-1
 356 1869 l 1,9,-1
 89 1869 l 1,0,-1
EndSplineSet
Validated: 1
EndChar

StartChar: quotedblleft
Encoding: 8220 8220 91
GlifName: quotedblleft
Width: 1068
GlyphClass: 1
Flags: W
LayerCount: 2
Fore
SplineSet
89 1780 m 1,0,-1
 89 2226 l 1,1,-1
 0 2226 l 1,2,-1
 0 2671 l 1,3,-1
 445 2671 l 1,4,-1
 445 1780 l 1,5,-1
 89 1780 l 1,0,-1
534 1780 m 1,6,-1
 534 2671 l 1,7,-1
 712 2671 l 1,8,-1
 712 2582 l 1,9,-1
 890 2582 l 1,10,-1
 890 2493 l 1,11,-1
 979 2493 l 1,12,-1
 979 2137 l 1,13,-1
 890 2137 l 1,14,-1
 890 1780 l 1,15,-1
 534 1780 l 1,6,-1
EndSplineSet
Validated: 1
EndChar

StartChar: quotedblright
Encoding: 8221 8221 92
GlifName: quotedblright
Width: 1068
GlyphClass: 1
Flags: W
LayerCount: 2
Fore
SplineSet
89 1780 m 1,0,-1
 89 2226 l 1,1,-1
 0 2226 l 1,2,-1
 0 2671 l 1,3,-1
 445 2671 l 1,4,-1
 445 1780 l 1,5,-1
 89 1780 l 1,0,-1
534 1780 m 1,6,-1
 534 2671 l 1,7,-1
 712 2671 l 1,8,-1
 712 2582 l 1,9,-1
 890 2582 l 1,10,-1
 890 2493 l 1,11,-1
 979 2493 l 1,12,-1
 979 2137 l 1,13,-1
 890 2137 l 1,14,-1
 890 1780 l 1,15,-1
 534 1780 l 1,6,-1
EndSplineSet
Validated: 1
EndChar

StartChar: Agrave
Encoding: 192 192 93
GlifName: A_grave
Width: 2671
Flags: W
LayerCount: 2
Back
Fore
SplineSet
1157.06640625 3835.11523438 m 5,0,-1
 1335.03808594 3835.11523438 l 5,1,-1
 1335.03808594 3745.51953125 l 5,2,-1
 1424.0234375 3745.51953125 l 5,3,-1
 1424.0234375 3655.92871094 l 5,4,-1
 1513.01269531 3655.92871094 l 5,5,-1
 1513.01269531 3566.33691406 l 5,6,-1
 1602 3566.33691406 l 5,7,-1
 1602 3476.74511719 l 5,8,-1
 1690.98535156 3476.74511719 l 5,9,-1
 1690.98535156 3297.55566406 l 5,10,-1
 1779.96972656 3297.55566406 l 5,11,-1
 1779.96972656 3207.96386719 l 5,12,-1
 1868.95703125 3207.96386719 l 5,13,-1
 1868.95703125 3118.37207031 l 5,14,-1
 1957.9453125 3118.37207031 l 5,15,-1
 1957.9453125 2939.18945312 l 5,16,-1
 1868.95703125 2939.18945312 l 5,17,-1
 1868.95703125 2849.59082031 l 5,18,-1
 1779.96972656 2849.59082031 l 5,19,-1
 1779.96972656 2760 l 5,20,-1
 1602 2760 l 5,21,-1
 1602 2849.59082031 l 5,22,-1
 1424.0234375 2849.59082031 l 5,23,-1
 1424.0234375 2939.18945312 l 5,24,-1
 1246.05371094 2939.18945312 l 5,25,-1
 1246.05371094 3028.78027344 l 5,26,-1
 1157.06640625 3028.78027344 l 5,27,-1
 1157.06640625 3118.37207031 l 5,28,-1
 979.090820312 3118.37207031 l 5,29,-1
 979.090820312 3207.96386719 l 5,30,-1
 801.120117188 3207.96386719 l 5,31,-1
 801.120117188 3297.55566406 l 5,32,-1
 712.134765625 3297.55566406 l 5,33,-1
 712.134765625 3476.74511719 l 5,34,-1
 801.120117188 3476.74511719 l 5,35,-1
 801.120117188 3566.33691406 l 5,36,-1
 890.107421875 3566.33691406 l 5,37,-1
 890.107421875 3655.92871094 l 5,38,-1
 1068.08300781 3655.92871094 l 5,39,-1
 1068.08300781 3745.51953125 l 5,40,-1
 1157.06640625 3745.51953125 l 5,41,-1
 1157.06640625 3835.11523438 l 5,0,-1
1513 1157 m 1,42,-1
 1513 1513 l 1,43,-1
 1424 1513 l 1,44,-1
 1424 1335 l 1,45,-1
 1335 1335 l 1,46,-1
 1335 1246 l 1,47,-1
 1246 1246 l 1,48,-1
 1246 1157 l 1,49,-1
 1513 1157 l 1,42,-1
  Spiro
    1513 1157 v
    1513 1513 v
    1424 1513 v
    1424 1335 v
    1335 1335 v
    1335 1246 v
    1246 1246 v
    1246 1157 v
    0 0 z
  EndSpiro
1691 0 m 1,50,-1
 1691 445 l 1,51,-1
 1424 445 l 1,52,-1
 1424 534 l 1,53,-1
 1068 534 l 1,54,-1
 1068 623 l 1,55,-1
 890 623 l 1,56,-1
 890 534 l 1,57,-1
 801 534 l 1,58,-1
 801 267 l 1,59,-1
 445 267 l 1,60,-1
 445 356 l 1,61,-1
 0 356 l 1,62,-1
 -0 623 l 1,63,-1
 89 623 l 1,64,-1
 89 801 l 1,65,-1
 178.000976562 801 l 1,66,-1
 178 979 l 1,67,-1
 267 979 l 1,68,-1
 267 1068 l 1,69,-1
 356 1068 l 1,70,-1
 356 1246 l 1,71,-1
 445 1246 l 1,72,-1
 445 1424 l 1,73,-1
 534 1424 l 1,74,-1
 534 1602 l 1,75,-1
 623 1602 l 1,76,-1
 623 1780 l 1,77,-1
 712 1780 l 1,78,-1
 712 1958 l 1,79,-1
 801 1958 l 1,80,-1
 801 2137 l 1,81,-1
 890 2137 l 1,82,-1
 890 2315 l 1,83,-1
 979 2315 l 1,84,-1
 978.999023438 2493 l 1,85,-1
 1068 2493 l 1,86,-1
 1068 2671 l 1,87,-1
 1513 2671 l 1,88,-1
 1513 2582 l 1,89,-1
 1958 2582 l 1,90,-1
 1958 2137 l 1,91,-1
 2048 2137 l 1,92,-1
 2048 1869 l 1,93,-1
 2137 1869 l 1,94,-1
 2137 1602 l 1,95,-1
 2226 1602 l 1,96,-1
 2226 1335 l 1,97,-1
 2315 1334.99902344 l 1,98,-1
 2315 1068.00097656 l 1,99,-1
 2404 1068 l 1,100,-1
 2404 712 l 1,101,-1
 2493 712 l 1,102,-1
 2493 356 l 1,103,-1
 2582 355.999023438 l 1,104,-1
 2582 0 l 1,105,-1
 1691 0 l 1,50,-1
  Spiro
    1691 0 v
    1691 445 v
    1424 445 v
    1424 534 v
    1068 534 v
    1068 623 v
    890 623 v
    890 534 v
    801 534 v
    801 267 v
    445 267 v
    445 356 v
    0 356 v
    -0 623 v
    89 623 v
    89 801 v
    178.001 801 v
    178 979 v
    267 979 v
    267 1068 v
    356 1068 v
    356 1246 v
    445 1246 v
    445 1424 v
    534 1424 v
    534 1602 v
    623 1602 v
    623 1780 v
    712 1780 v
    712 1958 v
    801 1958 v
    801 2137 v
    890 2137 v
    890 2315 v
    979 2315 v
    978.999 2493 v
    1068 2493 v
    1068 2671 v
    1513 2671 v
    1513 2582 v
    1958 2582 v
    1958 2137 v
    2048 2137 v
    2048 1869 v
    2137 1869 v
    2137 1602 v
    2226 1602 v
    2226 1335 v
    2315 1335 v
    2315 1068 v
    2404 1068 v
    2404 712 v
    2493 712 v
    2493 356 v
    2582 355.999 v
    2582 0 v
    0 0 z
  EndSpiro
EndSplineSet
Validated: 524289
EndChar

StartChar: Aacute
Encoding: 193 193 94
GlifName: A_acute
Width: 2671
Flags: W
LayerCount: 2
Fore
SplineSet
1957.93359375 3835.11523438 m 5,0,-1
 1779.96191406 3835.11523438 l 5,1,-1
 1779.96191406 3745.51953125 l 5,2,-1
 1690.9765625 3745.51953125 l 5,3,-1
 1690.9765625 3655.92871094 l 5,4,-1
 1601.98730469 3655.92871094 l 5,5,-1
 1601.98730469 3566.33691406 l 5,6,-1
 1513 3566.33691406 l 5,7,-1
 1513 3476.74511719 l 5,8,-1
 1424.01464844 3476.74511719 l 5,9,-1
 1424.01464844 3297.55566406 l 5,10,-1
 1335.03027344 3297.55566406 l 5,11,-1
 1335.03027344 3207.96386719 l 5,12,-1
 1246.04296875 3207.96386719 l 5,13,-1
 1246.04296875 3118.37207031 l 5,14,-1
 1157.0546875 3118.37207031 l 5,15,-1
 1157.0546875 2939.18945312 l 5,16,-1
 1246.04296875 2939.18945312 l 5,17,-1
 1246.04296875 2849.59082031 l 5,18,-1
 1335.03027344 2849.59082031 l 5,19,-1
 1335.03027344 2760 l 5,20,-1
 1513 2760 l 5,21,-1
 1513 2849.59082031 l 5,22,-1
 1690.9765625 2849.59082031 l 5,23,-1
 1690.9765625 2939.18945312 l 5,24,-1
 1868.94628906 2939.18945312 l 5,25,-1
 1868.94628906 3028.78027344 l 5,26,-1
 1957.93359375 3028.78027344 l 5,27,-1
 1957.93359375 3118.37207031 l 5,28,-1
 2135.90917969 3118.37207031 l 5,29,-1
 2135.90917969 3207.96386719 l 5,30,-1
 2313.87988281 3207.96386719 l 5,31,-1
 2313.87988281 3297.55566406 l 5,32,-1
 2402.86523438 3297.55566406 l 5,33,-1
 2402.86523438 3476.74511719 l 5,34,-1
 2313.87988281 3476.74511719 l 5,35,-1
 2313.87988281 3566.33691406 l 5,36,-1
 2224.89257812 3566.33691406 l 5,37,-1
 2224.89257812 3655.92871094 l 5,38,-1
 2046.91699219 3655.92871094 l 5,39,-1
 2046.91699219 3745.51953125 l 5,40,-1
 1957.93359375 3745.51953125 l 5,41,-1
 1957.93359375 3835.11523438 l 5,0,-1
1513 1157 m 1,42,-1
 1513 1513 l 1,43,-1
 1424 1513 l 1,44,-1
 1424 1335 l 1,45,-1
 1335 1335 l 1,46,-1
 1335 1246 l 1,47,-1
 1246 1246 l 1,48,-1
 1246 1157 l 1,49,-1
 1513 1157 l 1,42,-1
1691 0 m 1,50,-1
 1691 445 l 1,51,-1
 1424 445 l 1,52,-1
 1424 534 l 1,53,-1
 1068 534 l 1,54,-1
 1068 623 l 1,55,-1
 890 623 l 1,56,-1
 890 534 l 1,57,-1
 801 534 l 1,58,-1
 801 267 l 1,59,-1
 445 267 l 1,60,-1
 445 356 l 1,61,-1
 0 356 l 1,62,-1
 -0 623 l 1,63,-1
 89 623 l 1,64,-1
 89 801 l 1,65,-1
 178.000976562 801 l 1,66,-1
 178 979 l 1,67,-1
 267 979 l 1,68,-1
 267 1068 l 1,69,-1
 356 1068 l 1,70,-1
 356 1246 l 1,71,-1
 445 1246 l 1,72,-1
 445 1424 l 1,73,-1
 534 1424 l 1,74,-1
 534 1602 l 1,75,-1
 623 1602 l 1,76,-1
 623 1780 l 1,77,-1
 712 1780 l 1,78,-1
 712 1958 l 1,79,-1
 801 1958 l 1,80,-1
 801 2137 l 1,81,-1
 890 2137 l 1,82,-1
 890 2315 l 1,83,-1
 979 2315 l 1,84,-1
 978.999023438 2493 l 1,85,-1
 1068 2493 l 1,86,-1
 1068 2671 l 1,87,-1
 1513 2671 l 1,88,-1
 1513 2582 l 1,89,-1
 1958 2582 l 1,90,-1
 1958 2137 l 1,91,-1
 2048 2137 l 1,92,-1
 2048 1869 l 1,93,-1
 2137 1869 l 1,94,-1
 2137 1602 l 1,95,-1
 2226 1602 l 1,96,-1
 2226 1335 l 1,97,-1
 2315 1334.99902344 l 1,98,-1
 2315 1068.00097656 l 1,99,-1
 2404 1068 l 1,100,-1
 2404 712 l 1,101,-1
 2493 712 l 1,102,-1
 2493 356 l 1,103,-1
 2582 355.999023438 l 1,104,-1
 2582 0 l 1,105,-1
 1691 0 l 1,50,-1
EndSplineSet
Validated: 9
EndChar

StartChar: Acircumflex
Encoding: 194 194 95
GlifName: A_circumflex
Width: 2671
Flags: W
LayerCount: 2
Back
Fore
SplineSet
1697 4006 m 29,0,-1
 1697 4090 l 21,1,-1
 1881 4090 l 5,2,-1
 1881 3997 l 5,3,-1
 1975 3997 l 5,4,-1
 1975 3837 l 5,5,-1
 2064 3837 l 5,6,-1
 2064 3749 l 5,7,-1
 2153 3749 l 5,8,-1
 2153 3567 l 5,9,-1
 2242 3567 l 5,10,-1
 2242 3302 l 5,11,-1
 2336 3302 l 5,12,-1
 2336 3120 l 5,13,-1
 2425 3120 l 13,14,-1
 2425 2941 l 5,15,-1
 2153 2941 l 5,16,-1
 2153 2848 l 5,17,-1
 1876 2848 l 5,18,-1
 1876 2941 l 5,19,-1
 1787 2941 l 5,20,-1
 1787 3118 l 5,21,-1
 1697 3118 l 5,22,-1
 1697 3299 l 5,23,-1
 1608 3299 l 5,24,-1
 1608 3476 l 5,25,-1
 1519 3476 l 5,26,-1
 1519 3387 l 5,27,-1
 1430 3387 l 5,28,-1
 1430 3211 l 5,29,-1
 1341 3211 l 5,30,-1
 1341 3118 l 5,31,-1
 1247 3118 l 5,32,-1
 1247 2941 l 5,33,-1
 1157 2941 l 5,34,-1
 1157 2848 l 5,35,-1
 1068 2848 l 5,36,-1
 1068 2760 l 5,37,-1
 880 2760 l 5,38,-1
 880 2848 l 5,39,-1
 791 2848 l 5,40,-1
 791 2941 l 5,41,-1
 702 2941 l 5,42,-1
 702 3029 l 5,43,-1
 608 3029 l 5,44,-1
 608 3289 l 5,45,-1
 702 3289 l 5,46,-1
 702 3377 l 5,47,-1
 791 3377 l 5,48,-1
 791 3466 l 5,49,-1
 880 3466 l 5,50,-1
 880 3559 l 5,51,-1
 969 3559 l 5,52,-1
 969 3647 l 5,53,-1
 1063 3647 l 5,54,-1
 1063 3736 l 5,55,-1
 1152 3736 l 13,56,-1
 1153 3828 l 21,57,-1
 1242 3828 l 5,58,-1
 1242 3916 l 5,59,-1
 1425 3916 l 5,60,-1
 1425 4005 l 13,61,-1
 1697 4006 l 29,0,-1
1513 1157 m 1,62,-1
 1513 1513 l 1,63,-1
 1424 1513 l 1,64,-1
 1424 1335 l 1,65,-1
 1335 1335 l 1,66,-1
 1335 1246 l 1,67,-1
 1246 1246 l 1,68,-1
 1246 1157 l 1,69,-1
 1513 1157 l 1,62,-1
1691 0 m 1,70,-1
 1691 445 l 1,71,-1
 1424 445 l 1,72,-1
 1424 534 l 1,73,-1
 1068 534 l 1,74,-1
 1068 623 l 1,75,-1
 890 623 l 1,76,-1
 890 534 l 1,77,-1
 801 534 l 1,78,-1
 801 267 l 1,79,-1
 445 267 l 1,80,-1
 445 356 l 1,81,-1
 0 356 l 1,82,-1
 -0 623 l 1,83,-1
 89 623 l 1,84,-1
 89 801 l 1,85,-1
 178 801 l 1,86,-1
 178 979 l 1,87,-1
 267 979 l 1,88,-1
 267 1068 l 1,89,-1
 356 1068 l 1,90,-1
 356 1246 l 1,91,-1
 445 1246 l 1,92,-1
 445 1424 l 1,93,-1
 534 1424 l 1,94,-1
 534 1602 l 1,95,-1
 623 1602 l 1,96,-1
 623 1780 l 1,97,-1
 712 1780 l 1,98,-1
 712 1958 l 1,99,-1
 801 1958 l 1,100,-1
 801 2137 l 1,101,-1
 890 2137 l 1,102,-1
 890 2315 l 1,103,-1
 979 2315 l 1,104,-1
 979 2493 l 1,105,-1
 1068 2493 l 1,106,-1
 1068 2671 l 1,107,-1
 1513 2671 l 1,108,-1
 1513 2582 l 1,109,-1
 1958 2582 l 1,110,-1
 1958 2137 l 1,111,-1
 2048 2137 l 1,112,-1
 2048 1869 l 1,113,-1
 2137 1869 l 1,114,-1
 2137 1602 l 1,115,-1
 2226 1602 l 1,116,-1
 2226 1335 l 1,117,-1
 2315 1335 l 1,118,-1
 2315 1068 l 1,119,-1
 2404 1068 l 1,120,-1
 2404 712 l 1,121,-1
 2493 712 l 1,122,-1
 2493 356 l 1,123,-1
 2582 356 l 1,124,-1
 2582 0 l 1,125,-1
 1691 0 l 1,70,-1
EndSplineSet
Validated: 1
EndChar

StartChar: Atilde
Encoding: 195 195 96
GlifName: A_tilde
Width: 2671
Flags: W
LayerCount: 2
Fore
SplineSet
534 3385 m 1052,0,-1
623 2938 m 5,1,-1
 623 2849 l 5,2,-1
 534 2849 l 5,3,-1
 534 2938 l 5,4,-1
 445 2938 l 5,5,-1
 445 3116 l 5,6,-1
 356 3116 l 5,7,-1
 356 3294 l 5,8,-1
 445 3294 l 5,9,-1
 445 3383 l 5,10,-1
 534 3383 l 5,11,-1
 534 3472 l 5,12,-1
 623 3472 l 5,13,-1
 623 3561 l 5,14,-1
 712 3561 l 5,15,-1
 712 3650 l 5,16,-1
 1602 3650 l 5,17,-1
 1602 3561 l 5,18,-1
 1691 3561 l 5,19,-1
 1691 3383 l 5,20,-1
 1780 3383 l 5,21,-1
 1780 3294 l 5,22,-1
 1958 3294 l 5,23,-1
 1958 3472 l 5,24,-1
 2047 3472 l 5,25,-1
 2047 3829 l 5,26,-1
 2314 3829 l 5,27,-1
 2314 3740 l 5,28,-1
 2582 3740 l 5,29,-1
 2582 3472 l 5,30,-1
 2493 3472 l 5,31,-1
 2493 3116 l 5,32,-1
 2404 3116 l 5,33,-1
 2404 3027 l 5,34,-1
 2225 3027 l 5,35,-1
 2225 2938 l 5,36,-1
 2047 2938 l 5,37,-1
 2047 2849 l 5,38,-1
 1424 2849 l 5,39,-1
 1424 2938 l 5,40,-1
 1335 2938 l 5,41,-1
 1335 3027 l 5,42,-1
 1246 3027 l 5,43,-1
 1246 3116 l 5,44,-1
 890 3116 l 5,45,-1
 890 3027 l 5,46,-1
 801 3027 l 5,47,-1
 801 2938 l 5,48,-1
 623 2938 l 5,1,-1
1513 1157 m 1,49,-1
 1513 1513 l 1,50,-1
 1424 1513 l 1,51,-1
 1424 1335 l 1,52,-1
 1335 1335 l 1,53,-1
 1335 1246 l 1,54,-1
 1246 1246 l 1,55,-1
 1246 1157 l 1,56,-1
 1513 1157 l 1,49,-1
1691 0 m 1,57,-1
 1691 445 l 1,58,-1
 1424 445 l 1,59,-1
 1424 534 l 1,60,-1
 1068 534 l 1,61,-1
 1068 623 l 1,62,-1
 890 623 l 1,63,-1
 890 534 l 1,64,-1
 801 534 l 1,65,-1
 801 267 l 1,66,-1
 445 267 l 1,67,-1
 445 356 l 1,68,-1
 0 356 l 1,69,-1
 -0 623 l 1,70,-1
 89 623 l 1,71,-1
 89 801 l 1,72,-1
 178.000976562 801 l 1,73,-1
 178 979 l 1,74,-1
 267 979 l 1,75,-1
 267 1068 l 1,76,-1
 356 1068 l 1,77,-1
 356 1246 l 1,78,-1
 445 1246 l 1,79,-1
 445 1424 l 1,80,-1
 534 1424 l 1,81,-1
 534 1602 l 1,82,-1
 623 1602 l 1,83,-1
 623 1780 l 1,84,-1
 712 1780 l 1,85,-1
 712 1958 l 1,86,-1
 801 1958 l 1,87,-1
 801 2137 l 1,88,-1
 890 2137 l 1,89,-1
 890 2315 l 1,90,-1
 979 2315 l 1,91,-1
 978.999023438 2493 l 1,92,-1
 1068 2493 l 1,93,-1
 1068 2671 l 1,94,-1
 1513 2671 l 1,95,-1
 1513 2582 l 1,96,-1
 1958 2582 l 1,97,-1
 1958 2464 l 0,98,99
 1958 2464 1958 2464 1958 2137 c 1,100,-1
 2048 2137 l 1,101,-1
 2048 1869 l 1,102,-1
 2137 1869 l 1,103,-1
 2137 1602 l 1,104,-1
 2226 1602 l 1,105,-1
 2226 1335 l 1,106,-1
 2315 1334.99902344 l 1,107,-1
 2315 1068.00097656 l 1,108,-1
 2404 1068 l 1,109,-1
 2404 712 l 1,110,-1
 2493 712 l 1,111,-1
 2493 356 l 1,112,-1
 2582 355.999023438 l 1,113,-1
 2582 0 l 1,114,-1
 1691 0 l 1,57,-1
EndSplineSet
Validated: 1
EndChar

StartChar: Adieresis
Encoding: 196 196 97
GlifName: A_dieresis
Width: 2671
Flags: W
LayerCount: 2
Fore
SplineSet
712 3561 m 5,0,-1
 979 3561 l 5,1,-1
 979 3472 l 5,2,-1
 1335 3472 l 5,3,-1
 1335 2938 l 5,4,-1
 712 2938 l 5,5,-1
 712 3561 l 5,0,-1
1691 3383 m 5,6,-1
 1958 3383 l 5,7,-1
 1958 3472 l 5,8,-1
 2314 3472 l 5,9,-1
 2314 3116 l 5,10,-1
 2404 3116 l 5,11,-1
 2404 2849 l 5,12,-1
 1780 2849 l 5,13,-1
 1780 3116 l 5,14,-1
 1691 3116 l 5,15,-1
 1691 3383 l 5,6,-1
1513 1157 m 1,16,-1
 1513 1513 l 1,17,-1
 1424 1513 l 1,18,-1
 1424 1335 l 1,19,-1
 1335 1335 l 1,20,-1
 1335 1246 l 1,21,-1
 1246 1246 l 1,22,-1
 1246 1157 l 1,23,-1
 1513 1157 l 1,16,-1
1691 0 m 1,24,-1
 1691 445 l 1,25,-1
 1424 445 l 1,26,-1
 1424 534 l 1,27,-1
 1068 534 l 1,28,-1
 1068 623 l 1,29,-1
 890 623 l 1,30,-1
 890 534 l 1,31,-1
 801 534 l 1,32,-1
 801 267 l 1,33,-1
 445 267 l 1,34,-1
 445 356 l 1,35,-1
 0 356 l 1,36,-1
 -0 623 l 1,37,-1
 89 623 l 1,38,-1
 89 801 l 1,39,-1
 178.000976562 801 l 1,40,-1
 178 979 l 1,41,-1
 267 979 l 1,42,-1
 267 1068 l 1,43,-1
 356 1068 l 1,44,-1
 356 1246 l 1,45,-1
 445 1246 l 1,46,-1
 445 1424 l 1,47,-1
 534 1424 l 1,48,-1
 534 1602 l 1,49,-1
 623 1602 l 1,50,-1
 623 1780 l 1,51,-1
 712 1780 l 1,52,-1
 712 1958 l 1,53,-1
 801 1958 l 1,54,-1
 801 2137 l 1,55,-1
 890 2137 l 1,56,-1
 890 2315 l 1,57,-1
 979 2315 l 1,58,-1
 978.999023438 2493 l 1,59,-1
 1068 2493 l 1,60,-1
 1068 2671 l 1,61,-1
 1513 2671 l 1,62,-1
 1513 2582 l 1,63,-1
 1958 2582 l 1,64,-1
 1958 2137 l 1,65,-1
 2048 2137 l 1,66,-1
 2048 1869 l 1,67,-1
 2137 1869 l 1,68,-1
 2137 1602 l 1,69,-1
 2226 1602 l 1,70,-1
 2226 1335 l 1,71,-1
 2315 1334.99902344 l 1,72,-1
 2315 1068.00097656 l 1,73,-1
 2404 1068 l 1,74,-1
 2404 712 l 1,75,-1
 2493 712 l 1,76,-1
 2493 356 l 1,77,-1
 2582 355.999023438 l 1,78,-1
 2582 0 l 1,79,-1
 1691 0 l 1,24,-1
EndSplineSet
Validated: 1
EndChar

StartChar: Aring
Encoding: 197 197 98
GlifName: A_ring
Width: 2671
Flags: W
LayerCount: 2
Fore
SplineSet
1691 3206 m 5,0,-1
 1691 3384 l 5,1,-1
 1513 3384 l 5,2,-1
 1513 3206 l 5,3,-1
 1691 3206 l 5,0,-1
1424 2760 m 1,4,-1
 1424 2849 l 1,5,-1
 1335 2849 l 1,6,-1
 1335 2938 l 1,7,-1
 1246 2938 l 1,8,-1
 1246 3117 l 1,9,-1
 1157 3117 l 1,10,-1
 1157 3206 l 1,11,-1
 1068 3206 l 1,12,-1
 1068 3384 l 1,13,-1
 1157 3384 l 1,14,-1
 1157 3562 l 1,15,-1
 1246 3562 l 1,16,-1
 1246 3651 l 1,17,-1
 1335 3651 l 1,18,-1
 1335 3740 l 1,19,-1
 1602 3740 l 1,20,-1
 1602 3829 l 1,21,-1
 1780 3829 l 1,22,-1
 1780 3740 l 1,23,-1
 1869 3740 l 1,24,-1
 1869 3651 l 1,25,-1
 1958 3651 l 1,26,-1
 1958 3562 l 1,27,-1
 2047 3562 l 1,28,-1
 2047 3473 l 1,29,-1
 2136 3473 l 1,30,-1
 2136 3295 l 1,31,-1
 2047 3295 l 1,32,-1
 2047 3117 l 1,33,-1
 1958 3117 l 1,34,-1
 1958 2938 l 1,35,-1
 1869 2938 l 1,36,-1
 1869 2849 l 1,37,-1
 1780 2849 l 1,38,-1
 1780 2760 l 1,39,-1
 1424 2760 l 1,4,-1
1513 1157 m 1,40,-1
 1513 1513 l 1,41,-1
 1424 1513 l 1,42,-1
 1424 1335 l 1,43,-1
 1335 1335 l 1,44,-1
 1335 1246 l 1,45,-1
 1246 1246 l 1,46,-1
 1246 1157 l 1,47,-1
 1513 1157 l 1,40,-1
1691 0 m 1,48,-1
 1691 445 l 1,49,-1
 1424 445 l 1,50,-1
 1424 534 l 1,51,-1
 1068 534 l 1,52,-1
 1068 623 l 1,53,-1
 890 623 l 1,54,-1
 890 534 l 1,55,-1
 801 534 l 1,56,-1
 801 267 l 1,57,-1
 445 267 l 1,58,-1
 445 356 l 1,59,-1
 0 356 l 1,60,-1
 -0 623 l 1,61,-1
 89 623 l 1,62,-1
 89 801 l 1,63,-1
 178.000976562 801 l 1,64,-1
 178 979 l 1,65,-1
 267 979 l 1,66,-1
 267 1068 l 1,67,-1
 356 1068 l 1,68,-1
 356 1246 l 1,69,-1
 445 1246 l 1,70,-1
 445 1424 l 1,71,-1
 534 1424 l 1,72,-1
 534 1602 l 1,73,-1
 623 1602 l 1,74,-1
 623 1780 l 1,75,-1
 712 1780 l 1,76,-1
 712 1958 l 1,77,-1
 801 1958 l 1,78,-1
 801 2137 l 1,79,-1
 890 2137 l 1,80,-1
 890 2315 l 1,81,-1
 979 2315 l 1,82,-1
 978.999023438 2493 l 1,83,-1
 1068 2493 l 1,84,-1
 1068 2671 l 1,85,-1
 1513 2671 l 1,86,-1
 1513 2582 l 1,87,-1
 1958 2582 l 1,88,-1
 1958 2137 l 1,89,-1
 2048 2137 l 1,90,-1
 2048 1869 l 1,91,-1
 2137 1869 l 1,92,-1
 2137 1602 l 1,93,-1
 2226 1602 l 1,94,-1
 2226 1335 l 1,95,-1
 2315 1334.99902344 l 1,96,-1
 2315 1068.00097656 l 1,97,-1
 2404 1068 l 1,98,-1
 2404 712 l 1,99,-1
 2493 712 l 1,100,-1
 2493 356 l 1,101,-1
 2582 355.999023438 l 1,102,-1
 2582 0 l 1,103,-1
 1691 0 l 1,48,-1
EndSplineSet
Validated: 1
EndChar

StartChar: Egrave
Encoding: 200 200 99
GlifName: E_grave
Width: 2493
Flags: W
LayerCount: 2
Fore
SplineSet
801.06640625 3657.11523438 m 5,0,-1
 979.038085938 3657.11523438 l 5,1,-1
 979.038085938 3567.51953125 l 5,2,-1
 1068.0234375 3567.51953125 l 5,3,-1
 1068.0234375 3477.92871094 l 5,4,-1
 1157.01269531 3477.92871094 l 5,5,-1
 1157.01269531 3388.33691406 l 5,6,-1
 1246 3388.33691406 l 5,7,-1
 1246 3298.74511719 l 5,8,-1
 1334.98535156 3298.74511719 l 5,9,-1
 1334.98535156 3119.55566406 l 5,10,-1
 1423.96972656 3119.55566406 l 5,11,-1
 1423.96972656 3029.96386719 l 5,12,-1
 1512.95703125 3029.96386719 l 5,13,-1
 1512.95703125 2940.37207031 l 5,14,-1
 1601.9453125 2940.37207031 l 5,15,-1
 1601.9453125 2761.18945312 l 5,16,-1
 1512.95703125 2761.18945312 l 5,17,-1
 1512.95703125 2671.59082031 l 5,18,-1
 1423.96972656 2671.59082031 l 5,19,-1
 1423.96972656 2582 l 5,20,-1
 1246 2582 l 5,21,-1
 1246 2671.59082031 l 5,22,-1
 1068.0234375 2671.59082031 l 5,23,-1
 1068.0234375 2761.18945312 l 5,24,-1
 890.053710938 2761.18945312 l 5,25,-1
 890.053710938 2850.78027344 l 5,26,-1
 801.06640625 2850.78027344 l 5,27,-1
 801.06640625 2940.37207031 l 5,28,-1
 623.090820312 2940.37207031 l 5,29,-1
 623.090820312 3029.96386719 l 5,30,-1
 445.120117188 3029.96386719 l 5,31,-1
 445.120117188 3119.55566406 l 5,32,-1
 356.134765625 3119.55566406 l 5,33,-1
 356.134765625 3298.74511719 l 5,34,-1
 445.120117188 3298.74511719 l 5,35,-1
 445.120117188 3388.33691406 l 5,36,-1
 534.107421875 3388.33691406 l 5,37,-1
 534.107421875 3477.92871094 l 5,38,-1
 712.083007812 3477.92871094 l 5,39,-1
 712.083007812 3567.51953125 l 5,40,-1
 801.06640625 3567.51953125 l 5,41,-1
 801.06640625 3657.11523438 l 5,0,-1
356 0 m 1,42,-1
 356 356 l 1,43,-1
 267 356 l 1,44,-1
 267 890 l 1,45,-1
 178 890 l 1,46,-1
 178 1424 l 1,47,-1
 89 1424 l 1,48,-1
 89 1958 l 1,49,-1
 0 1958 l 1,50,-1
 0 2226 l 1,51,-1
 267 2226 l 1,52,-1
 267 2315 l 1,53,-1
 801 2315 l 1,54,-1
 801 2404 l 1,55,-1
 1246 2404 l 1,56,-1
 1246 2493 l 1,57,-1
 1780 2493 l 1,58,-1
 1780 2582 l 1,59,-1
 2048 2582 l 1,60,-1
 2048 2137 l 1,61,-1
 1958 2137 l 1,62,-1
 1958 1780 l 1,63,-1
 1691 1780 l 1,64,-1
 1691 1691 l 1,65,-1
 1335 1691 l 1,66,-1
 1335 1602 l 1,67,-1
 979 1602 l 1,68,-1
 979 1513 l 1,69,-1
 890 1513 l 1,70,-1
 890 1335 l 1,71,-1
 1068 1335 l 1,72,-1
 1068 1424 l 1,73,-1
 1602 1424 l 1,74,-1
 1602 1513 l 1,75,-1
 1869 1513 l 1,76,-1
 1869 1157 l 1,77,-1
 1780 1157 l 1,78,-1
 1780 890 l 1,79,-1
 1335 890 l 1,80,-1
 1335 801 l 1,81,-1
 979 801 l 1,82,-1
 979 534 l 1,83,-1
 1157 534 l 1,84,-1
 1157 623 l 1,85,-1
 1602 623 l 1,86,-1
 1602 712 l 1,87,-1
 2137 712 l 1,88,-1
 2137 801 l 1,89,-1
 2404 801 l 1,90,-1
 2404 534 l 1,91,-1
 2315 534 l 1,92,-1
 2315 178 l 1,93,-1
 2226 178 l 1,94,-1
 2226 0 l 1,95,-1
 356 0 l 1,42,-1
EndSplineSet
Validated: 1
EndChar

StartChar: Eacute
Encoding: 201 201 100
GlifName: E_acute
Width: 2493
Flags: W
LayerCount: 2
Fore
SplineSet
1423.953125 3471.75878906 m 5,0,-1
 1334.97558594 3471.75878906 l 5,1,-1
 1334.97558594 3382.78417969 l 5,2,-1
 1246 3382.78417969 l 5,3,-1
 1246 3293.80761719 l 5,4,-1
 1157.01855469 3293.80761719 l 5,5,-1
 1157.01855469 3204.82910156 l 5,6,-1
 1068.04296875 3204.82910156 l 5,7,-1
 1068.04296875 3115.85449219 l 5,8,-1
 979.071289062 3115.85449219 l 5,9,-1
 979.071289062 2937.90722656 l 5,10,-1
 890.096679688 2937.90722656 l 5,11,-1
 890.096679688 2848.93261719 l 5,12,-1
 801.120117188 2848.93261719 l 5,13,-1
 801.120117188 2670.97363281 l 5,14,-1
 890.096679688 2670.97363281 l 5,15,-1
 890.096679688 2582 l 5,16,-1
 979.071289062 2582 l 5,17,-1
 979.071289062 2493.0234375 l 5,18,-1
 1068.04296875 2493.0234375 l 5,19,-1
 1068.04296875 2582 l 5,20,-1
 1246 2582 l 5,21,-1
 1246 2670.97363281 l 5,22,-1
 1423.953125 2670.97363281 l 5,23,-1
 1423.953125 2759.94824219 l 5,24,-1
 1512.92675781 2759.94824219 l 5,25,-1
 1512.92675781 2848.93261719 l 5,26,-1
 1690.87792969 2848.93261719 l 5,27,-1
 1690.87792969 2937.90722656 l 5,28,-1
 1779.85644531 2937.90722656 l 5,29,-1
 1779.85644531 3115.85449219 l 5,30,-1
 1690.87792969 3115.85449219 l 5,31,-1
 1690.87792969 3204.82910156 l 5,32,-1
 1601.8984375 3204.82910156 l 5,33,-1
 1601.8984375 3293.80761719 l 5,34,-1
 1512.92675781 3293.80761719 l 5,35,-1
 1512.92675781 3382.78417969 l 5,36,-1
 1423.953125 3382.78417969 l 5,37,-1
 1423.953125 3471.75878906 l 5,0,-1
356 0 m 1,38,-1
 356 356 l 1,39,-1
 267 356 l 1,40,-1
 267 890 l 1,41,-1
 178 890 l 1,42,-1
 178 1424 l 1,43,-1
 89 1424 l 1,44,-1
 89 1958 l 1,45,-1
 0 1958 l 1,46,-1
 0 2226 l 1,47,-1
 267 2226 l 1,48,-1
 267 2315 l 1,49,-1
 801 2315 l 1,50,-1
 801 2404 l 1,51,-1
 1246 2404 l 1,52,-1
 1246 2493 l 1,53,-1
 1780 2493 l 1,54,-1
 1780 2582 l 1,55,-1
 2048 2582 l 1,56,-1
 2048 2137 l 1,57,-1
 1958 2137 l 1,58,-1
 1958 1780 l 1,59,-1
 1691 1780 l 1,60,-1
 1691 1691 l 1,61,-1
 1335 1691 l 1,62,-1
 1335 1602 l 1,63,-1
 979 1602 l 1,64,-1
 979 1513 l 1,65,-1
 890 1513 l 1,66,-1
 890 1335 l 1,67,-1
 1068 1335 l 1,68,-1
 1068 1424 l 1,69,-1
 1602 1424 l 1,70,-1
 1602 1513 l 1,71,-1
 1869 1513 l 1,72,-1
 1869 1157 l 1,73,-1
 1780 1157 l 1,74,-1
 1780 890 l 1,75,-1
 1335 890 l 1,76,-1
 1335 801 l 1,77,-1
 979 801 l 1,78,-1
 979 534 l 1,79,-1
 1157 534 l 1,80,-1
 1157 623 l 1,81,-1
 1602 623 l 1,82,-1
 1602 712 l 1,83,-1
 2137 712 l 1,84,-1
 2137 801 l 1,85,-1
 2404 801 l 1,86,-1
 2404 534 l 1,87,-1
 2315 534 l 1,88,-1
 2315 178 l 1,89,-1
 2226 178 l 1,90,-1
 2226 0 l 1,91,-1
 356 0 l 1,38,-1
EndSplineSet
Validated: 524297
EndChar

StartChar: Ecircumflex
Encoding: 202 202 101
GlifName: E_circumflex
Width: 2493
Flags: W
LayerCount: 2
Fore
SplineSet
1252 3828 m 29,0,-1
 1252 3912 l 21,1,-1
 1436 3912 l 5,2,-1
 1436 3819 l 5,3,-1
 1530 3819 l 5,4,-1
 1530 3659 l 5,5,-1
 1619 3659 l 5,6,-1
 1619 3571 l 5,7,-1
 1708 3571 l 5,8,-1
 1708 3389 l 5,9,-1
 1797 3389 l 5,10,-1
 1797 3124 l 5,11,-1
 1891 3124 l 5,12,-1
 1891 2942 l 5,13,-1
 1980 2942 l 13,14,-1
 1980 2763 l 5,15,-1
 1708 2763 l 5,16,-1
 1708 2670 l 5,17,-1
 1431 2670 l 5,18,-1
 1431 2763 l 5,19,-1
 1342 2763 l 5,20,-1
 1342 2940 l 5,21,-1
 1252 2940 l 5,22,-1
 1252 3121 l 5,23,-1
 1163 3121 l 5,24,-1
 1163 3298 l 5,25,-1
 1074 3298 l 5,26,-1
 1074 3209 l 5,27,-1
 985 3209 l 5,28,-1
 985 3033 l 5,29,-1
 896 3033 l 5,30,-1
 896 2940 l 5,31,-1
 802 2940 l 5,32,-1
 802 2763 l 5,33,-1
 712 2763 l 5,34,-1
 712 2670 l 5,35,-1
 623 2670 l 5,36,-1
 623 2582 l 5,37,-1
 435 2582 l 5,38,-1
 435 2670 l 5,39,-1
 346 2670 l 5,40,-1
 346 2763 l 5,41,-1
 257 2763 l 5,42,-1
 257 2851 l 5,43,-1
 163 2851 l 5,44,-1
 163 3111 l 5,45,-1
 257 3111 l 5,46,-1
 257 3199 l 5,47,-1
 346 3199 l 5,48,-1
 346 3288 l 5,49,-1
 435 3288 l 5,50,-1
 435 3381 l 5,51,-1
 524 3381 l 5,52,-1
 524 3469 l 5,53,-1
 618 3469 l 5,54,-1
 618 3558 l 5,55,-1
 707 3558 l 13,56,-1
 708 3650 l 21,57,-1
 797 3650 l 5,58,-1
 797 3738 l 5,59,-1
 980 3738 l 5,60,-1
 980 3827 l 13,61,-1
 1252 3828 l 29,0,-1
356 0 m 1,62,-1
 356 356 l 1,63,-1
 267 356 l 1,64,-1
 267 890 l 1,65,-1
 178 890 l 1,66,-1
 178 1424 l 1,67,-1
 89 1424 l 1,68,-1
 89 1958 l 1,69,-1
 0 1958 l 1,70,-1
 0 2226 l 1,71,-1
 267 2226 l 1,72,-1
 267 2315 l 1,73,-1
 801 2315 l 1,74,-1
 801 2404 l 1,75,-1
 1246 2404 l 1,76,-1
 1246 2493 l 1,77,-1
 1780 2493 l 1,78,-1
 1780 2582 l 1,79,-1
 2048 2582 l 1,80,-1
 2048 2137 l 1,81,-1
 1958 2137 l 1,82,-1
 1958 1780 l 1,83,-1
 1691 1780 l 1,84,-1
 1691 1691 l 1,85,-1
 1335 1691 l 1,86,-1
 1335 1602 l 1,87,-1
 979 1602 l 1,88,-1
 979 1513 l 1,89,-1
 890 1513 l 1,90,-1
 890 1335 l 1,91,-1
 1068 1335 l 1,92,-1
 1068 1424 l 1,93,-1
 1602 1424 l 1,94,-1
 1602 1513 l 1,95,-1
 1869 1513 l 1,96,-1
 1869 1157 l 1,97,-1
 1780 1157 l 1,98,-1
 1780 890 l 1,99,-1
 1335 890 l 1,100,-1
 1335 801 l 1,101,-1
 979 801 l 1,102,-1
 979 534 l 1,103,-1
 1157 534 l 1,104,-1
 1157 623 l 1,105,-1
 1602 623 l 1,106,-1
 1602 712 l 1,107,-1
 2137 712 l 1,108,-1
 2137 801 l 1,109,-1
 2404 801 l 1,110,-1
 2404 534 l 1,111,-1
 2315 534 l 1,112,-1
 2315 178 l 1,113,-1
 2226 178 l 1,114,-1
 2226 0 l 1,115,-1
 356 0 l 1,62,-1
EndSplineSet
Validated: 1
EndChar

StartChar: Edieresis
Encoding: 203 203 102
GlifName: E_dieresis
Width: 2493
Flags: W
LayerCount: 2
Fore
SplineSet
144 3350 m 1,0,-1
 500 3350 l 1,1,-1
 500 3261 l 1,2,-1
 856 3261 l 1,3,-1
 856 2638 l 1,4,-1
 144 2638 l 1,5,-1
 144 3350 l 1,0,-1
1390 3350 m 5,6,-1
 1746 3350 l 5,7,-1
 1746 3439 l 5,8,-1
 2102 3439 l 5,9,-1
 2102 3083 l 5,10,-1
 2192 3083 l 5,11,-1
 2192 2727 l 5,12,-1
 1479 2727 l 5,13,-1
 1479 3083 l 5,14,-1
 1390 3083 l 5,15,-1
 1390 3350 l 5,6,-1
356 0 m 1,16,-1
 356 356 l 1,17,-1
 267 356 l 1,18,-1
 267 890 l 1,19,-1
 178 890 l 1,20,-1
 178 1424 l 1,21,-1
 89 1424 l 1,22,-1
 89 1958 l 1,23,-1
 0 1958 l 1,24,-1
 0 2226 l 1,25,-1
 267 2226 l 1,26,-1
 267 2315 l 1,27,-1
 801 2315 l 1,28,-1
 801 2404 l 1,29,-1
 1246 2404 l 1,30,-1
 1246 2493 l 1,31,-1
 1780 2493 l 1,32,-1
 1780 2582 l 1,33,-1
 2048 2582 l 1,34,-1
 2048 2137 l 1,35,-1
 1958 2137 l 1,36,-1
 1958 1780 l 1,37,-1
 1691 1780 l 1,38,-1
 1691 1691 l 1,39,-1
 1335 1691 l 1,40,-1
 1335 1602 l 1,41,-1
 979 1602 l 1,42,-1
 979 1513 l 1,43,-1
 890 1513 l 1,44,-1
 890 1335 l 1,45,-1
 1068 1335 l 1,46,-1
 1068 1424 l 1,47,-1
 1602 1424 l 1,48,-1
 1602 1513 l 1,49,-1
 1869 1513 l 1,50,-1
 1869 1157 l 1,51,-1
 1780 1157 l 1,52,-1
 1780 890 l 1,53,-1
 1335 890 l 1,54,-1
 1335 801 l 1,55,-1
 979 801 l 1,56,-1
 979 534 l 1,57,-1
 1157 534 l 1,58,-1
 1157 623 l 1,59,-1
 1602 623 l 1,60,-1
 1602 712 l 1,61,-1
 2137 712 l 1,62,-1
 2137 801 l 1,63,-1
 2404 801 l 1,64,-1
 2404 534 l 1,65,-1
 2315 534 l 1,66,-1
 2315 178 l 1,67,-1
 2226 178 l 1,68,-1
 2226 0 l 1,69,-1
 356 0 l 1,16,-1
EndSplineSet
Validated: 1
EndChar

StartChar: Igrave
Encoding: 204 204 103
GlifName: I_grave
Width: 979
Flags: W
LayerCount: 2
Fore
SplineSet
0.0966796875 3835.11523438 m 5,0,-1
 178.068359375 3835.11523438 l 5,1,-1
 178.068359375 3745.51953125 l 5,2,-1
 267.053710938 3745.51953125 l 5,3,-1
 267.053710938 3655.92871094 l 5,4,-1
 356.04296875 3655.92871094 l 5,5,-1
 356.04296875 3566.33691406 l 5,6,-1
 445.030273438 3566.33691406 l 5,7,-1
 445.030273438 3476.74511719 l 5,8,-1
 534.015625 3476.74511719 l 5,9,-1
 534.015625 3297.55566406 l 5,10,-1
 623 3297.55566406 l 5,11,-1
 623 3207.96386719 l 5,12,-1
 711.987304688 3207.96386719 l 5,13,-1
 711.987304688 3118.37207031 l 5,14,-1
 800.975585938 3118.37207031 l 5,15,-1
 800.975585938 2939.18945312 l 5,16,-1
 711.987304688 2939.18945312 l 5,17,-1
 711.987304688 2849.59082031 l 5,18,-1
 623 2849.59082031 l 5,19,-1
 623 2760 l 5,20,-1
 445.030273438 2760 l 5,21,-1
 445.030273438 2849.59082031 l 5,22,-1
 267.053710938 2849.59082031 l 5,23,-1
 267.053710938 2939.18945312 l 5,24,-1
 89.083984375 2939.18945312 l 5,25,-1
 89.083984375 3028.78027344 l 5,26,-1
 0.0966796875 3028.78027344 l 5,27,-1
 0.0966796875 3118.37207031 l 5,28,-1
 -177.87890625 3118.37207031 l 5,29,-1
 -177.87890625 3207.96386719 l 5,30,-1
 -355.849609375 3207.96386719 l 5,31,-1
 -355.849609375 3297.55566406 l 5,32,-1
 -444.834960938 3297.55566406 l 5,33,-1
 -444.834960938 3476.74511719 l 5,34,-1
 -355.849609375 3476.74511719 l 5,35,-1
 -355.849609375 3566.33691406 l 5,36,-1
 -266.862304688 3566.33691406 l 5,37,-1
 -266.862304688 3655.92871094 l 5,38,-1
 -88.88671875 3655.92871094 l 5,39,-1
 -88.88671875 3745.51953125 l 5,40,-1
 0.0966796875 3745.51953125 l 5,41,-1
 0.0966796875 3835.11523438 l 5,0,-1
0 0 m 1,42,-1
 0 2582 l 1,43,-1
 623 2582 l 1,44,-1
 623 1958 l 1,45,-1
 712 1958 l 1,46,-1
 712 1246 l 1,47,-1
 801 1246 l 1,48,-1
 801 534 l 1,49,-1
 890 534 l 1,50,-1
 890 0 l 1,51,-1
 0 0 l 1,42,-1
EndSplineSet
Validated: 524289
EndChar

StartChar: Iacute
Encoding: 205 205 104
GlifName: I_acute
Width: 979
Flags: W
LayerCount: 2
Fore
SplineSet
800.890625 3834.52441406 m 5,0,-1
 622.918945312 3834.52441406 l 5,1,-1
 622.918945312 3744.92871094 l 5,2,-1
 533.93359375 3744.92871094 l 5,3,-1
 533.93359375 3655.33789062 l 5,4,-1
 444.944335938 3655.33789062 l 5,5,-1
 444.944335938 3565.74609375 l 5,6,-1
 355.95703125 3565.74609375 l 5,7,-1
 355.95703125 3476.15429688 l 5,8,-1
 266.971679688 3476.15429688 l 5,9,-1
 266.971679688 3296.96484375 l 5,10,-1
 177.987304688 3296.96484375 l 5,11,-1
 177.987304688 3207.37304688 l 5,12,-1
 89 3207.37304688 l 5,13,-1
 89 3117.78125 l 5,14,-1
 0.01171875 3117.78125 l 5,15,-1
 0.01171875 2938.59863281 l 5,16,-1
 89 2938.59863281 l 5,17,-1
 89 2849 l 5,18,-1
 177.987304688 2849 l 5,19,-1
 177.987304688 2759.40917969 l 5,20,-1
 355.95703125 2759.40917969 l 5,21,-1
 355.95703125 2849 l 5,22,-1
 533.93359375 2849 l 5,23,-1
 533.93359375 2938.59863281 l 5,24,-1
 711.903320312 2938.59863281 l 5,25,-1
 711.903320312 3028.18945312 l 5,26,-1
 800.890625 3028.18945312 l 5,27,-1
 800.890625 3117.78125 l 5,28,-1
 978.866210938 3117.78125 l 5,29,-1
 978.866210938 3207.37304688 l 5,30,-1
 1156.83691406 3207.37304688 l 5,31,-1
 1156.83691406 3296.96484375 l 5,32,-1
 1245.82226562 3296.96484375 l 5,33,-1
 1245.82226562 3476.15429688 l 5,34,-1
 1156.83691406 3476.15429688 l 5,35,-1
 1156.83691406 3565.74609375 l 5,36,-1
 1067.84960938 3565.74609375 l 5,37,-1
 1067.84960938 3655.33789062 l 5,38,-1
 889.874023438 3655.33789062 l 5,39,-1
 889.874023438 3744.92871094 l 5,40,-1
 800.890625 3744.92871094 l 5,41,-1
 800.890625 3834.52441406 l 5,0,-1
0 0 m 1,42,-1
 0 2582 l 1,43,-1
 623 2582 l 1,44,-1
 623 1958 l 1,45,-1
 712 1958 l 1,46,-1
 712 1246 l 1,47,-1
 801 1246 l 1,48,-1
 801 534 l 1,49,-1
 890 534 l 1,50,-1
 890 0 l 1,51,-1
 0 0 l 1,42,-1
EndSplineSet
Validated: 524297
EndChar

StartChar: Icircumflex
Encoding: 206 206 105
GlifName: I_circumflex
Width: 979
Flags: W
LayerCount: 2
Fore
SplineSet
444 3918 m 25,0,-1
 444 4002 l 17,1,-1
 628 4002 l 1,2,-1
 628 3909 l 1,3,-1
 722 3909 l 1,4,-1
 722 3749 l 1,5,-1
 811 3749 l 1,6,-1
 811 3661 l 1,7,-1
 900 3661 l 1,8,-1
 900 3479 l 1,9,-1
 989 3479 l 1,10,-1
 989 3214 l 1,11,-1
 1083 3214 l 1,12,-1
 1083 3032 l 1,13,-1
 1172 3032 l 9,14,-1
 1172 2853 l 1,15,-1
 900 2853 l 1,16,-1
 900 2760 l 1,17,-1
 623 2760 l 1,18,-1
 623 2853 l 1,19,-1
 534 2853 l 1,20,-1
 534 3030 l 1,21,-1
 444 3030 l 1,22,-1
 444 3211 l 1,23,-1
 355 3211 l 1,24,-1
 355 3388 l 1,25,-1
 266 3388 l 1,26,-1
 266 3299 l 1,27,-1
 177 3299 l 1,28,-1
 177 3123 l 1,29,-1
 88 3123 l 1,30,-1
 88 3030 l 1,31,-1
 -6 3030 l 1,32,-1
 -6 2853 l 1,33,-1
 -96 2853 l 1,34,-1
 -96 2760 l 1,35,-1
 -185 2760 l 1,36,-1
 -185 2672 l 1,37,-1
 -373 2672 l 1,38,-1
 -373 2760 l 1,39,-1
 -462 2760 l 1,40,-1
 -462 2853 l 1,41,-1
 -551 2853 l 1,42,-1
 -551 2941 l 1,43,-1
 -645 2941 l 1,44,-1
 -645 3201 l 1,45,-1
 -551 3201 l 1,46,-1
 -551 3289 l 1,47,-1
 -462 3289 l 1,48,-1
 -462 3378 l 1,49,-1
 -373 3378 l 1,50,-1
 -373 3471 l 1,51,-1
 -284 3471 l 1,52,-1
 -284 3559 l 1,53,-1
 -190 3559 l 1,54,-1
 -190 3648 l 1,55,-1
 -101 3648 l 9,56,-1
 -100 3740 l 17,57,-1
 -11 3740 l 1,58,-1
 -11 3828 l 1,59,-1
 172 3828 l 1,60,-1
 172 3917 l 9,61,-1
 444 3918 l 25,0,-1
0 0 m 1,62,-1
 0 2582 l 1,63,-1
 623 2582 l 1,64,-1
 623 1958 l 1,65,-1
 712 1958 l 1,66,-1
 712 1246 l 1,67,-1
 801 1246 l 1,68,-1
 801 534 l 1,69,-1
 890 534 l 1,70,-1
 890 0 l 1,71,-1
 0 0 l 1,62,-1
EndSplineSet
Validated: 1
EndChar

StartChar: Idieresis
Encoding: 207 207 106
GlifName: I_dieresis
Width: 979
Flags: W
LayerCount: 2
Fore
SplineSet
0 0 m 1,0,-1
 0 2582 l 1,1,-1
 623 2582 l 1,2,-1
 623 1958 l 1,3,-1
 712 1958 l 1,4,-1
 712 1246 l 1,5,-1
 801 1246 l 1,6,-1
 801 534 l 1,7,-1
 890 534 l 1,8,-1
 890 0 l 1,9,-1
 0 0 l 1,0,-1
EndSplineSet
Validated: 1
EndChar

StartChar: Ograve
Encoding: 210 210 107
GlifName: O_grave
Width: 2226
Flags: W
LayerCount: 2
Fore
SplineSet
801.096679688 3746.11523438 m 5,0,-1
 979.068359375 3746.11523438 l 5,1,-1
 979.068359375 3656.51953125 l 5,2,-1
 1068.05371094 3656.51953125 l 5,3,-1
 1068.05371094 3566.92871094 l 5,4,-1
 1157.04296875 3566.92871094 l 5,5,-1
 1157.04296875 3477.33691406 l 5,6,-1
 1246.03027344 3477.33691406 l 5,7,-1
 1246.03027344 3387.74511719 l 5,8,-1
 1335.015625 3387.74511719 l 5,9,-1
 1335.015625 3208.55566406 l 5,10,-1
 1424 3208.55566406 l 5,11,-1
 1424 3118.96386719 l 5,12,-1
 1512.98730469 3118.96386719 l 5,13,-1
 1512.98730469 3029.37207031 l 5,14,-1
 1601.97558594 3029.37207031 l 5,15,-1
 1601.97558594 2850.18945312 l 5,16,-1
 1512.98730469 2850.18945312 l 5,17,-1
 1512.98730469 2760.59082031 l 5,18,-1
 1424 2760.59082031 l 5,19,-1
 1424 2671 l 5,20,-1
 1246.03027344 2671 l 5,21,-1
 1246.03027344 2760.59082031 l 5,22,-1
 1068.05371094 2760.59082031 l 5,23,-1
 1068.05371094 2850.18945312 l 5,24,-1
 890.083984375 2850.18945312 l 5,25,-1
 890.083984375 2939.78027344 l 5,26,-1
 801.096679688 2939.78027344 l 5,27,-1
 801.096679688 3029.37207031 l 5,28,-1
 623.12109375 3029.37207031 l 5,29,-1
 623.12109375 3118.96386719 l 5,30,-1
 445.150390625 3118.96386719 l 5,31,-1
 445.150390625 3208.55566406 l 5,32,-1
 356.165039062 3208.55566406 l 5,33,-1
 356.165039062 3387.74511719 l 5,34,-1
 445.150390625 3387.74511719 l 5,35,-1
 445.150390625 3477.33691406 l 5,36,-1
 534.137695312 3477.33691406 l 5,37,-1
 534.137695312 3566.92871094 l 5,38,-1
 712.11328125 3566.92871094 l 5,39,-1
 712.11328125 3656.51953125 l 5,40,-1
 801.096679688 3656.51953125 l 5,41,-1
 801.096679688 3746.11523438 l 5,0,-1
1157 979 m 1,42,-1
 1157 1068 l 1,43,-1
 1246 1068 l 1,44,-1
 1246 1157 l 1,45,-1
 1335 1157 l 1,46,-1
 1335 1424 l 1,47,-1
 1246 1424 l 1,48,-1
 1246 1513 l 1,49,-1
 1157 1513 l 1,50,-1
 1157 1602 l 1,51,-1
 1068 1602 l 1,52,-1
 1068 1513 l 1,53,-1
 979 1513 l 1,54,-1
 979 1424 l 1,55,-1
 890 1424 l 1,56,-1
 890 1157 l 1,57,-1
 979 1157 l 1,58,-1
 979 1068 l 1,59,-1
 1068 1068 l 1,60,-1
 1068 979 l 1,61,-1
 1157 979 l 1,42,-1
623 0 m 1,62,-1
 623 89 l 1,63,-1
 534 89 l 1,64,-1
 534 178 l 1,65,-1
 445 178 l 1,66,-1
 445 267 l 1,67,-1
 356 267 l 1,68,-1
 356 356 l 1,69,-1
 267 356 l 1,70,-1
 267 445 l 1,71,-1
 178 445 l 1,72,-1
 178 534 l 1,73,-1
 89 534 l 1,74,-1
 89 623 l 1,75,-1
 0 623 l 1,76,-1
 0 1424 l 1,77,-1
 89 1424 l 1,78,-1
 89 1958 l 1,79,-1
 178 1958 l 1,80,-1
 178 2048 l 1,81,-1
 267 2048 l 1,82,-1
 267 2137 l 1,83,-1
 356 2137 l 1,84,-1
 356 2226 l 1,85,-1
 445 2226 l 1,86,-1
 445 2315 l 1,87,-1
 534 2315 l 1,88,-1
 534 2404 l 1,89,-1
 623 2404 l 1,90,-1
 623 2493 l 1,91,-1
 1513 2493 l 1,92,-1
 1513 2404 l 1,93,-1
 1602 2404 l 1,94,-1
 1602 2315 l 1,95,-1
 1691 2315 l 1,96,-1
 1691 2226 l 1,97,-1
 1780 2226 l 1,98,-1
 1780 2137 l 1,99,-1
 1869 2137 l 1,100,-1
 1869 2048 l 1,101,-1
 1958 2048 l 1,102,-1
 1958 1958 l 1,103,-1
 2048 1958 l 1,104,-1
 2048 1335 l 1,105,-1
 2137 1335 l 1,106,-1
 2137 623 l 1,107,-1
 2048 623 l 1,108,-1
 2048 534 l 1,109,-1
 1958 534 l 1,110,-1
 1958 445 l 1,111,-1
 1869 445 l 1,112,-1
 1869 356 l 1,113,-1
 1780 356 l 1,114,-1
 1780 267 l 1,115,-1
 1691 267 l 1,116,-1
 1691 178 l 1,117,-1
 1602 178 l 1,118,-1
 1602 89 l 1,119,-1
 1513 89 l 1,120,-1
 1513 0 l 1,121,-1
 623 0 l 1,62,-1
EndSplineSet
Validated: 1
EndChar

StartChar: Oacute
Encoding: 211 211 108
GlifName: O_acute
Width: 2226
Flags: W
LayerCount: 2
Fore
SplineSet
1601.890625 3745.92578125 m 5,0,-1
 1423.91894531 3745.92578125 l 5,1,-1
 1423.91894531 3656.33007812 l 5,2,-1
 1334.93359375 3656.33007812 l 5,3,-1
 1334.93359375 3566.73925781 l 5,4,-1
 1245.94433594 3566.73925781 l 5,5,-1
 1245.94433594 3477.14746094 l 5,6,-1
 1156.95703125 3477.14746094 l 5,7,-1
 1156.95703125 3387.55566406 l 5,8,-1
 1067.97167969 3387.55566406 l 5,9,-1
 1067.97167969 3208.36621094 l 5,10,-1
 978.987304688 3208.36621094 l 5,11,-1
 978.987304688 3118.77441406 l 5,12,-1
 890 3118.77441406 l 5,13,-1
 890 3029.18261719 l 5,14,-1
 801.01171875 3029.18261719 l 5,15,-1
 801.01171875 2850 l 5,16,-1
 890 2850 l 5,17,-1
 890 2760.40136719 l 5,18,-1
 978.987304688 2760.40136719 l 5,19,-1
 978.987304688 2670.81054688 l 5,20,-1
 1156.95703125 2670.81054688 l 5,21,-1
 1156.95703125 2760.40136719 l 5,22,-1
 1334.93359375 2760.40136719 l 5,23,-1
 1334.93359375 2850 l 5,24,-1
 1512.90332031 2850 l 5,25,-1
 1512.90332031 2939.59082031 l 5,26,-1
 1601.890625 2939.59082031 l 5,27,-1
 1601.890625 3029.18261719 l 5,28,-1
 1779.86621094 3029.18261719 l 5,29,-1
 1779.86621094 3118.77441406 l 5,30,-1
 1957.83691406 3118.77441406 l 5,31,-1
 1957.83691406 3208.36621094 l 5,32,-1
 2046.82226562 3208.36621094 l 5,33,-1
 2046.82226562 3387.55566406 l 5,34,-1
 1957.83691406 3387.55566406 l 5,35,-1
 1957.83691406 3477.14746094 l 5,36,-1
 1868.84960938 3477.14746094 l 5,37,-1
 1868.84960938 3566.73925781 l 5,38,-1
 1690.87402344 3566.73925781 l 5,39,-1
 1690.87402344 3656.33007812 l 5,40,-1
 1601.890625 3656.33007812 l 5,41,-1
 1601.890625 3745.92578125 l 5,0,-1
1157 979 m 1,42,-1
 1157 1068 l 1,43,-1
 1246 1068 l 1,44,-1
 1246 1157 l 1,45,-1
 1335 1157 l 1,46,-1
 1335 1424 l 1,47,-1
 1246 1424 l 1,48,-1
 1246 1513 l 1,49,-1
 1157 1513 l 1,50,-1
 1157 1602 l 1,51,-1
 1068 1602 l 1,52,-1
 1068 1513 l 1,53,-1
 979 1513 l 1,54,-1
 979 1424 l 1,55,-1
 890 1424 l 1,56,-1
 890 1157 l 1,57,-1
 979 1157 l 1,58,-1
 979 1068 l 1,59,-1
 1068 1068 l 1,60,-1
 1068 979 l 1,61,-1
 1157 979 l 1,42,-1
623 0 m 1,62,-1
 623 89 l 1,63,-1
 534 89 l 1,64,-1
 534 178 l 1,65,-1
 445 178 l 1,66,-1
 445 267 l 1,67,-1
 356 267 l 1,68,-1
 356 356 l 1,69,-1
 267 356 l 1,70,-1
 267 445 l 1,71,-1
 178 445 l 1,72,-1
 178 534 l 1,73,-1
 89 534 l 1,74,-1
 89 623 l 1,75,-1
 0 623 l 1,76,-1
 0 1424 l 1,77,-1
 89 1424 l 1,78,-1
 89 1958 l 1,79,-1
 178 1958 l 1,80,-1
 178 2048 l 1,81,-1
 267 2048 l 1,82,-1
 267 2137 l 1,83,-1
 356 2137 l 1,84,-1
 356 2226 l 1,85,-1
 445 2226 l 1,86,-1
 445 2315 l 1,87,-1
 534 2315 l 1,88,-1
 534 2404 l 1,89,-1
 623 2404 l 1,90,-1
 623 2493 l 1,91,-1
 1513 2493 l 1,92,-1
 1513 2404 l 1,93,-1
 1602 2404 l 1,94,-1
 1602 2315 l 1,95,-1
 1691 2315 l 1,96,-1
 1691 2226 l 1,97,-1
 1780 2226 l 1,98,-1
 1780 2137 l 1,99,-1
 1869 2137 l 1,100,-1
 1869 2048 l 1,101,-1
 1958 2048 l 1,102,-1
 1958 1958 l 1,103,-1
 2048 1958 l 1,104,-1
 2048 1335 l 1,105,-1
 2137 1335 l 1,106,-1
 2137 623 l 1,107,-1
 2048 623 l 1,108,-1
 2048 534 l 1,109,-1
 1958 534 l 1,110,-1
 1958 445 l 1,111,-1
 1869 445 l 1,112,-1
 1869 356 l 1,113,-1
 1780 356 l 1,114,-1
 1780 267 l 1,115,-1
 1691 267 l 1,116,-1
 1691 178 l 1,117,-1
 1602 178 l 1,118,-1
 1602 89 l 1,119,-1
 1513 89 l 1,120,-1
 1513 0 l 1,121,-1
 623 0 l 1,62,-1
EndSplineSet
Validated: 9
EndChar

StartChar: Ocircumflex
Encoding: 212 212 109
GlifName: O_circumflex
Width: 2226
Flags: W
LayerCount: 2
Fore
SplineSet
1252 3828 m 29,0,-1
 1252 3912 l 21,1,-1
 1436 3912 l 5,2,-1
 1436 3819 l 5,3,-1
 1530 3819 l 5,4,-1
 1530 3659 l 5,5,-1
 1619 3659 l 5,6,-1
 1619 3571 l 5,7,-1
 1708 3571 l 5,8,-1
 1708 3389 l 5,9,-1
 1797 3389 l 5,10,-1
 1797 3124 l 5,11,-1
 1891 3124 l 5,12,-1
 1891 2942 l 5,13,-1
 1980 2942 l 13,14,-1
 1980 2763 l 5,15,-1
 1708 2763 l 5,16,-1
 1708 2670 l 5,17,-1
 1431 2670 l 5,18,-1
 1431 2763 l 5,19,-1
 1342 2763 l 5,20,-1
 1342 2940 l 5,21,-1
 1252 2940 l 5,22,-1
 1252 3121 l 5,23,-1
 1163 3121 l 5,24,-1
 1163 3298 l 5,25,-1
 1074 3298 l 5,26,-1
 1074 3209 l 5,27,-1
 985 3209 l 5,28,-1
 985 3033 l 5,29,-1
 896 3033 l 5,30,-1
 896 2940 l 5,31,-1
 802 2940 l 5,32,-1
 802 2763 l 5,33,-1
 712 2763 l 5,34,-1
 712 2670 l 5,35,-1
 623 2670 l 5,36,-1
 623 2582 l 5,37,-1
 435 2582 l 5,38,-1
 435 2670 l 5,39,-1
 346 2670 l 5,40,-1
 346 2763 l 5,41,-1
 257 2763 l 5,42,-1
 257 2851 l 5,43,-1
 163 2851 l 5,44,-1
 163 3111 l 5,45,-1
 257 3111 l 5,46,-1
 257 3199 l 5,47,-1
 346 3199 l 5,48,-1
 346 3288 l 5,49,-1
 435 3288 l 5,50,-1
 435 3381 l 5,51,-1
 524 3381 l 5,52,-1
 524 3469 l 5,53,-1
 618 3469 l 5,54,-1
 618 3558 l 5,55,-1
 707 3558 l 13,56,-1
 708 3650 l 21,57,-1
 797 3650 l 5,58,-1
 797 3738 l 5,59,-1
 980 3738 l 5,60,-1
 980 3827 l 13,61,-1
 1252 3828 l 29,0,-1
1157 979 m 1,62,-1
 1157 1068 l 1,63,-1
 1246 1068 l 1,64,-1
 1246 1157 l 1,65,-1
 1335 1157 l 1,66,-1
 1335 1424 l 1,67,-1
 1246 1424 l 1,68,-1
 1246 1513 l 1,69,-1
 1157 1513 l 1,70,-1
 1157 1602 l 1,71,-1
 1068 1602 l 1,72,-1
 1068 1513 l 1,73,-1
 979 1513 l 1,74,-1
 979 1424 l 1,75,-1
 890 1424 l 1,76,-1
 890 1157 l 1,77,-1
 979 1157 l 1,78,-1
 979 1068 l 1,79,-1
 1068 1068 l 1,80,-1
 1068 979 l 1,81,-1
 1157 979 l 1,62,-1
623 0 m 1,82,-1
 623 89 l 1,83,-1
 534 89 l 1,84,-1
 534 178 l 1,85,-1
 445 178 l 1,86,-1
 445 267 l 1,87,-1
 356 267 l 1,88,-1
 356 356 l 1,89,-1
 267 356 l 1,90,-1
 267 445 l 1,91,-1
 178 445 l 1,92,-1
 178 534 l 1,93,-1
 89 534 l 1,94,-1
 89 623 l 1,95,-1
 0 623 l 1,96,-1
 0 1424 l 1,97,-1
 89 1424 l 1,98,-1
 89 1958 l 1,99,-1
 178 1958 l 1,100,-1
 178 2048 l 1,101,-1
 267 2048 l 1,102,-1
 267 2137 l 1,103,-1
 356 2137 l 1,104,-1
 356 2226 l 1,105,-1
 445 2226 l 1,106,-1
 445 2315 l 1,107,-1
 534 2315 l 1,108,-1
 534 2404 l 1,109,-1
 623 2404 l 1,110,-1
 623 2493 l 1,111,-1
 1513 2493 l 1,112,-1
 1513 2404 l 1,113,-1
 1602 2404 l 1,114,-1
 1602 2315 l 1,115,-1
 1691 2315 l 1,116,-1
 1691 2226 l 1,117,-1
 1780 2226 l 1,118,-1
 1780 2137 l 1,119,-1
 1869 2137 l 1,120,-1
 1869 2048 l 1,121,-1
 1958 2048 l 1,122,-1
 1958 1958 l 1,123,-1
 2048 1958 l 1,124,-1
 2048 1335 l 1,125,-1
 2137 1335 l 1,126,-1
 2137 623 l 1,127,-1
 2048 623 l 1,128,-1
 2048 534 l 1,129,-1
 1958 534 l 1,130,-1
 1958 445 l 1,131,-1
 1869 445 l 1,132,-1
 1869 356 l 1,133,-1
 1780 356 l 1,134,-1
 1780 267 l 1,135,-1
 1691 267 l 1,136,-1
 1691 178 l 1,137,-1
 1602 178 l 1,138,-1
 1602 89 l 1,139,-1
 1513 89 l 1,140,-1
 1513 0 l 1,141,-1
 623 0 l 1,82,-1
EndSplineSet
Validated: 1
EndChar

StartChar: Otilde
Encoding: 213 213 110
GlifName: O_tilde
Width: 2226
Flags: W
LayerCount: 2
Fore
SplineSet
178 3207 m 1052,0,-1
267 2760 m 5,1,-1
 267 2671 l 5,2,-1
 178 2671 l 5,3,-1
 178 2760 l 5,4,-1
 89 2760 l 5,5,-1
 89 2938 l 5,6,-1
 0 2938 l 5,7,-1
 0 3116 l 5,8,-1
 89 3116 l 5,9,-1
 89 3205 l 5,10,-1
 178 3205 l 5,11,-1
 178 3294 l 5,12,-1
 267 3294 l 5,13,-1
 267 3383 l 5,14,-1
 356 3383 l 5,15,-1
 356 3472 l 5,16,-1
 1246 3472 l 5,17,-1
 1246 3383 l 5,18,-1
 1335 3383 l 5,19,-1
 1335 3205 l 5,20,-1
 1424 3205 l 5,21,-1
 1424 3116 l 5,22,-1
 1602 3116 l 5,23,-1
 1602 3294 l 5,24,-1
 1691 3294 l 5,25,-1
 1691 3651 l 5,26,-1
 1958 3651 l 5,27,-1
 1958 3562 l 5,28,-1
 2226 3562 l 5,29,-1
 2226 3294 l 5,30,-1
 2137 3294 l 5,31,-1
 2137 2938 l 5,32,-1
 2048 2938 l 5,33,-1
 2048 2849 l 5,34,-1
 1869 2849 l 5,35,-1
 1869 2760 l 5,36,-1
 1691 2760 l 5,37,-1
 1691 2671 l 5,38,-1
 1068 2671 l 5,39,-1
 1068 2760 l 5,40,-1
 979 2760 l 5,41,-1
 979 2849 l 5,42,-1
 890 2849 l 5,43,-1
 890 2938 l 5,44,-1
 534 2938 l 5,45,-1
 534 2849 l 5,46,-1
 445 2849 l 5,47,-1
 445 2760 l 5,48,-1
 267 2760 l 5,1,-1
1157 979 m 1,49,-1
 1157 1068 l 1,50,-1
 1246 1068 l 1,51,-1
 1246 1157 l 1,52,-1
 1335 1157 l 1,53,-1
 1335 1424 l 1,54,-1
 1246 1424 l 1,55,-1
 1246 1513 l 1,56,-1
 1157 1513 l 1,57,-1
 1157 1602 l 1,58,-1
 1068 1602 l 1,59,-1
 1068 1513 l 1,60,-1
 979 1513 l 1,61,-1
 979 1424 l 1,62,-1
 890 1424 l 1,63,-1
 890 1157 l 1,64,-1
 979 1157 l 1,65,-1
 979 1068 l 1,66,-1
 1068 1068 l 1,67,-1
 1068 979 l 1,68,-1
 1157 979 l 1,49,-1
623 0 m 1,69,-1
 623 89 l 1,70,-1
 534 89 l 1,71,-1
 534 178 l 1,72,-1
 445 178 l 1,73,-1
 445 267 l 1,74,-1
 356 267 l 1,75,-1
 356 356 l 1,76,-1
 267 356 l 1,77,-1
 267 445 l 1,78,-1
 178 445 l 1,79,-1
 178 534 l 1,80,-1
 89 534 l 1,81,-1
 89 623 l 1,82,-1
 0 623 l 1,83,-1
 0 1424 l 1,84,-1
 89 1424 l 1,85,-1
 89 1958 l 1,86,-1
 178 1958 l 1,87,-1
 178 2048 l 1,88,-1
 267 2048 l 1,89,-1
 267 2137 l 1,90,-1
 356 2137 l 1,91,-1
 356 2226 l 1,92,-1
 445 2226 l 1,93,-1
 445 2315 l 1,94,-1
 534 2315 l 1,95,-1
 534 2404 l 1,96,-1
 623 2404 l 1,97,-1
 623 2493 l 1,98,-1
 1513 2493 l 1,99,-1
 1513 2404 l 1,100,-1
 1602 2404 l 1,101,-1
 1602 2315 l 1,102,-1
 1691 2315 l 1,103,-1
 1691 2226 l 1,104,-1
 1780 2226 l 1,105,-1
 1780 2137 l 1,106,-1
 1869 2137 l 1,107,-1
 1869 2048 l 1,108,-1
 1958 2048 l 1,109,-1
 1958 1958 l 1,110,-1
 2048 1958 l 1,111,-1
 2048 1335 l 1,112,-1
 2137 1335 l 1,113,-1
 2137 623 l 1,114,-1
 2048 623 l 1,115,-1
 2048 534 l 1,116,-1
 1958 534 l 1,117,-1
 1958 445 l 1,118,-1
 1869 445 l 1,119,-1
 1869 356 l 1,120,-1
 1780 356 l 1,121,-1
 1780 267 l 1,122,-1
 1691 267 l 1,123,-1
 1691 178 l 1,124,-1
 1602 178 l 1,125,-1
 1602 89 l 1,126,-1
 1513 89 l 1,127,-1
 1513 0 l 1,128,-1
 623 0 l 1,69,-1
EndSplineSet
Validated: 1
EndChar

StartChar: Odieresis
Encoding: 214 214 111
GlifName: O_dieresis
Width: 2226
Flags: W
LayerCount: 2
Fore
SplineSet
267 3383 m 5,0,-1
 534 3383 l 5,1,-1
 534 3294 l 5,2,-1
 890 3294 l 5,3,-1
 890 2760 l 5,4,-1
 267 2760 l 5,5,-1
 267 3383 l 5,0,-1
1246 3205 m 1,6,-1
 1513 3205 l 1,7,-1
 1513 3294 l 1,8,-1
 1869 3294 l 1,9,-1
 1869 2938 l 1,10,-1
 1959 2938 l 1,11,-1
 1959 2671 l 1,12,-1
 1335 2671 l 1,13,-1
 1335 2938 l 1,14,-1
 1246 2938 l 1,15,-1
 1246 3205 l 1,6,-1
1157 979 m 1,16,-1
 1157 1068 l 1,17,-1
 1246 1068 l 1,18,-1
 1246 1157 l 1,19,-1
 1335 1157 l 1,20,-1
 1335 1424 l 1,21,-1
 1246 1424 l 1,22,-1
 1246 1513 l 1,23,-1
 1157 1513 l 1,24,-1
 1157 1602 l 1,25,-1
 1068 1602 l 1,26,-1
 1068 1513 l 1,27,-1
 979 1513 l 1,28,-1
 979 1424 l 1,29,-1
 890 1424 l 1,30,-1
 890 1157 l 1,31,-1
 979 1157 l 1,32,-1
 979 1068 l 1,33,-1
 1068 1068 l 1,34,-1
 1068 979 l 1,35,-1
 1157 979 l 1,16,-1
623 0 m 1,36,-1
 623 89 l 1,37,-1
 534 89 l 1,38,-1
 534 178 l 1,39,-1
 445 178 l 1,40,-1
 445 267 l 1,41,-1
 356 267 l 1,42,-1
 356 356 l 1,43,-1
 267 356 l 1,44,-1
 267 445 l 1,45,-1
 178 445 l 1,46,-1
 178 534 l 1,47,-1
 89 534 l 1,48,-1
 89 623 l 1,49,-1
 0 623 l 1,50,-1
 0 1424 l 1,51,-1
 89 1424 l 1,52,-1
 89 1958 l 1,53,-1
 178 1958 l 1,54,-1
 178 2048 l 1,55,-1
 267 2048 l 1,56,-1
 267 2137 l 1,57,-1
 356 2137 l 1,58,-1
 356 2226 l 1,59,-1
 445 2226 l 1,60,-1
 445 2315 l 1,61,-1
 534 2315 l 1,62,-1
 534 2404 l 1,63,-1
 623 2404 l 1,64,-1
 623 2493 l 1,65,-1
 1513 2493 l 1,66,-1
 1513 2404 l 1,67,-1
 1602 2404 l 1,68,-1
 1602 2315 l 1,69,-1
 1691 2315 l 1,70,-1
 1691 2226 l 1,71,-1
 1780 2226 l 1,72,-1
 1780 2137 l 1,73,-1
 1869 2137 l 1,74,-1
 1869 2048 l 1,75,-1
 1958 2048 l 1,76,-1
 1958 1958 l 1,77,-1
 2048 1958 l 1,78,-1
 2048 1335 l 1,79,-1
 2137 1335 l 1,80,-1
 2137 623 l 1,81,-1
 2048 623 l 1,82,-1
 2048 534 l 1,83,-1
 1958 534 l 1,84,-1
 1958 445 l 1,85,-1
 1869 445 l 1,86,-1
 1869 356 l 1,87,-1
 1780 356 l 1,88,-1
 1780 267 l 1,89,-1
 1691 267 l 1,90,-1
 1691 178 l 1,91,-1
 1602 178 l 1,92,-1
 1602 89 l 1,93,-1
 1513 89 l 1,94,-1
 1513 0 l 1,95,-1
 623 0 l 1,36,-1
EndSplineSet
Validated: 1
EndChar

StartChar: Amacron
Encoding: 256 256 112
GlifName: A_macron
Width: 2671
Flags: W
LayerCount: 2
Fore
SplineSet
801 2849 m 5,0,-1
 801 3561 l 5,1,-1
 2225 3561 l 5,2,-1
 2225 2938 l 5,3,-1
 1513 2938 l 5,4,-1
 1513 2849 l 5,5,-1
 801 2849 l 5,0,-1
1513 1157 m 1,6,-1
 1513 1513 l 1,7,-1
 1424 1513 l 1,8,-1
 1424 1335 l 1,9,-1
 1335 1335 l 1,10,-1
 1335 1246 l 1,11,-1
 1246 1246 l 1,12,-1
 1246 1157 l 1,13,-1
 1513 1157 l 1,6,-1
1691 0 m 1,14,-1
 1691 445 l 1,15,-1
 1424 445 l 1,16,-1
 1424 534 l 1,17,-1
 1068 534 l 1,18,-1
 1068 623 l 1,19,-1
 890 623 l 1,20,-1
 890 534 l 1,21,-1
 801 534 l 1,22,-1
 801 267 l 1,23,-1
 445 267 l 1,24,-1
 445 356 l 1,25,-1
 0 356 l 1,26,-1
 -0 623 l 1,27,-1
 89 623 l 1,28,-1
 89 801 l 1,29,-1
 178.000976562 801 l 1,30,-1
 178 979 l 1,31,-1
 267 979 l 1,32,-1
 267 1068 l 1,33,-1
 356 1068 l 1,34,-1
 356 1246 l 1,35,-1
 445 1246 l 1,36,-1
 445 1424 l 1,37,-1
 534 1424 l 1,38,-1
 534 1602 l 1,39,-1
 623 1602 l 1,40,-1
 623 1780 l 1,41,-1
 712 1780 l 1,42,-1
 712 1958 l 1,43,-1
 801 1958 l 1,44,-1
 801 2137 l 1,45,-1
 890 2137 l 1,46,-1
 890 2315 l 1,47,-1
 979 2315 l 1,48,-1
 978.999023438 2493 l 1,49,-1
 1068 2493 l 1,50,-1
 1068 2671 l 1,51,-1
 1513 2671 l 1,52,-1
 1513 2582 l 1,53,-1
 1958 2582 l 1,54,-1
 1958 2137 l 1,55,-1
 2048 2137 l 1,56,-1
 2048 1869 l 1,57,-1
 2137 1869 l 1,58,-1
 2137 1602 l 1,59,-1
 2226 1602 l 1,60,-1
 2226 1335 l 1,61,-1
 2315 1334.99902344 l 1,62,-1
 2315 1068.00097656 l 1,63,-1
 2404 1068 l 1,64,-1
 2404 712 l 1,65,-1
 2493 712 l 1,66,-1
 2493 356 l 1,67,-1
 2582 355.999023438 l 1,68,-1
 2582 0 l 1,69,-1
 1691 0 l 1,14,-1
EndSplineSet
Validated: 1
EndChar

StartChar: Abreve
Encoding: 258 258 113
GlifName: A_breve
Width: 2671
Flags: W
LayerCount: 2
Fore
SplineSet
2048 2938 m 21,0,-1
 2404 2938 l 5,1,-1
 2404 3027 l 5,2,-1
 2493 3027 l 5,3,-1
 2493 3116 l 5,4,-1
 2582 3116 l 5,5,-1
 2582 3383 l 5,6,-1
 2671 3383 l 5,7,-1
 2671 3561 l 5,8,-1
 2760 3561 l 5,9,-1
 2760 3828 l 5,10,-1
 2849 3828 l 5,11,-1
 2849 4006 l 5,12,-1
 2760 4006 l 5,13,-1
 2760 4095 l 5,14,-1
 2582 4095 l 5,15,-1
 2582 4006 l 5,16,-1
 2493 4006 l 5,17,-1
 2493 3917 l 5,18,-1
 2404 3917 l 5,19,-1
 2404 3828 l 5,20,-1
 2226 3828 l 5,21,-1
 2226 3739 l 5,22,-1
 2137 3739 l 5,23,-1
 2137 3650 l 5,24,-1
 2048 3650 l 5,25,-1
 2048 3561 l 5,26,-1
 1692 3561 l 5,27,-1
 1692 3472 l 5,28,-1
 1246 3472 l 5,29,-1
 1246 3561 l 5,30,-1
 1068 3561 l 5,31,-1
 1068 3650 l 5,32,-1
 890 3650 l 5,33,-1
 890 3739 l 5,34,-1
 712 3739 l 5,35,-1
 712 3828 l 5,36,-1
 534 3828 l 5,37,-1
 534 3917 l 5,38,-1
 356 3917 l 5,39,-1
 356 3828 l 5,40,-1
 267 3828 l 5,41,-1
 267 3650 l 5,42,-1
 178 3650 l 5,43,-1
 178 3383 l 5,44,-1
 267 3383 l 5,45,-1
 267 3205 l 5,46,-1
 356 3205 l 5,47,-1
 356 3116 l 5,48,-1
 445 3116 l 5,49,-1
 445 3027 l 5,50,-1
 623 3027 l 5,51,-1
 623 2938 l 5,52,-1
 890 2938 l 5,53,-1
 890 2849 l 5,54,-1
 1424 2849 l 5,55,-1
 1424 2760 l 5,56,-1
 1781 2760 l 5,57,-1
 1781 2849 l 13,58,-1
 2048 2849 l 28,59,-1
 2048 2938 l 21,0,-1
1513 1157 m 1,60,-1
 1513 1513 l 1,61,-1
 1424 1513 l 1,62,-1
 1424 1335 l 1,63,-1
 1335 1335 l 1,64,-1
 1335 1246 l 1,65,-1
 1246 1246 l 1,66,-1
 1246 1157 l 1,67,-1
 1513 1157 l 1,60,-1
1691 0 m 1,68,-1
 1691 445 l 1,69,-1
 1424 445 l 1,70,-1
 1424 534 l 1,71,-1
 1068 534 l 1,72,-1
 1068 623 l 1,73,-1
 890 623 l 1,74,-1
 890 534 l 1,75,-1
 801 534 l 1,76,-1
 801 267 l 1,77,-1
 445 267 l 1,78,-1
 445 356 l 1,79,-1
 0 356 l 1,80,-1
 -0 623 l 1,81,-1
 89 623 l 1,82,-1
 89 801 l 1,83,-1
 178.000976562 801 l 1,84,-1
 178 979 l 1,85,-1
 267 979 l 1,86,-1
 267 1068 l 1,87,-1
 356 1068 l 1,88,-1
 356 1246 l 1,89,-1
 445 1246 l 1,90,-1
 445 1424 l 1,91,-1
 534 1424 l 1,92,-1
 534 1602 l 1,93,-1
 623 1602 l 1,94,-1
 623 1780 l 1,95,-1
 712 1780 l 1,96,-1
 712 1958 l 1,97,-1
 801 1958 l 1,98,-1
 801 2137 l 1,99,-1
 890 2137 l 1,100,-1
 890 2315 l 1,101,-1
 979 2315 l 1,102,-1
 978.999023438 2493 l 1,103,-1
 1068 2493 l 1,104,-1
 1068 2671 l 1,105,-1
 1513 2671 l 1,106,-1
 1513 2582 l 1,107,-1
 1958 2582 l 1,108,-1
 1958 2137 l 1,109,-1
 2048 2137 l 1,110,-1
 2048 1869 l 1,111,-1
 2137 1869 l 1,112,-1
 2137 1602 l 1,113,-1
 2226 1602 l 1,114,-1
 2226 1335 l 1,115,-1
 2315 1334.99902344 l 1,116,-1
 2315 1068.00097656 l 1,117,-1
 2404 1068 l 1,118,-1
 2404 712 l 1,119,-1
 2493 712 l 1,120,-1
 2493 356 l 1,121,-1
 2582 355.999023438 l 1,122,-1
 2582 0 l 1,123,-1
 1691 0 l 1,68,-1
EndSplineSet
Validated: 9
EndChar

StartChar: Aogonek
Encoding: 260 260 114
GlifName: A_ogonek
Width: 2671
Flags: W
LayerCount: 2
Fore
SplineSet
1513 1157 m 5,0,-1
 1513 1513 l 1,1,-1
 1424 1513 l 1,2,-1
 1424 1335 l 1,3,-1
 1335 1335 l 1,4,-1
 1335 1246 l 1,5,-1
 1246 1246 l 1,6,-1
 1246 1157 l 1,7,-1
 1513 1157 l 5,0,-1
1691 0 m 5,8,-1
 1691 445 l 1,9,-1
 1424 445 l 1,10,-1
 1424 534 l 1,11,-1
 1068 534 l 1,12,-1
 1068 623 l 1,13,-1
 890 623 l 1,14,-1
 890 534 l 1,15,-1
 801 534 l 1,16,-1
 801 267 l 1,17,-1
 445 267 l 1,18,-1
 445 356 l 1,19,-1
 0 356 l 1,20,-1
 -0 623 l 1,21,-1
 89 623 l 1,22,-1
 89 801 l 1,23,-1
 178.000976562 801 l 1,24,-1
 178 979 l 1,25,-1
 267 979 l 1,26,-1
 267 1068 l 1,27,-1
 356 1068 l 1,28,-1
 356 1246 l 1,29,-1
 445 1246 l 1,30,-1
 445 1424 l 1,31,-1
 534 1424 l 1,32,-1
 534 1602 l 1,33,-1
 623 1602 l 1,34,-1
 623 1780 l 1,35,-1
 712 1780 l 1,36,-1
 712 1958 l 1,37,-1
 801 1958 l 1,38,-1
 801 2137 l 1,39,-1
 890 2137 l 1,40,-1
 890 2315 l 1,41,-1
 979 2315 l 1,42,-1
 978.999023438 2493 l 1,43,-1
 1068 2493 l 1,44,-1
 1068 2671 l 1,45,-1
 1513 2671 l 1,46,-1
 1513 2582 l 1,47,-1
 1958 2582 l 1,48,-1
 1958 2137 l 1,49,-1
 2048 2137 l 1,50,-1
 2048 1869 l 1,51,-1
 2137 1869 l 1,52,-1
 2137 1602 l 1,53,-1
 2226 1602 l 1,54,-1
 2226 1335 l 1,55,-1
 2315 1334.99902344 l 1,56,-1
 2315 1068.00097656 l 1,57,-1
 2404 1068 l 1,58,-1
 2404 712 l 1,59,-1
 2493 712 l 1,60,-1
 2493 356 l 1,61,-1
 2582 355.999023438 l 1,62,-1
 2582 0 l 1,63,-1
 1691 0 l 5,8,-1
EndSplineSet
Validated: 1
EndChar

StartChar: Gcircumflex
Encoding: 284 284 115
GlifName: G_circumflex
Width: 2760
Flags: W
LayerCount: 2
Fore
SplineSet
1514 4275 m 25,0,-1
 1514 4359 l 17,1,-1
 1698 4359 l 1,2,-1
 1698 4266 l 1,3,-1
 1792 4266 l 1,4,-1
 1792 4106 l 1,5,-1
 1881 4106 l 1,6,-1
 1881 4018 l 1,7,-1
 1970 4018 l 1,8,-1
 1970 3836 l 1,9,-1
 2059 3836 l 1,10,-1
 2059 3571 l 1,11,-1
 2153 3571 l 1,12,-1
 2153 3389 l 1,13,-1
 2242 3389 l 9,14,-1
 2242 3210 l 1,15,-1
 1970 3210 l 1,16,-1
 1970 3117 l 1,17,-1
 1693 3117 l 1,18,-1
 1693 3210 l 1,19,-1
 1604 3210 l 1,20,-1
 1604 3387 l 1,21,-1
 1514 3387 l 1,22,-1
 1514 3568 l 1,23,-1
 1425 3568 l 1,24,-1
 1425 3745 l 1,25,-1
 1336 3745 l 1,26,-1
 1336 3656 l 1,27,-1
 1247 3656 l 1,28,-1
 1247 3480 l 1,29,-1
 1158 3480 l 1,30,-1
 1158 3387 l 1,31,-1
 1064 3387 l 1,32,-1
 1064 3210 l 1,33,-1
 974 3210 l 1,34,-1
 974 3117 l 1,35,-1
 885 3117 l 1,36,-1
 885 3029 l 1,37,-1
 697 3029 l 1,38,-1
 697 3117 l 1,39,-1
 608 3117 l 1,40,-1
 608 3210 l 1,41,-1
 519 3210 l 1,42,-1
 519 3298 l 1,43,-1
 425 3298 l 1,44,-1
 425 3558 l 1,45,-1
 519 3558 l 1,46,-1
 519 3646 l 1,47,-1
 608 3646 l 1,48,-1
 608 3735 l 1,49,-1
 697 3735 l 1,50,-1
 697 3828 l 1,51,-1
 786 3828 l 1,52,-1
 786 3916 l 1,53,-1
 880 3916 l 1,54,-1
 880 4005 l 1,55,-1
 969 4005 l 9,56,-1
 970 4097 l 17,57,-1
 1059 4097 l 1,58,-1
 1059 4185 l 1,59,-1
 1242 4185 l 1,60,-1
 1242 4274 l 9,61,-1
 1514 4275 l 25,0,-1
623 0 m 1,62,-1
 623 89 l 1,63,-1
 534 89 l 1,64,-1
 534 178 l 1,65,-1
 445 178 l 1,66,-1
 445 267 l 1,67,-1
 356 267 l 1,68,-1
 356 356 l 1,69,-1
 267 356 l 1,70,-1
 267 445 l 1,71,-1
 178 445 l 1,72,-1
 178 534 l 1,73,-1
 89 534 l 1,74,-1
 89 623 l 1,75,-1
 0 623 l 1,76,-1
 0 1513 l 1,77,-1
 89 1513 l 1,78,-1
 89 2404 l 1,79,-1
 178 2404 l 1,80,-1
 178 2493 l 1,81,-1
 356 2493 l 1,82,-1
 356 2582 l 1,83,-1
 445 2582 l 1,84,-1
 445 2671 l 1,85,-1
 534 2671 l 1,86,-1
 534 2760 l 1,87,-1
 712 2760 l 1,88,-1
 712 2849 l 1,89,-1
 801 2849 l 1,90,-1
 801 2938 l 1,91,-1
 1602 2938 l 1,92,-1
 1602 2849 l 1,93,-1
 2315 2849 l 1,94,-1
 2315 2582 l 1,95,-1
 2404 2582 l 1,96,-1
 2404 2226 l 1,97,-1
 2493 2226 l 1,98,-1
 2493 2048 l 1,99,-1
 1780 2048 l 1,100,-1
 1780 2137 l 1,101,-1
 1246 2137 l 1,102,-1
 1246 2048 l 1,103,-1
 1157 2048 l 1,104,-1
 1157 1869 l 1,105,-1
 1068 1869 l 1,106,-1
 1068 1602 l 1,107,-1
 979 1602 l 1,108,-1
 979 1335 l 1,109,-1
 890 1335 l 1,110,-1
 890 1157 l 1,111,-1
 801 1157 l 1,112,-1
 801 979 l 1,113,-1
 979 979 l 1,114,-1
 979 890 l 1,115,-1
 1157 890 l 1,116,-1
 1157 801 l 1,117,-1
 1335 801 l 1,118,-1
 1335 712 l 1,119,-1
 1869 712 l 1,120,-1
 1869 801 l 1,121,-1
 1780 801 l 1,122,-1
 1780 1068 l 1,123,-1
 1691 1068 l 1,124,-1
 1691 1157 l 1,125,-1
 1246 1157 l 1,126,-1
 1246 1335 l 1,127,-1
 1335 1335 l 1,128,-1
 1335 1513 l 1,129,-1
 1424 1513 l 1,130,-1
 1424 1691 l 1,131,-1
 1958 1691 l 1,132,-1
 1958 1602 l 1,133,-1
 2493 1602 l 1,134,-1
 2493 1246 l 1,135,-1
 2582 1246 l 1,136,-1
 2582 712 l 1,137,-1
 2671 712 l 1,138,-1
 2671 356 l 1,139,-1
 2582 356 l 1,140,-1
 2582 267 l 1,141,-1
 2493 267 l 1,142,-1
 2493 178 l 1,143,-1
 2404 178 l 1,144,-1
 2404 89 l 1,145,-1
 2315 89 l 1,146,-1
 2315 0 l 1,147,-1
 623 0 l 1,62,-1
EndSplineSet
Validated: 1
EndChar

StartChar: Gbreve
Encoding: 286 286 116
GlifName: G_breve
Width: 2760
Flags: W
LayerCount: 2
Fore
SplineSet
1869 3205 m 21,0,-1
 2225 3205 l 5,1,-1
 2225 3294 l 5,2,-1
 2314 3294 l 5,3,-1
 2314 3383 l 5,4,-1
 2403 3383 l 5,5,-1
 2403 3650 l 5,6,-1
 2492 3650 l 5,7,-1
 2492 3828 l 5,8,-1
 2581 3828 l 5,9,-1
 2581 4095 l 5,10,-1
 2670 4095 l 5,11,-1
 2670 4273 l 5,12,-1
 2581 4273 l 5,13,-1
 2581 4362 l 5,14,-1
 2403 4362 l 5,15,-1
 2403 4273 l 5,16,-1
 2314 4273 l 5,17,-1
 2314 4184 l 5,18,-1
 2225 4184 l 5,19,-1
 2225 4095 l 5,20,-1
 2047 4095 l 5,21,-1
 2047 4006 l 5,22,-1
 1958 4006 l 5,23,-1
 1958 3917 l 5,24,-1
 1869 3917 l 5,25,-1
 1869 3828 l 5,26,-1
 1513 3828 l 5,27,-1
 1513 3739 l 5,28,-1
 1067 3739 l 5,29,-1
 1067 3828 l 5,30,-1
 889 3828 l 5,31,-1
 889 3917 l 5,32,-1
 711 3917 l 5,33,-1
 711 4006 l 5,34,-1
 533 4006 l 5,35,-1
 533 4095 l 5,36,-1
 355 4095 l 5,37,-1
 355 4184 l 5,38,-1
 177 4184 l 5,39,-1
 177 4095 l 5,40,-1
 88 4095 l 5,41,-1
 88 3917 l 5,42,-1
 -1 3917 l 5,43,-1
 -1 3650 l 5,44,-1
 88 3650 l 5,45,-1
 88 3472 l 5,46,-1
 177 3472 l 5,47,-1
 177 3383 l 5,48,-1
 266 3383 l 5,49,-1
 266 3294 l 5,50,-1
 444 3294 l 5,51,-1
 444 3205 l 5,52,-1
 711 3205 l 5,53,-1
 711 3116 l 5,54,-1
 1245 3116 l 5,55,-1
 1245 3027 l 5,56,-1
 1602 3027 l 5,57,-1
 1602 3116 l 13,58,-1
 1869 3116 l 28,59,-1
 1869 3205 l 21,0,-1
623 0 m 1,60,-1
 623 89 l 1,61,-1
 534 89 l 1,62,-1
 534 178 l 1,63,-1
 445 178 l 1,64,-1
 445 267 l 1,65,-1
 356 267 l 1,66,-1
 356 356 l 1,67,-1
 267 356 l 1,68,-1
 267 445 l 1,69,-1
 178 445 l 1,70,-1
 178 534 l 1,71,-1
 89 534 l 1,72,-1
 89 623 l 1,73,-1
 0 623 l 1,74,-1
 0 1513 l 1,75,-1
 89 1513 l 1,76,-1
 89 2404 l 1,77,-1
 178 2404 l 1,78,-1
 178 2493 l 1,79,-1
 356 2493 l 1,80,-1
 356 2582 l 1,81,-1
 445 2582 l 1,82,-1
 445 2671 l 1,83,-1
 534 2671 l 1,84,-1
 534 2760 l 1,85,-1
 712 2760 l 1,86,-1
 712 2849 l 1,87,-1
 801 2849 l 1,88,-1
 801 2938 l 1,89,-1
 1602 2938 l 1,90,-1
 1602 2849 l 1,91,-1
 2315 2849 l 1,92,-1
 2315 2582 l 1,93,-1
 2404 2582 l 1,94,-1
 2404 2226 l 1,95,-1
 2493 2226 l 1,96,-1
 2493 2048 l 1,97,-1
 1780 2048 l 1,98,-1
 1780 2137 l 1,99,-1
 1246 2137 l 1,100,-1
 1246 2048 l 1,101,-1
 1157 2048 l 1,102,-1
 1157 1869 l 1,103,-1
 1068 1869 l 1,104,-1
 1068 1602 l 1,105,-1
 979 1602 l 1,106,-1
 979 1335 l 1,107,-1
 890 1335 l 1,108,-1
 890 1157 l 1,109,-1
 801 1157 l 1,110,-1
 801 979 l 1,111,-1
 979 979 l 1,112,-1
 979 890 l 1,113,-1
 1157 890 l 1,114,-1
 1157 801 l 1,115,-1
 1335 801 l 1,116,-1
 1335 712 l 1,117,-1
 1869 712 l 1,118,-1
 1869 801 l 1,119,-1
 1780 801 l 1,120,-1
 1780 1068 l 1,121,-1
 1691 1068 l 1,122,-1
 1691 1157 l 1,123,-1
 1246 1157 l 1,124,-1
 1246 1335 l 1,125,-1
 1335 1335 l 1,126,-1
 1335 1513 l 1,127,-1
 1424 1513 l 1,128,-1
 1424 1691 l 1,129,-1
 1958 1691 l 1,130,-1
 1958 1602 l 1,131,-1
 2493 1602 l 1,132,-1
 2493 1246 l 1,133,-1
 2582 1246 l 1,134,-1
 2582 712 l 1,135,-1
 2671 712 l 1,136,-1
 2671 356 l 1,137,-1
 2582 356 l 1,138,-1
 2582 267 l 1,139,-1
 2493 267 l 1,140,-1
 2493 178 l 1,141,-1
 2404 178 l 1,142,-1
 2404 89 l 1,143,-1
 2315 89 l 1,144,-1
 2315 0 l 1,145,-1
 623 0 l 1,60,-1
EndSplineSet
Validated: 9
EndChar

StartChar: Gdotaccent
Encoding: 288 288 117
GlifName: G_dotaccent
Width: 2760
Flags: W
LayerCount: 2
Fore
SplineSet
979 3116 m 5,0,-1
 979 3472 l 5,1,-1
 1068 3472 l 5,2,-1
 1068 3828 l 5,3,-1
 1691 3828 l 5,4,-1
 1691 3116 l 5,5,-1
 979 3116 l 5,0,-1
623 0 m 1,6,-1
 623 89 l 1,7,-1
 534 89 l 1,8,-1
 534 178 l 1,9,-1
 445 178 l 1,10,-1
 445 267 l 1,11,-1
 356 267 l 1,12,-1
 356 356 l 1,13,-1
 267 356 l 1,14,-1
 267 445 l 1,15,-1
 178 445 l 1,16,-1
 178 534 l 1,17,-1
 89 534 l 1,18,-1
 89 623 l 1,19,-1
 0 623 l 1,20,-1
 0 1513 l 1,21,-1
 89 1513 l 1,22,-1
 89 2404 l 1,23,-1
 178 2404 l 1,24,-1
 178 2493 l 1,25,-1
 356 2493 l 1,26,-1
 356 2582 l 1,27,-1
 445 2582 l 1,28,-1
 445 2671 l 1,29,-1
 534 2671 l 1,30,-1
 534 2760 l 1,31,-1
 712 2760 l 1,32,-1
 712 2849 l 1,33,-1
 801 2849 l 1,34,-1
 801 2938 l 1,35,-1
 1602 2938 l 1,36,-1
 1602 2849 l 1,37,-1
 2315 2849 l 1,38,-1
 2315 2582 l 1,39,-1
 2404 2582 l 1,40,-1
 2404 2226 l 1,41,-1
 2493 2226 l 1,42,-1
 2493 2048 l 1,43,-1
 1780 2048 l 1,44,-1
 1780 2137 l 1,45,-1
 1246 2137 l 1,46,-1
 1246 2048 l 1,47,-1
 1157 2048 l 1,48,-1
 1157 1869 l 1,49,-1
 1068 1869 l 1,50,-1
 1068 1602 l 1,51,-1
 979 1602 l 1,52,-1
 979 1335 l 1,53,-1
 890 1335 l 1,54,-1
 890 1157 l 1,55,-1
 801 1157 l 1,56,-1
 801 979 l 1,57,-1
 979 979 l 1,58,-1
 979 890 l 1,59,-1
 1157 890 l 1,60,-1
 1157 801 l 1,61,-1
 1335 801 l 1,62,-1
 1335 712 l 1,63,-1
 1869 712 l 1,64,-1
 1869 801 l 1,65,-1
 1780 801 l 1,66,-1
 1780 1068 l 1,67,-1
 1691 1068 l 1,68,-1
 1691 1157 l 1,69,-1
 1246 1157 l 1,70,-1
 1246 1335 l 1,71,-1
 1335 1335 l 1,72,-1
 1335 1513 l 1,73,-1
 1424 1513 l 1,74,-1
 1424 1691 l 1,75,-1
 1958 1691 l 1,76,-1
 1958 1602 l 1,77,-1
 2493 1602 l 1,78,-1
 2493 1246 l 1,79,-1
 2582 1246 l 1,80,-1
 2582 712 l 1,81,-1
 2671 712 l 1,82,-1
 2671 356 l 1,83,-1
 2582 356 l 1,84,-1
 2582 267 l 1,85,-1
 2493 267 l 1,86,-1
 2493 178 l 1,87,-1
 2404 178 l 1,88,-1
 2404 89 l 1,89,-1
 2315 89 l 1,90,-1
 2315 0 l 1,91,-1
 623 0 l 1,6,-1
EndSplineSet
Validated: 1
EndChar

StartChar: uni0122
Encoding: 290 290 118
GlifName: uni0122
Width: 2760
Flags: W
LayerCount: 2
Fore
SplineSet
623 0 m 1,0,-1
 623 89 l 1,1,-1
 534 89 l 1,2,-1
 534 178 l 1,3,-1
 445 178 l 1,4,-1
 445 267 l 1,5,-1
 356 267 l 1,6,-1
 356 356 l 1,7,-1
 267 356 l 1,8,-1
 267 445 l 1,9,-1
 178 445 l 1,10,-1
 178 534 l 1,11,-1
 89 534 l 1,12,-1
 89 623 l 1,13,-1
 0 623 l 1,14,-1
 0 1513 l 1,15,-1
 89 1513 l 1,16,-1
 89 2404 l 1,17,-1
 178 2404 l 1,18,-1
 178 2493 l 1,19,-1
 356 2493 l 1,20,-1
 356 2582 l 1,21,-1
 445 2582 l 1,22,-1
 445 2671 l 1,23,-1
 534 2671 l 1,24,-1
 534 2760 l 1,25,-1
 712 2760 l 1,26,-1
 712 2849 l 1,27,-1
 801 2849 l 1,28,-1
 801 2938 l 1,29,-1
 1602 2938 l 1,30,-1
 1602 2849 l 1,31,-1
 2315 2849 l 1,32,-1
 2315 2582 l 1,33,-1
 2404 2582 l 1,34,-1
 2404 2226 l 1,35,-1
 2493 2226 l 1,36,-1
 2493 2048 l 1,37,-1
 1780 2048 l 1,38,-1
 1780 2137 l 1,39,-1
 1246 2137 l 1,40,-1
 1246 2048 l 1,41,-1
 1157 2048 l 1,42,-1
 1157 1869 l 1,43,-1
 1068 1869 l 1,44,-1
 1068 1602 l 1,45,-1
 979 1602 l 1,46,-1
 979 1335 l 1,47,-1
 890 1335 l 1,48,-1
 890 1157 l 1,49,-1
 801 1157 l 1,50,-1
 801 979 l 1,51,-1
 979 979 l 1,52,-1
 979 890 l 1,53,-1
 1157 890 l 1,54,-1
 1157 801 l 1,55,-1
 1335 801 l 1,56,-1
 1335 712 l 1,57,-1
 1869 712 l 1,58,-1
 1869 801 l 1,59,-1
 1780 801 l 1,60,-1
 1780 1068 l 1,61,-1
 1691 1068 l 1,62,-1
 1691 1157 l 1,63,-1
 1246 1157 l 1,64,-1
 1246 1335 l 1,65,-1
 1335 1335 l 1,66,-1
 1335 1513 l 1,67,-1
 1424 1513 l 1,68,-1
 1424 1691 l 1,69,-1
 1958 1691 l 1,70,-1
 1958 1602 l 1,71,-1
 2493 1602 l 1,72,-1
 2493 1246 l 1,73,-1
 2582 1246 l 1,74,-1
 2582 712 l 1,75,-1
 2671 712 l 1,76,-1
 2671 356 l 1,77,-1
 2582 356 l 1,78,-1
 2582 267 l 1,79,-1
 2493 267 l 1,80,-1
 2493 178 l 1,81,-1
 2404 178 l 1,82,-1
 2404 89 l 1,83,-1
 2315 89 l 1,84,-1
 2315 0 l 1,85,-1
 623 0 l 1,0,-1
EndSplineSet
Validated: 1
EndChar

StartChar: Cacute
Encoding: 262 262 119
GlifName: C_acute
Width: 2315
Flags: W
LayerCount: 2
Fore
SplineSet
1690.90332031 4013.52441406 m 5,0,-1
 1512.93164062 4013.52441406 l 5,1,-1
 1512.93164062 3923.92871094 l 5,2,-1
 1423.94628906 3923.92871094 l 5,3,-1
 1423.94628906 3834.33789062 l 5,4,-1
 1334.95703125 3834.33789062 l 5,5,-1
 1334.95703125 3744.74609375 l 5,6,-1
 1245.96972656 3744.74609375 l 5,7,-1
 1245.96972656 3655.15429688 l 5,8,-1
 1156.984375 3655.15429688 l 5,9,-1
 1156.984375 3475.96484375 l 5,10,-1
 1068 3475.96484375 l 5,11,-1
 1068 3386.37304688 l 5,12,-1
 979.012695312 3386.37304688 l 5,13,-1
 979.012695312 3296.78125 l 5,14,-1
 890.024414062 3296.78125 l 5,15,-1
 890.024414062 3117.59863281 l 5,16,-1
 979.012695312 3117.59863281 l 5,17,-1
 979.012695312 3028 l 5,18,-1
 1068 3028 l 5,19,-1
 1068 2938.40917969 l 5,20,-1
 1245.96972656 2938.40917969 l 5,21,-1
 1245.96972656 3028 l 5,22,-1
 1423.94628906 3028 l 5,23,-1
 1423.94628906 3117.59863281 l 5,24,-1
 1601.91601562 3117.59863281 l 5,25,-1
 1601.91601562 3207.18945312 l 5,26,-1
 1690.90332031 3207.18945312 l 5,27,-1
 1690.90332031 3296.78125 l 5,28,-1
 1868.87890625 3296.78125 l 5,29,-1
 1868.87890625 3386.37304688 l 5,30,-1
 2046.84960938 3386.37304688 l 5,31,-1
 2046.84960938 3475.96484375 l 5,32,-1
 2135.83496094 3475.96484375 l 5,33,-1
 2135.83496094 3655.15429688 l 5,34,-1
 2046.84960938 3655.15429688 l 5,35,-1
 2046.84960938 3744.74609375 l 5,36,-1
 1957.86230469 3744.74609375 l 5,37,-1
 1957.86230469 3834.33789062 l 5,38,-1
 1779.88671875 3834.33789062 l 5,39,-1
 1779.88671875 3923.92871094 l 5,40,-1
 1690.90332031 3923.92871094 l 5,41,-1
 1690.90332031 4013.52441406 l 5,0,-1
1157 0 m 1,42,-1
 1157 89 l 1,43,-1
 1068 89 l 1,44,-1
 1068 178 l 1,45,-1
 979 178 l 1,46,-1
 979 267 l 1,47,-1
 890 267 l 1,48,-1
 890 356 l 1,49,-1
 801 356 l 1,50,-1
 801 445 l 1,51,-1
 712 445 l 1,52,-1
 712 534 l 1,53,-1
 623 534 l 1,54,-1
 623 623 l 1,55,-1
 534 623 l 1,56,-1
 534 712 l 1,57,-1
 445 712 l 1,58,-1
 445 801 l 1,59,-1
 356 801 l 1,60,-1
 356 890 l 1,61,-1
 267 890 l 1,62,-1
 267 979 l 1,63,-1
 178 979 l 1,64,-1
 178 1068 l 1,65,-1
 89 1068 l 1,66,-1
 89 2048 l 1,67,-1
 178 2048 l 1,68,-1
 178 2137 l 1,69,-1
 267 2137 l 1,70,-1
 267 2226 l 1,71,-1
 356 2226 l 1,72,-1
 356 2315 l 1,73,-1
 445 2315 l 1,74,-1
 445 2404 l 1,75,-1
 534 2404 l 1,76,-1
 534 2493 l 1,77,-1
 623 2493 l 1,78,-1
 623 2582 l 1,79,-1
 712 2582 l 1,80,-1
 712 2671 l 1,81,-1
 801 2671 l 1,82,-1
 801 2760 l 1,83,-1
 890 2760 l 1,84,-1
 890 2849 l 1,85,-1
 1602 2849 l 1,86,-1
 1602 2760 l 1,87,-1
 1691 2760 l 1,88,-1
 1691 2671 l 1,89,-1
 1780 2671 l 1,90,-1
 1780 2582 l 1,91,-1
 1869 2582 l 1,92,-1
 1869 2493 l 1,93,-1
 1958 2493 l 1,94,-1
 1958 2404 l 1,95,-1
 2048 2404 l 1,96,-1
 2048 2315 l 1,97,-1
 2137 2315 l 1,98,-1
 2137 2137 l 1,99,-1
 2048 2137 l 1,100,-1
 2048 2048 l 1,101,-1
 1958 2048 l 1,102,-1
 1958 1958 l 1,103,-1
 1869 1958 l 1,104,-1
 1869 1869 l 1,105,-1
 1780 1869 l 1,106,-1
 1780 1780 l 1,107,-1
 1691 1780 l 1,108,-1
 1691 1869 l 1,109,-1
 1602 1869 l 1,110,-1
 1602 1958 l 1,111,-1
 1513 1958 l 1,112,-1
 1513 2048 l 1,113,-1
 1068 2048 l 1,114,-1
 1068 1958 l 1,115,-1
 979 1958 l 1,116,-1
 979 1869 l 1,117,-1
 890 1869 l 1,118,-1
 890 1780 l 1,119,-1
 801 1780 l 1,120,-1
 801 1691 l 1,121,-1
 712 1691 l 1,122,-1
 712 1335 l 1,123,-1
 801 1335 l 1,124,-1
 801 1246 l 1,125,-1
 890 1246 l 1,126,-1
 890 1157 l 1,127,-1
 979 1157 l 1,128,-1
 979 1068 l 1,129,-1
 1068 1068 l 1,130,-1
 1068 979 l 1,131,-1
 1157 979 l 1,132,-1
 1157 890 l 1,133,-1
 1246 890 l 1,134,-1
 1246 801 l 1,135,-1
 1335 801 l 1,136,-1
 1335 890 l 1,137,-1
 1424 890 l 1,138,-1
 1424 979 l 1,139,-1
 1513 979 l 1,140,-1
 1513 1068 l 1,141,-1
 1602 1068 l 1,142,-1
 1602 1157 l 1,143,-1
 1691 1157 l 1,144,-1
 1691 1246 l 1,145,-1
 1869 1246 l 1,146,-1
 1869 1157 l 1,147,-1
 1958 1157 l 1,148,-1
 1958 1068 l 1,149,-1
 2048 1068 l 1,150,-1
 2048 979 l 1,151,-1
 2137 979 l 1,152,-1
 2137 890 l 1,153,-1
 2226 890 l 1,154,-1
 2226 712 l 1,155,-1
 2137 712 l 1,156,-1
 2137 623 l 1,157,-1
 2048 623 l 1,158,-1
 2048 534 l 1,159,-1
 1958 534 l 1,160,-1
 1958 445 l 1,161,-1
 1869 445 l 1,162,-1
 1869 356 l 1,163,-1
 1780 356 l 1,164,-1
 1780 267 l 1,165,-1
 1691 267 l 1,166,-1
 1691 178 l 1,167,-1
 1602 178 l 1,168,-1
 1602 89 l 1,169,-1
 1513 89 l 1,170,-1
 1513 0 l 1,171,-1
 1157 0 l 1,42,-1
EndSplineSet
Validated: 9
EndChar

StartChar: Ccircumflex
Encoding: 264 264 120
GlifName: C_circumflex
Width: 2315
Flags: W
LayerCount: 2
Fore
SplineSet
1423 4096 m 29,0,-1
 1423 4180 l 21,1,-1
 1607 4180 l 5,2,-1
 1607 4087 l 5,3,-1
 1701 4087 l 5,4,-1
 1701 3927 l 5,5,-1
 1790 3927 l 5,6,-1
 1790 3839 l 5,7,-1
 1879 3839 l 5,8,-1
 1879 3657 l 5,9,-1
 1968 3657 l 5,10,-1
 1968 3392 l 5,11,-1
 2062 3392 l 5,12,-1
 2062 3210 l 5,13,-1
 2151 3210 l 13,14,-1
 2151 3031 l 5,15,-1
 1879 3031 l 5,16,-1
 1879 2938 l 5,17,-1
 1602 2938 l 5,18,-1
 1602 3031 l 5,19,-1
 1513 3031 l 5,20,-1
 1513 3208 l 5,21,-1
 1423 3208 l 5,22,-1
 1423 3389 l 5,23,-1
 1334 3389 l 5,24,-1
 1334 3566 l 5,25,-1
 1245 3566 l 5,26,-1
 1245 3477 l 5,27,-1
 1156 3477 l 5,28,-1
 1156 3301 l 5,29,-1
 1067 3301 l 5,30,-1
 1067 3208 l 5,31,-1
 973 3208 l 5,32,-1
 973 3031 l 5,33,-1
 883 3031 l 5,34,-1
 883 2938 l 5,35,-1
 794 2938 l 5,36,-1
 794 2850 l 5,37,-1
 606 2850 l 5,38,-1
 606 2938 l 5,39,-1
 517 2938 l 5,40,-1
 517 3031 l 5,41,-1
 428 3031 l 5,42,-1
 428 3119 l 5,43,-1
 334 3119 l 5,44,-1
 334 3379 l 5,45,-1
 428 3379 l 5,46,-1
 428 3467 l 5,47,-1
 517 3467 l 5,48,-1
 517 3556 l 5,49,-1
 606 3556 l 5,50,-1
 606 3649 l 5,51,-1
 695 3649 l 5,52,-1
 695 3737 l 5,53,-1
 789 3737 l 5,54,-1
 789 3826 l 5,55,-1
 878 3826 l 13,56,-1
 879 3918 l 21,57,-1
 968 3918 l 5,58,-1
 968 4006 l 5,59,-1
 1151 4006 l 5,60,-1
 1151 4095 l 13,61,-1
 1423 4096 l 29,0,-1
1157 0 m 1,62,-1
 1157 89 l 1,63,-1
 1068 89 l 1,64,-1
 1068 178 l 1,65,-1
 979 178 l 1,66,-1
 979 267 l 1,67,-1
 890 267 l 1,68,-1
 890 356 l 1,69,-1
 801 356 l 1,70,-1
 801 445 l 1,71,-1
 712 445 l 1,72,-1
 712 534 l 1,73,-1
 623 534 l 1,74,-1
 623 623 l 1,75,-1
 534 623 l 1,76,-1
 534 712 l 1,77,-1
 445 712 l 1,78,-1
 445 801 l 1,79,-1
 356 801 l 1,80,-1
 356 890 l 1,81,-1
 267 890 l 1,82,-1
 267 979 l 1,83,-1
 178 979 l 1,84,-1
 178 1068 l 1,85,-1
 89 1068 l 1,86,-1
 89 2048 l 1,87,-1
 178 2048 l 1,88,-1
 178 2137 l 1,89,-1
 267 2137 l 1,90,-1
 267 2226 l 1,91,-1
 356 2226 l 1,92,-1
 356 2315 l 1,93,-1
 445 2315 l 1,94,-1
 445 2404 l 1,95,-1
 534 2404 l 1,96,-1
 534 2493 l 1,97,-1
 623 2493 l 1,98,-1
 623 2582 l 1,99,-1
 712 2582 l 1,100,-1
 712 2671 l 1,101,-1
 801 2671 l 1,102,-1
 801 2760 l 1,103,-1
 890 2760 l 1,104,-1
 890 2849 l 1,105,-1
 1602 2849 l 1,106,-1
 1602 2760 l 1,107,-1
 1691 2760 l 1,108,-1
 1691 2671 l 1,109,-1
 1780 2671 l 1,110,-1
 1780 2582 l 1,111,-1
 1869 2582 l 1,112,-1
 1869 2493 l 1,113,-1
 1958 2493 l 1,114,-1
 1958 2404 l 1,115,-1
 2048 2404 l 1,116,-1
 2048 2315 l 1,117,-1
 2137 2315 l 1,118,-1
 2137 2137 l 1,119,-1
 2048 2137 l 1,120,-1
 2048 2048 l 1,121,-1
 1958 2048 l 1,122,-1
 1958 1958 l 1,123,-1
 1869 1958 l 1,124,-1
 1869 1869 l 1,125,-1
 1780 1869 l 1,126,-1
 1780 1780 l 1,127,-1
 1691 1780 l 1,128,-1
 1691 1869 l 1,129,-1
 1602 1869 l 1,130,-1
 1602 1958 l 1,131,-1
 1513 1958 l 1,132,-1
 1513 2048 l 1,133,-1
 1068 2048 l 1,134,-1
 1068 1958 l 1,135,-1
 979 1958 l 1,136,-1
 979 1869 l 1,137,-1
 890 1869 l 1,138,-1
 890 1780 l 1,139,-1
 801 1780 l 1,140,-1
 801 1691 l 1,141,-1
 712 1691 l 1,142,-1
 712 1335 l 1,143,-1
 801 1335 l 1,144,-1
 801 1246 l 1,145,-1
 890 1246 l 1,146,-1
 890 1157 l 1,147,-1
 979 1157 l 1,148,-1
 979 1068 l 1,149,-1
 1068 1068 l 1,150,-1
 1068 979 l 1,151,-1
 1157 979 l 1,152,-1
 1157 890 l 1,153,-1
 1246 890 l 1,154,-1
 1246 801 l 1,155,-1
 1335 801 l 1,156,-1
 1335 890 l 1,157,-1
 1424 890 l 1,158,-1
 1424 979 l 1,159,-1
 1513 979 l 1,160,-1
 1513 1068 l 1,161,-1
 1602 1068 l 1,162,-1
 1602 1157 l 1,163,-1
 1691 1157 l 1,164,-1
 1691 1246 l 1,165,-1
 1869 1246 l 1,166,-1
 1869 1157 l 1,167,-1
 1958 1157 l 1,168,-1
 1958 1068 l 1,169,-1
 2048 1068 l 1,170,-1
 2048 979 l 1,171,-1
 2137 979 l 1,172,-1
 2137 890 l 1,173,-1
 2226 890 l 1,174,-1
 2226 712 l 1,175,-1
 2137 712 l 1,176,-1
 2137 623 l 1,177,-1
 2048 623 l 1,178,-1
 2048 534 l 1,179,-1
 1958 534 l 1,180,-1
 1958 445 l 1,181,-1
 1869 445 l 1,182,-1
 1869 356 l 1,183,-1
 1780 356 l 1,184,-1
 1780 267 l 1,185,-1
 1691 267 l 1,186,-1
 1691 178 l 1,187,-1
 1602 178 l 1,188,-1
 1602 89 l 1,189,-1
 1513 89 l 1,190,-1
 1513 0 l 1,191,-1
 1157 0 l 1,62,-1
EndSplineSet
Validated: 1025
EndChar

StartChar: Cdotaccent
Encoding: 266 266 121
GlifName: C_dotaccent
Width: 2315
Flags: W
LayerCount: 2
Fore
SplineSet
801 3027 m 5,0,-1
 801 3383 l 5,1,-1
 890 3383 l 5,2,-1
 890 3739 l 5,3,-1
 1513 3739 l 5,4,-1
 1513 3027 l 5,5,-1
 801 3027 l 5,0,-1
1157 0 m 1,6,-1
 1157 89 l 1,7,-1
 1068 89 l 1,8,-1
 1068 178 l 1,9,-1
 979 178 l 1,10,-1
 979 267 l 1,11,-1
 890 267 l 1,12,-1
 890 356 l 1,13,-1
 801 356 l 1,14,-1
 801 445 l 1,15,-1
 712 445 l 1,16,-1
 712 534 l 1,17,-1
 623 534 l 1,18,-1
 623 623 l 1,19,-1
 534 623 l 1,20,-1
 534 712 l 1,21,-1
 445 712 l 1,22,-1
 445 801 l 1,23,-1
 356 801 l 1,24,-1
 356 890 l 1,25,-1
 267 890 l 1,26,-1
 267 979 l 1,27,-1
 178 979 l 1,28,-1
 178 1068 l 1,29,-1
 89 1068 l 1,30,-1
 89 2048 l 1,31,-1
 178 2048 l 1,32,-1
 178 2137 l 1,33,-1
 267 2137 l 1,34,-1
 267 2226 l 1,35,-1
 356 2226 l 1,36,-1
 356 2315 l 1,37,-1
 445 2315 l 1,38,-1
 445 2404 l 1,39,-1
 534 2404 l 1,40,-1
 534 2493 l 1,41,-1
 623 2493 l 1,42,-1
 623 2582 l 1,43,-1
 712 2582 l 1,44,-1
 712 2671 l 1,45,-1
 801 2671 l 1,46,-1
 801 2760 l 1,47,-1
 890 2760 l 1,48,-1
 890 2849 l 1,49,-1
 1602 2849 l 1,50,-1
 1602 2760 l 1,51,-1
 1691 2760 l 1,52,-1
 1691 2671 l 1,53,-1
 1780 2671 l 1,54,-1
 1780 2582 l 1,55,-1
 1869 2582 l 1,56,-1
 1869 2493 l 1,57,-1
 1958 2493 l 1,58,-1
 1958 2404 l 1,59,-1
 2048 2404 l 1,60,-1
 2048 2315 l 1,61,-1
 2137 2315 l 1,62,-1
 2137 2137 l 1,63,-1
 2048 2137 l 1,64,-1
 2048 2048 l 1,65,-1
 1958 2048 l 1,66,-1
 1958 1958 l 1,67,-1
 1869 1958 l 1,68,-1
 1869 1869 l 1,69,-1
 1780 1869 l 1,70,-1
 1780 1780 l 1,71,-1
 1691 1780 l 1,72,-1
 1691 1869 l 1,73,-1
 1602 1869 l 1,74,-1
 1602 1958 l 1,75,-1
 1513 1958 l 1,76,-1
 1513 2048 l 1,77,-1
 1068 2048 l 1,78,-1
 1068 1958 l 1,79,-1
 979 1958 l 1,80,-1
 979 1869 l 1,81,-1
 890 1869 l 1,82,-1
 890 1780 l 1,83,-1
 801 1780 l 1,84,-1
 801 1691 l 1,85,-1
 712 1691 l 1,86,-1
 712 1335 l 1,87,-1
 801 1335 l 1,88,-1
 801 1246 l 1,89,-1
 890 1246 l 1,90,-1
 890 1157 l 1,91,-1
 979 1157 l 1,92,-1
 979 1068 l 1,93,-1
 1068 1068 l 1,94,-1
 1068 979 l 1,95,-1
 1157 979 l 1,96,-1
 1157 890 l 1,97,-1
 1246 890 l 1,98,-1
 1246 801 l 1,99,-1
 1335 801 l 1,100,-1
 1335 890 l 1,101,-1
 1424 890 l 1,102,-1
 1424 979 l 1,103,-1
 1513 979 l 1,104,-1
 1513 1068 l 1,105,-1
 1602 1068 l 1,106,-1
 1602 1157 l 1,107,-1
 1691 1157 l 1,108,-1
 1691 1246 l 1,109,-1
 1869 1246 l 1,110,-1
 1869 1157 l 1,111,-1
 1958 1157 l 1,112,-1
 1958 1068 l 1,113,-1
 2048 1068 l 1,114,-1
 2048 979 l 1,115,-1
 2137 979 l 1,116,-1
 2137 890 l 1,117,-1
 2226 890 l 1,118,-1
 2226 712 l 1,119,-1
 2137 712 l 1,120,-1
 2137 623 l 1,121,-1
 2048 623 l 1,122,-1
 2048 534 l 1,123,-1
 1958 534 l 1,124,-1
 1958 445 l 1,125,-1
 1869 445 l 1,126,-1
 1869 356 l 1,127,-1
 1780 356 l 1,128,-1
 1780 267 l 1,129,-1
 1691 267 l 1,130,-1
 1691 178 l 1,131,-1
 1602 178 l 1,132,-1
 1602 89 l 1,133,-1
 1513 89 l 1,134,-1
 1513 0 l 1,135,-1
 1157 0 l 1,6,-1
EndSplineSet
Validated: 1
EndChar

StartChar: Ccaron
Encoding: 268 268 122
GlifName: C_caron
Width: 2315
Flags: W
LayerCount: 2
Fore
SplineSet
1507 3111 m 25,0,-1
 1507 3027 l 17,1,-1
 1691 3027 l 1,2,-1
 1691 3120 l 1,3,-1
 1785 3120 l 1,4,-1
 1785 3280 l 1,5,-1
 1874 3280 l 1,6,-1
 1874 3368 l 1,7,-1
 1963 3368 l 1,8,-1
 1963 3550 l 1,9,-1
 2052 3550 l 1,10,-1
 2052 3815 l 1,11,-1
 2146 3815 l 1,12,-1
 2146 3997 l 1,13,-1
 2235 3997 l 9,14,-1
 2235 4176 l 1,15,-1
 1963 4176 l 1,16,-1
 1963 4269 l 1,17,-1
 1686 4269 l 1,18,-1
 1686 4176 l 1,19,-1
 1597 4176 l 1,20,-1
 1597 3999 l 1,21,-1
 1507 3999 l 1,22,-1
 1507 3818 l 1,23,-1
 1418 3818 l 1,24,-1
 1418 3641 l 1,25,-1
 1329 3641 l 1,26,-1
 1329 3730 l 1,27,-1
 1240 3730 l 1,28,-1
 1240 3906 l 1,29,-1
 1151 3906 l 1,30,-1
 1151 3999 l 1,31,-1
 1057 3999 l 1,32,-1
 1057 4176 l 1,33,-1
 967 4176 l 1,34,-1
 967 4269 l 1,35,-1
 878 4269 l 1,36,-1
 878 4357 l 1,37,-1
 690 4357 l 1,38,-1
 690 4269 l 1,39,-1
 601 4269 l 1,40,-1
 601 4176 l 1,41,-1
 512 4176 l 1,42,-1
 512 4088 l 1,43,-1
 418 4088 l 1,44,-1
 418 3828 l 1,45,-1
 512 3828 l 1,46,-1
 512 3740 l 1,47,-1
 601 3740 l 1,48,-1
 601 3651 l 1,49,-1
 690 3651 l 1,50,-1
 690 3558 l 1,51,-1
 779 3558 l 1,52,-1
 779 3470 l 1,53,-1
 873 3470 l 1,54,-1
 873 3381 l 1,55,-1
 962 3381 l 9,56,-1
 963 3289 l 17,57,-1
 1052 3289 l 1,58,-1
 1052 3201 l 1,59,-1
 1235 3201 l 1,60,-1
 1235 3112 l 9,61,-1
 1507 3111 l 25,0,-1
1157 0 m 1,62,-1
 1157 89 l 1,63,-1
 1068 89 l 1,64,-1
 1068 178 l 1,65,-1
 979 178 l 1,66,-1
 979 267 l 1,67,-1
 890 267 l 1,68,-1
 890 356 l 1,69,-1
 801 356 l 1,70,-1
 801 445 l 1,71,-1
 712 445 l 1,72,-1
 712 534 l 1,73,-1
 623 534 l 1,74,-1
 623 623 l 1,75,-1
 534 623 l 1,76,-1
 534 712 l 1,77,-1
 445 712 l 1,78,-1
 445 801 l 1,79,-1
 356 801 l 1,80,-1
 356 890 l 1,81,-1
 267 890 l 1,82,-1
 267 979 l 1,83,-1
 178 979 l 1,84,-1
 178 1068 l 1,85,-1
 89 1068 l 1,86,-1
 89 2048 l 1,87,-1
 178 2048 l 1,88,-1
 178 2137 l 1,89,-1
 267 2137 l 1,90,-1
 267 2226 l 1,91,-1
 356 2226 l 1,92,-1
 356 2315 l 1,93,-1
 445 2315 l 1,94,-1
 445 2404 l 1,95,-1
 534 2404 l 1,96,-1
 534 2493 l 1,97,-1
 623 2493 l 1,98,-1
 623 2582 l 1,99,-1
 712 2582 l 1,100,-1
 712 2671 l 1,101,-1
 801 2671 l 1,102,-1
 801 2760 l 1,103,-1
 890 2760 l 1,104,-1
 890 2849 l 1,105,-1
 1602 2849 l 1,106,-1
 1602 2760 l 1,107,-1
 1691 2760 l 1,108,-1
 1691 2671 l 1,109,-1
 1780 2671 l 1,110,-1
 1780 2582 l 1,111,-1
 1869 2582 l 1,112,-1
 1869 2493 l 1,113,-1
 1958 2493 l 1,114,-1
 1958 2404 l 1,115,-1
 2048 2404 l 1,116,-1
 2048 2315 l 1,117,-1
 2137 2315 l 1,118,-1
 2137 2137 l 1,119,-1
 2048 2137 l 1,120,-1
 2048 2048 l 1,121,-1
 1958 2048 l 1,122,-1
 1958 1958 l 1,123,-1
 1869 1958 l 1,124,-1
 1869 1869 l 1,125,-1
 1780 1869 l 1,126,-1
 1780 1780 l 1,127,-1
 1691 1780 l 1,128,-1
 1691 1869 l 1,129,-1
 1602 1869 l 1,130,-1
 1602 1958 l 1,131,-1
 1513 1958 l 1,132,-1
 1513 2048 l 1,133,-1
 1068 2048 l 1,134,-1
 1068 1958 l 1,135,-1
 979 1958 l 1,136,-1
 979 1869 l 1,137,-1
 890 1869 l 1,138,-1
 890 1780 l 1,139,-1
 801 1780 l 1,140,-1
 801 1691 l 1,141,-1
 712 1691 l 1,142,-1
 712 1335 l 1,143,-1
 801 1335 l 1,144,-1
 801 1246 l 1,145,-1
 890 1246 l 1,146,-1
 890 1157 l 1,147,-1
 979 1157 l 1,148,-1
 979 1068 l 1,149,-1
 1068 1068 l 1,150,-1
 1068 979 l 1,151,-1
 1157 979 l 1,152,-1
 1157 890 l 1,153,-1
 1246 890 l 1,154,-1
 1246 801 l 1,155,-1
 1335 801 l 1,156,-1
 1335 890 l 1,157,-1
 1424 890 l 1,158,-1
 1424 979 l 1,159,-1
 1513 979 l 1,160,-1
 1513 1068 l 1,161,-1
 1602 1068 l 1,162,-1
 1602 1157 l 1,163,-1
 1691 1157 l 1,164,-1
 1691 1246 l 1,165,-1
 1869 1246 l 1,166,-1
 1869 1157 l 1,167,-1
 1958 1157 l 1,168,-1
 1958 1068 l 1,169,-1
 2048 1068 l 1,170,-1
 2048 979 l 1,171,-1
 2137 979 l 1,172,-1
 2137 890 l 1,173,-1
 2226 890 l 1,174,-1
 2226 712 l 1,175,-1
 2137 712 l 1,176,-1
 2137 623 l 1,177,-1
 2048 623 l 1,178,-1
 2048 534 l 1,179,-1
 1958 534 l 1,180,-1
 1958 445 l 1,181,-1
 1869 445 l 1,182,-1
 1869 356 l 1,183,-1
 1780 356 l 1,184,-1
 1780 267 l 1,185,-1
 1691 267 l 1,186,-1
 1691 178 l 1,187,-1
 1602 178 l 1,188,-1
 1602 89 l 1,189,-1
 1513 89 l 1,190,-1
 1513 0 l 1,191,-1
 1157 0 l 1,62,-1
EndSplineSet
Validated: 1033
EndChar

StartChar: Dcaron
Encoding: 270 270 123
GlifName: D_caron
Width: 1780
Flags: W
LayerCount: 2
Fore
SplineSet
973 3111 m 29,0,-1
 973 3027 l 21,1,-1
 1157 3027 l 5,2,-1
 1157 3120 l 5,3,-1
 1251 3120 l 5,4,-1
 1251 3280 l 5,5,-1
 1340 3280 l 5,6,-1
 1340 3368 l 5,7,-1
 1429 3368 l 5,8,-1
 1429 3550 l 5,9,-1
 1518 3550 l 5,10,-1
 1518 3815 l 5,11,-1
 1612 3815 l 5,12,-1
 1612 3997 l 5,13,-1
 1701 3997 l 13,14,-1
 1701 4176 l 5,15,-1
 1429 4176 l 5,16,-1
 1429 4269 l 5,17,-1
 1152 4269 l 5,18,-1
 1152 4176 l 5,19,-1
 1063 4176 l 5,20,-1
 1063 3999 l 5,21,-1
 973 3999 l 5,22,-1
 973 3818 l 5,23,-1
 884 3818 l 5,24,-1
 884 3641 l 5,25,-1
 795 3641 l 5,26,-1
 795 3730 l 5,27,-1
 706 3730 l 5,28,-1
 706 3906 l 5,29,-1
 617 3906 l 5,30,-1
 617 3999 l 5,31,-1
 523 3999 l 5,32,-1
 523 4176 l 5,33,-1
 433 4176 l 5,34,-1
 433 4269 l 5,35,-1
 344 4269 l 5,36,-1
 344 4357 l 5,37,-1
 156 4357 l 5,38,-1
 156 4269 l 5,39,-1
 67 4269 l 5,40,-1
 67 4176 l 5,41,-1
 -22 4176 l 5,42,-1
 -22 4088 l 5,43,-1
 -116 4088 l 5,44,-1
 -116 3828 l 5,45,-1
 -22 3828 l 5,46,-1
 -22 3740 l 5,47,-1
 67 3740 l 5,48,-1
 67 3651 l 5,49,-1
 156 3651 l 5,50,-1
 156 3558 l 5,51,-1
 245 3558 l 5,52,-1
 245 3470 l 5,53,-1
 339 3470 l 5,54,-1
 339 3381 l 5,55,-1
 428 3381 l 13,56,-1
 429 3289 l 21,57,-1
 518 3289 l 5,58,-1
 518 3201 l 5,59,-1
 701 3201 l 5,60,-1
 701 3112 l 13,61,-1
 973 3111 l 29,0,-1
979 1246 m 1,62,-1
 979 1335 l 1,63,-1
 1068 1335 l 1,64,-1
 1068 1602 l 1,65,-1
 979 1602 l 1,66,-1
 979 1691 l 1,67,-1
 801 1691 l 1,68,-1
 801 1246 l 1,69,-1
 979 1246 l 1,62,-1
0 0 m 1,70,-1
 0 2849 l 1,71,-1
 979 2849 l 1,72,-1
 979 2760 l 1,73,-1
 1068 2760 l 1,74,-1
 1068 2671 l 1,75,-1
 1157 2671 l 1,76,-1
 1157 2582 l 1,77,-1
 1246 2582 l 1,78,-1
 1246 2493 l 1,79,-1
 1335 2493 l 1,80,-1
 1335 2404 l 1,81,-1
 1424 2404 l 1,82,-1
 1424 2315 l 1,83,-1
 1513 2315 l 1,84,-1
 1513 2226 l 1,85,-1
 1602 2226 l 1,86,-1
 1602 2137 l 1,87,-1
 1691 2137 l 1,88,-1
 1691 623 l 1,89,-1
 1602 623 l 1,90,-1
 1602 534 l 1,91,-1
 1513 534 l 1,92,-1
 1513 445 l 1,93,-1
 1424 445 l 1,94,-1
 1424 356 l 1,95,-1
 1335 356 l 1,96,-1
 1335 267 l 1,97,-1
 1246 267 l 1,98,-1
 1246 178 l 1,99,-1
 1157 178 l 1,100,-1
 1157 89 l 1,101,-1
 1068 89 l 1,102,-1
 1068 0 l 1,103,-1
 0 0 l 1,70,-1
EndSplineSet
Validated: 9
EndChar

StartChar: dcaron
Encoding: 271 271 124
GlifName: dcaron
Width: 1602
Flags: W
LayerCount: 2
Fore
SplineSet
1691 1424 m 5,0,-1
 1691 1691 l 5,1,-1
 1602 1691 l 5,2,-1
 1602 1869 l 5,3,-1
 1246 1869 l 5,4,-1
 1246 2225 l 5,5,-1
 1335 2225 l 5,6,-1
 1335 2581 l 5,7,-1
 1869 2581 l 5,8,-1
 1869 2225 l 5,9,-1
 1958 2225 l 5,10,-1
 1958 1691 l 5,11,-1
 1869 1691 l 5,12,-1
 1869 1424 l 5,13,-1
 1691 1424 l 5,0,-1
712 712 m 1,14,-1
 712 801 l 1,15,-1
 801 801 l 1,16,-1
 801 890 l 1,17,-1
 890 890 l 1,18,-1
 890 1068 l 1,19,-1
 801 1068 l 1,20,-1
 801 1157 l 1,21,-1
 712 1157 l 1,22,-1
 712 1246 l 1,23,-1
 623 1246 l 1,24,-1
 623 712 l 1,25,-1
 712 712 l 1,14,-1
0 0 m 1,26,-1
 0 2048 l 1,27,-1
 979 2048 l 1,28,-1
 979 1958 l 1,29,-1
 1068 1958 l 1,30,-1
 1068 1869 l 1,31,-1
 1157 1869 l 1,32,-1
 1157 1780 l 1,33,-1
 1246 1780 l 1,34,-1
 1246 1691 l 1,35,-1
 1335 1691 l 1,36,-1
 1335 1602 l 1,37,-1
 1424 1602 l 1,38,-1
 1424 1513 l 1,39,-1
 1513 1513 l 1,40,-1
 1513 445 l 1,41,-1
 1424 445 l 1,42,-1
 1424 356 l 1,43,-1
 1335 356 l 1,44,-1
 1335 267 l 1,45,-1
 1246 267 l 1,46,-1
 1246 178 l 1,47,-1
 1157 178 l 1,48,-1
 1157 89 l 1,49,-1
 1068 89 l 1,50,-1
 1068 0 l 1,51,-1
 0 0 l 1,26,-1
EndSplineSet
Validated: 1
EndChar

StartChar: cacute
Encoding: 263 263 125
GlifName: cacute
Width: 1691
Flags: W
LayerCount: 2
Fore
SplineSet
1156.88183594 2758.73535156 m 5,0,-1
 1067.90429688 2758.73535156 l 5,1,-1
 1067.90429688 2669.76074219 l 5,2,-1
 978.928710938 2669.76074219 l 5,3,-1
 978.928710938 2580.78417969 l 5,4,-1
 889.947265625 2580.78417969 l 5,5,-1
 889.947265625 2491.80566406 l 5,6,-1
 800.971679688 2491.80566406 l 5,7,-1
 800.971679688 2402.83105469 l 5,8,-1
 712 2402.83105469 l 5,9,-1
 712 2224.88378906 l 5,10,-1
 623.025390625 2224.88378906 l 5,11,-1
 623.025390625 2135.90917969 l 5,12,-1
 534.048828125 2135.90917969 l 5,13,-1
 534.048828125 1957.95019531 l 5,14,-1
 623.025390625 1957.95019531 l 5,15,-1
 623.025390625 1868.9765625 l 5,16,-1
 712 1868.9765625 l 5,17,-1
 712 1780 l 5,18,-1
 800.971679688 1780 l 5,19,-1
 800.971679688 1868.9765625 l 5,20,-1
 978.928710938 1868.9765625 l 5,21,-1
 978.928710938 1957.95019531 l 5,22,-1
 1156.88183594 1957.95019531 l 5,23,-1
 1156.88183594 2046.92480469 l 5,24,-1
 1245.85546875 2046.92480469 l 5,25,-1
 1245.85546875 2135.90917969 l 5,26,-1
 1423.80664062 2135.90917969 l 5,27,-1
 1423.80664062 2224.88378906 l 5,28,-1
 1512.78515625 2224.88378906 l 5,29,-1
 1512.78515625 2402.83105469 l 5,30,-1
 1423.80664062 2402.83105469 l 5,31,-1
 1423.80664062 2491.80566406 l 5,32,-1
 1334.82714844 2491.80566406 l 5,33,-1
 1334.82714844 2580.78417969 l 5,34,-1
 1245.85546875 2580.78417969 l 5,35,-1
 1245.85546875 2669.76074219 l 5,36,-1
 1156.88183594 2669.76074219 l 5,37,-1
 1156.88183594 2758.73535156 l 5,0,-1
534 0 m 1,38,-1
 534 89 l 1,39,-1
 267 89 l 1,40,-1
 267 267 l 1,41,-1
 178 267 l 1,42,-1
 178 445 l 1,43,-1
 89 445 l 1,44,-1
 89 623 l 1,45,-1
 0 623 l 1,46,-1
 0 890 l 1,47,-1
 89 890 l 1,48,-1
 89 1246 l 1,49,-1
 178 1246 l 1,50,-1
 178 1424 l 1,51,-1
 267 1424 l 1,52,-1
 267 1513 l 1,53,-1
 445 1513 l 1,54,-1
 445 1602 l 1,55,-1
 623 1602 l 1,56,-1
 623 1691 l 1,57,-1
 801 1691 l 1,58,-1
 801 1602 l 1,59,-1
 1068 1602 l 1,60,-1
 1068 1513 l 1,61,-1
 1424 1513 l 1,62,-1
 1424 1424 l 1,63,-1
 1513 1424 l 1,64,-1
 1513 1246 l 1,65,-1
 1424 1246 l 1,66,-1
 1424 1157 l 1,67,-1
 1335 1157 l 1,68,-1
 1335 1068 l 1,69,-1
 979 1068 l 1,70,-1
 979 1157 l 1,71,-1
 712 1157 l 1,72,-1
 712 1068 l 1,73,-1
 623 1068 l 1,74,-1
 623 801 l 1,75,-1
 534 801 l 1,76,-1
 534 623 l 1,77,-1
 623 623 l 1,78,-1
 623 534 l 1,79,-1
 801 534 l 1,80,-1
 801 445 l 1,81,-1
 1157 445 l 1,82,-1
 1157 534 l 1,83,-1
 1602 534 l 1,84,-1
 1602 356 l 1,85,-1
 1513 356 l 1,86,-1
 1513 89 l 1,87,-1
 1068 89 l 1,88,-1
 1068 0 l 1,89,-1
 534 0 l 1,38,-1
EndSplineSet
Validated: 524297
EndChar

